{
.appVersion = "3530";
.formatVersion = 3;
DisplayStrings = (
"ABCDEFGHIJKLMN
OPQRSTUVWXYZ
abcdefghijklmn
opqrstuvwxyz time

HHmHH"
);
axes = (
{
name = Weight;
tag = wght;
},
{
name = Width;
tag = wdth;
}
);
customParameters = (
{
name = "Enforce Compatibility Check";
value = 1;
},
{
name = fsType;
value = (
);
}
);
date = "2026-06-07 07:11:36 +0000";
familyName = "M PLUS F Latin";
featurePrefixes = (
{
automatic = 1;
code = "languagesystem DFLT dflt;
";
name = Languagesystems;
}
);
fontMaster = (
{
axesValues = (
100,
100
);
customParameters = (
{
name = typoAscender;
value = 880;
},
{
name = typoDescender;
value = -120;
},
{
name = typoLineGap;
value = 0;
},
{
name = winAscent;
value = 1160;
},
{
name = winDescent;
value = 288;
},
{
name = hheaAscender;
value = 1160;
},
{
name = hheaDescender;
value = -288;
},
{
name = hheaLineGap;
value = 0;
}
);
iconName = Light_SemiCondensed;
id = m004;
metricValues = (
{
over = 16;
pos = 860;
},
{
over = 11;
pos = 730;
},
{
over = 11;
pos = 520;
},
{
over = -11;
},
{
over = -15;
pos = -140;
},
{
}
);
name = "Thin F1";
stemValues = (
20,
20,
20,
20
);
userData = {
GSOffsetHorizontal = -20;
GSOffsetProportional = 1;
GSOffsetVertical = -20;
};
},
{
axesValues = (
500,
100
);
customParameters = (
{
name = typoAscender;
value = 880;
},
{
name = typoDescender;
value = -120;
},
{
name = typoLineGap;
value = 0;
},
{
name = winAscent;
value = 1160;
},
{
name = winDescent;
value = 288;
},
{
name = hheaAscender;
value = 1160;
},
{
name = hheaDescender;
value = -288;
},
{
name = hheaLineGap;
value = 0;
}
);
iconName = SemiCondensed;
id = m005;
metricValues = (
{
over = 16;
pos = 860;
},
{
over = 11;
pos = 730;
},
{
over = 11;
pos = 520;
},
{
over = -11;
},
{
over = -15;
pos = -140;
},
{
}
);
name = "Medium F1";
stemValues = (
100,
90,
110,
108
);
userData = {
GSOffsetHorizontal = -109;
GSOffsetProportional = 1;
GSOffsetVertical = 10;
};
},
{
axesValues = (
900,
100
);
customParameters = (
{
name = typoAscender;
value = 880;
},
{

glyphs = (
{
color = 4;
glyphname = A;
kernLeft = A;
kernRight = A;
lastChange = "2026-07-05 07:38:48 +0000";
layers = (
{
layerId = m01;
shapes = (
{
closed = 1;
nodes = (
(40,0,l),
(330,669,l),
(347,710,l),
(349,710,l),
(366,669,l),
(656,0,l),
(678,0,l),
(361,730,l),
(335,730,l),
(18,0,l)
);
},
{
closed = 1;
nodes = (
(538,290,l),
(538,310,l),
(158,310,l),
(158,290,l)
);
}
);
width = 696;
},
{
layerId = m002;
shapes = (
{
closed = 1;
nodes = (
(137,0,l),
(346,560,l),
(369,623,l),
(371,623,l),
(394,560,l),
(603,0,l),
(725,0,l),
(445,730,l),
(295,730,l),
(15,0,l)
);
},
{
closed = 1;
nodes = (
(560,221,l),
(560,319,l),
(180,319,l),
(180,221,l)
);
}
);
width = 740;
},
{
layerId = m003;
shapes = (
{
closed = 1;
nodes = (
(230,0,l),
(362,450,l),
(391,552,l),
(393,552,l),
(422,450,l),
(554,0,l),
(772,0,l),
(517,730,l),
(267,730,l),
(12,0,l)
);
},
{
closed = 1;
nodes = (
(582,153,l),
(582,327,l),
(202,327,l),
(202,153,l)
);
}
);
width = 784;
},
{
layerId = m004;
shapes = (
{
closed = 1;
nodes = (
(40,0,l),
(284,669,l),
(297,707,l),
(299,707,l),
(312,669,l),
(556,0,l),
(578,0,l),
(311,730,l),
(285,730,l),
(18,0,l)
);
},
{
closed = 1;
nodes = (
(473,260,l),
(473,280,l),
(123,280,l),
(123,260,l)
);
}
);
width = 596;
},
{
layerId = m005;
shapes = (
{
closed = 1;
nodes = (
(135,0,l),
(301,550,l),
(319,613,l),
(321,613,l),
(339,550,l),
(505,0,l),
(625,0,l),
(395,730,l),
(245,730,l),
(15,0,l)
);
},
{
closed = 1;
nodes = (
(495,191,l),
(495,289,l),
(145,289,l),
(145,191,l)
);
}
);
width = 640;
},
{
layerId = m006;
shapes = (
{
closed = 1;
nodes = (
(226,0,l),
(319,430,l),
(341,536,l),
(343,536,l),
(365,430,l),
(458,0,l),
(672,0,l),
(467,730,l),
(217,730,l),
(12,0,l)
);
},
{
closed = 1;
nodes = (
(517,123,l),
(517,297,l),
(167,297,l),
(167,123,l)
);
}
);
width = 684;
}
);
metricLeft = "=H*.2";
metricRight = "=|";
unicode = 65;
},
{
color = 4;
glyphname = B;
kernLeft = H;
kernRight = B;
lastChange = "2026-07-05 07:39:39 +0000";
layers = (
{
layerId = m01;
metricRight = "=H*.6";
shapes = (
{
closed = 1;
nodes = (
(436,-10,o),
(540,57,o),
(540,195,cs),
(540,303,o),
(478,369,o),
(363,391,c),
(363,393,l),
(447,417,o),
(494,474,o),
(494,560,cs),
(494,677,o),
(403,740,o),
(244,740,cs),
(204,740,o),
(167,736,o),
(90,726,c),
(90,4,l),
(147,-6,o),
(188,-10,o),
(237,-10,cs)
);
},
{
closed = 1;
nodes = (
(189,10,o),
(151,14,o),
(94,24,c),
(110,14,l),
(110,716,l),
(93,706,l),
(187,718,o),
(216,720,o),
(244,720,cs),
(394,720,o),
(474,664,o),
(474,560,cs),
(474,457,o),
(399,400,o),
(264,400,cs),
(100,400,l),
(100,380,l),
(264,380,ls),
(433,380,o),
(520,317,o),
(520,195,cs),
(520,71,o),
(427,10,o),
(237,10,cs)
);
}
);
width = 594;
},
{
associatedMasterId = m01;
attr = {
coordinates = (
200,
200
);
};
layerId = "045BF7CD-F08D-414D-A7F3-96A78B5CF3C8";
metricRight = "=H*.6";
name = "Jun 9, 26 at 21:10";
shapes = (
{
closed = 1;
nodes = (
(446,-10,o),
(551,57,o),
(551,196,cs),
(551,300,o),
(493,369,o),
(388,390,c),
(388,392,l),
(463,416,o),
(506,477,o),
(506,559,cs),
(506,678,o),
(415,740,o),
(247,740,cs),
(202,740,o),
(162,736,o),
(86,726,c),
(86,4,l),
(143,-6,o),
(187,-10,o),
(238,-10,cs)
);
},
{
closed = 1;
nodes = (
(199,30,o),
(151,34,o),
(102,42,c),
(128,19,l),
(128,712,l),
(101,688,l),
(178,698,o),
(221,701,o),
(251,701,cs),
(389,701,o),
(462,650,o),
(462,554,cs),
(462,459,o),
(394,407,o),
(269,407,cs),
(107,407,l),
(107,368,l),
(270,368,ls),
(427,368,o),
(507,311,o),
(507,199,cs),
(507,85,o),
(422,30,o),
(246,30,cs)
);
}
);
width = 603;
},
{
associatedMasterId = m01;
attr = {
axisRules = (
{
},
{
max = 150;
min = 100;
}
);
};
layerId = "0A0012AC-723E-4655-B905-BB0008F0DE8C";
metricRight = "=H*.6";
name = "Thin F1 [100‹wd‹150] Jun 15, 26 at 20:59";
shapes = (
{
closed = 1;
nodes = (
(439,0,o),
(540,65,o),
(540,195,cs),
(540,299,o),
(477,369,o),
(363,391,c),
(363,393,l),
(446,417,o),
(492,477,o),
(492,560,cs),
(492,672,o),
(408,730,o),
(244,730,cs),
(204,730,o),
(167,730,o),
(90,730,c),
(90,0,l),
(147,0,o),
(189,0,o),
(237,0,cs)
);
},
{
closed = 1;
nodes = (
(191,20,o),
(151,20,o),
(94,20,c),
(110,14,l),
(110,716,l),
(93,710,l),
(170,710,o),
(205,710,o),
(244,710,cs),
(399,710,o),
(472,659,o),
(472,560,cs),
(472,486,o),
(431,400,o),
(264,400,cs),
(100,400,l),
(100,380,l),
(264,380,ls),
(463,380,o),
(520,289,o),
(520,195,cs),
(520,79,o),
(430,20,o),
(237,20,cs)
);
}
);
width = 594;
},
{
associatedMasterId = m01;
attr = {
axisRules = (
{
},
{
max = 150;
min = 100;
}
);
coordinates = (
200,
200
);
};
layerId = "352600B3-56CE-4747-BD4F-228B2749AAB0";
metricRight = "=H*.6";
name = "Jun 15, 26 at 20:58";
shapes = (
{
closed = 1;
nodes = (
(449,0,o),
(551,64,o),
(551,196,cs),
(551,298,o),
(491,369,o),
(388,390,c),
(388,392,l),
(462,416,o),
(505,478,o),
(505,559,cs),
(505,673,o),
(420,730,o),
(250,730,cs),
(204,730,o),
(162,730,o),
(86,730,c),
(86,0,l),
(144,0,o),
(190,0,o),
(241,0,cs)
);
},
{
closed = 1;
nodes = (
(201,40,o),
(152,40,o),
(102,40,c),
(128,19,l),
(128,712,l),
(101,691,l),
(165,691,o),
(213,691,o),
(251,691,cs),
(393,691,o),
(461,644,o),
(461,552,cs),
(461,480,o),
(418,407,o),
(269,407,cs),
(107,407,l),
(107,368,l),
(270,368,ls),
(450,368,o),
(507,291,o),
(507,200,cs),
(507,93,o),
(424,40,o),
(246,40,cs)
);
}
);
width = 603;
},
{
layerId = m002;
metricRight = "=H*.5";
shapes = (
{
closed = 1;
nodes = (
(477,-10,o),
(585,56,o),
(585,198,cs),
(585,300,o),
(529,367,o),
(426,385,c),
(426,387,l),
(505,413,o),
(545,471,o),
(545,555,cs),
(545,682,o),
(454,740,o),
(257,740,cs),
(199,740,o),
(146,735,o),
(75,726,c),
(75,4,l),
(133,-6,o),
(186,-10,o),
(244,-10,cs)
);
},
{
closed = 1;
nodes = (
(233,88,o),
(159,92,o),
(129,96,c),
(184,32,l),
(184,699,l),
(129,634,l),
(154,638,o),
(240,642,o),
(275,642,cs),
(378,642,o),
(430,606,o),
(430,534,cs),
(430,464,o),
(381,428,o),
(285,428,cs),
(130,428,l),
(130,332,l),
(290,332,ls),
(412,332,o),
(470,293,o),
(470,211,cs),
(470,127,o),
(409,88,o),
(276,88,cs)
);
}
);
width = 623;
},
{
layerId = m003;
metricRight = "=H*.4";
shapes = (
{
closed = 1;
nodes = (
(518,-10,o),
(630,51,o),
(630,200,cs),
(630,303,o),
(577,364,o),
(475,378,c),
(475,380,l),
(562,409,o),
(600,460,o),
(600,550,cs),
(600,688,o),
(509,740,o),
(266,740,cs),
(191,740,o),
(125,735,o),
(60,726,c),
(60,4,l),
(137,-6,o),
(176,-10,o),
(246,-10,cs)
);
},
{
closed = 1;
nodes = (
(253,147,o),
(220,147,o),
(159,147,c),
(258,48,l),
(258,682,l),
(159,583,l),
(219,583,o),
(256,583,o),
(311,583,cs),
(366,583,o),
(390,562,o),
(390,513,cs),
(390,466,o),
(368,447,o),
(311,447,cs),
(159,447,l),
(159,293,l),
(321,293,ls),
(394,293,o),
(420,274,o),
(420,222,cs),
(420,168,o),
(392,147,o),
(321,147,cs)
);
}
);
width = 654;
},
{
layerId = m004;
metricRight = "=H*.6";
shapes = (
{
closed = 1;
nodes = (
(455,-10,o),
(560,58,o),
(560,195,cs),
(560,302,o),
(496,369,o),
(375,391,c),
(375,393,l),
(463,417,o),
(510,476,o),
(510,560,cs),
(510,677,o),
(419,740,o),
(251,740,cs),
(209,740,o),
(170,736,o),
(90,726,c),
(90,4,l),
(150,-6,o),
(193,-10,o),
(244,-10,cs)
);
},
{
closed = 1;
nodes = (
(194,10,o),
(153,14,o),
(93,24,c),
(110,14,l),
(110,716,l),
(92,706,l),
(172,716,o),
(210,720,o),
(251,720,cs),
(410,720,o),
(490,664,o),
(490,560,cs),
(490,457,o),
(412,400,o),
(272,400,cs),
(100,400,l),
(100,380,l),
(272,380,ls),
(448,380,o),
(540,316,o),
(540,195,cs),
(540,72,o),
(446,10,o),
(244,10,cs)
);
}
);
width = 614;
},
{
associatedMasterId = m004;
attr = {
coordinates = (
200,
100
);
};
layerId = "6536ABDB-027F-41C3-A38C-CA501C79773F";
metricRight = "=H*.6";
name = "{200} Jun 14, 26 at 17:39";
shapes = (
{
closed = 1;
nodes = (
(462,-10,o),
(568,58,o),
(568,196,cs),
(568,300,o),
(508,369,o),
(399,390,c),
(399,392,l),
(477,416,o),
(521,476,o),
(521,559,cs),
(521,678,o),
(429,740,o),
(253,740,cs),
(206,740,o),
(164,736,o),
(86,726,c),
(86,4,l),
(146,-6,o),
(191,-10,o),
(244,-10,cs)
);
},
{
closed = 1;
nodes = (
(204,30,o),
(155,33,o),
(101,42,c),
(128,19,l),
(128,712,l),
(100,688,l),
(166,696,o),
(217,701,o),
(257,701,cs),
(403,701,o),
(477,650,o),
(477,554,cs),
(477,459,o),
(406,407,o),
(276,407,cs),
(107,407,l),
(107,368,l),
(277,368,ls),
(440,368,o),
(524,310,o),
(524,199,cs),
(524,86,o),
(438,30,o),
(252,30,cs)
);
}
);
width = 620;
},
{
associatedMasterId = m004;
attr = {
axisRules = (
{
},
{
max = 150;
min = 100;
}
);
};
layerId = "2CD06F6B-4F8F-4796-94F0-062F0D0B15DF";
metricRight = "=H*.6";
name = "Jun 14, 26 at 17:45";
shapes = (
{
closed = 1;
nodes = (
(455,0,o),
(560,65,o),
(560,195,cs),
(560,299,o),
(494,369,o),
(375,391,c),
(375,393,l),
(462,417,o),
(510,477,o),
(510,560,cs),
(510,672,o),
(422,730,o),
(251,730,cs),
(209,730,o),
(170,730,o),
(90,730,c),
(90,0,l),
(150,0,o),
(193,0,o),
(244,0,cs)
);
},
{
closed = 1;
nodes = (
(194,20,o),
(153,20,o),
(93,20,c),
(110,14,l),
(110,716,l),
(92,710,l),
(172,710,o),
(210,710,o),
(251,710,cs),
(413,710,o),
(490,658,o),
(490,560,cs),
(490,486,o),
(447,400,o),
(272,400,cs),
(100,400,l),
(100,380,l),
(272,380,ls),
(480,380,o),
(540,289,o),
(540,195,cs),
(540,79,o),
(447,20,o),
(244,20,cs)
);
}
);
width = 614;
},
{
associatedMasterId = m004;
attr = {
axisRules = (
{
},
{
max = 150;
min = 100;
}
);
coordinates = (
200,
100
);
};
layerId = "4F1B4BE8-EDDA-468F-8D03-044AB595CA70";
metricRight = "=H*.6";
name = "Jun 9, 26 at 21:16";
shapes = (
{
closed = 1;
nodes = (
(463,0,o),
(568,64,o),
(568,196,cs),
(568,298,o),
(506,369,o),
(399,390,c),
(399,392,l),
(476,416,o),
(521,478,o),
(521,559,cs),
(521,673,o),
(433,730,o),
(256,730,cs),
(209,730,o),
(165,730,o),
(86,730,c),
(86,0,l),
(146,0,o),
(193,0,o),
(247,0,cs)
);
},
{
closed = 1;
nodes = (
(204,40,o),
(154,40,o),
(101,40,c),
(128,19,l),
(128,712,l),
(100,691,l),
(167,691,o),
(217,691,o),
(257,691,cs),
(406,691,o),
(477,643,o),
(477,552,cs),
(477,480,o),
(432,407,o),
(276,407,cs),
(107,407,l),
(107,368,l),
(277,368,ls),
(464,368,o),
(524,291,o),
(524,200,cs),
(524,93,o),
(439,40,o),
(252,40,cs)
);
}
);
width = 620;
},
{
layerId = m005;
metricRight = "=H*.5";
shapes = (
{
closed = 1;
nodes = (
(485,-10,o),
(595,56,o),
(595,198,cs),
(595,300,o),
(538,367,o),
(433,385,c),
(433,387,l),
(514,413,o),
(555,471,o),
(555,555,cs),
(555,682,o),
(462,740,o),
(261,740,cs),
(201,740,o),
(147,735,o),
(75,726,c),
(75,4,l),
(134,-6,o),
(188,-10,o),
(247,-10,cs)
);
},
{
closed = 1;
nodes = (
(236,88,o),
(159,92,o),
(128,96,c),
(184,32,l),
(184,699,l),
(128,634,l),
(154,637,o),
(239,642,o),
(279,642,cs),
(386,642,o),
(440,606,o),
(440,534,cs),
(440,464,o),
(389,428,o),
(289,428,cs),
(129,428,l),
(129,332,l),
(294,332,ls),
(420,332,o),
(480,293,o),
(480,211,cs),
(480,127,o),
(417,88,o),
(280,88,cs)
);
}
);
width = 633;
},
{
associatedMasterId = m005;
attr = {
axisRules = (
{
},
{
max = 150;
min = 100;
}
);
};
layerId = "8060C201-5DEE-4975-A598-B4EB239F2D66";
metricRight = "=H*.5";
name = "Jun 14, 26 at 17:28";
shapes = (
{
closed = 1;
nodes = (
(490,0,o),
(595,62,o),
(595,198,cs),
(595,300,o),
(536,367,o),
(433,385,c),
(433,387,l),
(512,413,o),
(555,470,o),
(555,555,cs),
(555,676,o),
(468,730,o),
(274,730,cs),
(210,730,o),
(152,730,o),
(75,730,c),
(75,0,l),
(138,0,o),
(197,0,o),
(260,0,cs)
);
},
{
closed = 1;
nodes = (
(235,98,o),
(159,98,o),
(128,98,c),
(184,32,l),
(184,699,l),
(128,632,l),
(154,632,o),
(242,632,o),
(279,632,cs),
(386,632,o),
(440,598,o),
(440,529,cs),
(440,462,o),
(389,428,o),
(289,428,cs),
(129,428,l),
(129,332,l),
(294,332,ls),
(420,332,o),
(480,295,o),
(480,216,cs),
(480,135,o),
(417,98,o),
(280,98,cs)
);
}
);
width = 633;
},
{
layerId = m006;
metricRight = "=H*.4";
shapes = (
{
closed = 1;
nodes = (
(518,-10,o),
(630,51,o),
(630,200,cs),
(630,303,o),
(577,364,o),
(475,378,c),
(475,380,l),
(562,409,o),
(600,460,o),
(600,550,cs),
(600,688,o),
(509,740,o),
(266,740,cs),
(191,740,o),
(125,735,o),
(60,726,c),
(60,4,l),
(137,-6,o),
(176,-10,o),
(246,-10,cs)
);
},
{
closed = 1;
nodes = (
(253,147,o),
(220,147,o),
(159,147,c),
(258,48,l),
(258,682,l),
(159,583,l),
(219,583,o),
(256,583,o),
(311,583,cs),
(366,583,o),
(390,562,o),
(390,513,cs),
(390,466,o),
(368,447,o),
(311,447,cs),
(159,447,l),
(159,293,l),
(321,293,ls),
(394,293,o),
(420,274,o),
(420,222,cs),
(420,168,o),
(392,147,o),
(321,147,cs)
);
}
);
width = 654;
},
{
associatedMasterId = m006;
attr = {
axisRules = (
{
},
{
max = 150;
min = 100;
}
);
};
layerId = "8D11030C-BE9D-4093-894E-515C8C7DF80E";
metricRight = "=H*.4";
name = "Jun 14, 26 at 17:14";
shapes = (
{
closed = 1;
nodes = (
(528,0,o),
(630,58,o),
(630,200,cs),
(630,303,o),
(576,364,o),
(475,378,c),
(475,380,l),
(562,409,o),
(600,461,o),
(600,550,cs),
(600,681,o),
(518,730,o),
(296,730,cs),
(210,730,o),
(134,730,o),
(60,730,c),
(60,0,l),
(149,0,o),
(195,0,o),
(276,0,cs)
);
},
{
closed = 1;
nodes = (
(253,157,o),
(220,157,o),
(159,157,c),
(258,48,l),
(258,682,l),
(159,573,l),
(219,573,o),
(256,573,o),
(311,573,cs),
(366,573,o),
(390,553,o),
(390,508,cs),
(390,464,o),
(368,447,o),
(311,447,cs),
(159,447,l),
(159,293,l),
(321,293,ls),
(394,293,o),
(420,275,o),
(420,227,cs),
(420,177,o),
(392,157,o),
(321,157,cs)
);
}
);
width = 654;
},
{
associatedMasterId = m002;
attr = {
axisRules = (
{
},
{
max = 150;
min = 100;
}
);
};
layerId = "2802B45B-26D9-4ABF-839D-724F2B009C71";
metricRight = "=H*.5";
name = "Jun 15, 26 at 20:59";
shapes = (
{
closed = 1;
nodes = (
(482,0,o),
(585,62,o),
(585,198,cs),
(585,300,o),
(527,367,o),
(426,385,c),
(426,387,l),
(504,413,o),
(546,470,o),
(546,555,cs),
(546,676,o),
(460,730,o),
(270,730,cs),
(207,730,o),
(151,730,o),
(75,730,c),
(75,0,l),
(137,0,o),
(195,0,o),
(256,0,cs)
);
},
{
closed = 1;
nodes = (
(233,98,o),
(159,98,o),
(129,98,c),
(184,32,l),
(184,699,l),
(129,632,l),
(154,632,o),
(240,632,o),
(275,632,cs),
(379,632,o),
(431,598,o),
(431,529,cs),
(431,462,o),
(382,428,o),
(285,428,cs),
(130,428,l),
(130,332,l),
(290,332,ls),
(412,332,o),
(470,295,o),
(470,216,cs),
(470,135,o),
(409,98,o),
(276,98,cs)
);
}
);
width = 623;
},
{
associatedMasterId = m003;
attr = {
axisRules = (
{
},
{
max = 150;
min = 100;
}
);
};
layerId = "6B768C5E-A1D0-4819-A003-44E97986E5A1";
metricRight = "=H*.4";
name = "Jun 15, 26 at 20:59";
shapes = (
{
closed = 1;
nodes = (
(528,0,o),
(630,58,o),
(630,200,cs),
(630,303,o),
(576,364,o),
(475,378,c),
(475,380,l),
(562,409,o),
(600,461,o),
(600,550,cs),
(600,681,o),
(518,730,o),
(296,730,cs),
(210,730,o),
(134,730,o),
(60,730,c),
(60,0,l),
(149,0,o),
(195,0,o),
(276,0,cs)
);
},
{
closed = 1;
nodes = (
(253,157,o),
(220,157,o),
(159,157,c),
(258,48,l),
(258,682,l),
(159,573,l),
(219,573,o),
(256,573,o),
(311,573,cs),
(366,573,o),
(390,553,o),
(390,508,cs),
(390,464,o),
(368,447,o),
(311,447,cs),
(159,447,l),
(159,293,l),
(321,293,ls),
(394,293,o),
(420,275,o),
(420,227,cs),
(420,177,o),
(392,157,o),
(321,157,cs)
);
}
);
width = 654;
}
);
metricLeft = "=H";
metricRight = "=H*.6";
unicode = 66;
},
{
color = 4;
glyphname = C;
kernLeft = O;
kernRight = C;
lastChange = "2026-07-05 07:39:42 +0000";
layers = (
{
layerId = m01;
shapes = (
{
closed = 1;
nodes = (
(527,-20,o),
(623,1,o),
(695,36,c),
(686,54,l),
(616,20,o),
(525,0,o),
(440,0,cs),
(214,0,o),
(65,145,o),
(65,365,cs),
(65,585,o),
(214,730,o),
(440,730,cs),
(525,730,o),
(616,710,o),
(686,676,c),
(695,694,l),
(623,729,o),
(527,750,o),
(440,750,cs),
(203,750,o),
(45,596,o),
(45,365,cs),
(45,134,o),
(203,-20,o),
(440,-20,cs)
);
}
);
width = 767;
},
{
layerId = m002;
shapes = (
{
closed = 1;
nodes = (
(528,-20,o),
(625,1,o),
(698,36,c),
(676,134,l),
(612,104,o),
(524,85,o),
(449,85,cs),
(268,85,o),
(153,194,o),
(153,365,cs),
(153,536,o),
(268,645,o),
(449,645,cs),
(524,645,o),
(612,626,o),
(676,596,c),
(698,694,l),
(625,729,o),
(528,750,o),
(439,750,cs),
(199,750,o),
(38,596,o),
(38,365,cs),
(38,134,o),
(199,-20,o),
(439,-20,cs)
);
}
);
width = 758;
},
{
layerId = m005;
shapes = (
{
closed = 1;
nodes = (
(475,-20,o),
(571,2,o),
(638,36,c),
(616,134,l),
(559,105,o),
(473,85,o),
(405,85,cs),
(249,85,o),
(153,192,o),
(153,365,cs),
(153,538,o),
(249,645,o),
(405,645,cs),
(473,645,o),
(559,625,o),
(616,596,c),
(638,694,l),
(571,728,o),
(475,750,o),
(394,750,cs),
(180,750,o),
(38,596,o),
(38,365,cs),
(38,134,o),
(180,-20,o),
(394,-20,cs)
);
}
);
width = 698;
},
{
layerId = m003;
name = Black;
shapes = (
{
closed = 1;
nodes = (
(527,-20,o),
(626,1,o),
(700,36,c),
(664,214,l),
(607,188,o),
(525,170,o),
(457,170,cs),
(320,170,o),
(240,242,o),
(240,365,cs),
(240,488,o),
(320,560,o),
(457,560,cs),
(525,560,o),
(607,542,o),
(664,516,c),
(700,694,l),
(626,729,o),
(527,750,o),
(437,750,cs),
(193,750,o),
(30,596,o),
(30,365,cs),
(30,134,o),
(193,-20,o),
(437,-20,cs)
);
}
);
width = 748;
},
{
layerId = m006;
name = "Black F2";
shapes = (
{
closed = 1;
nodes = (
(495,-20,o),
(598,2,o),
(670,36,c),
(634,214,l),
(582,189,o),
(495,170,o),
(432,170,cs),
(310,170,o),
(240,241,o),
(240,365,cs),
(240,489,o),
(310,560,o),
(432,560,cs),
(495,560,o),
(582,541,o),
(634,516,c),
(670,694,l),
(598,728,o),
(495,750,o),
(409,750,cs),
(182,750,o),
(30,596,o),
(30,365,cs),
(30,134,o),
(182,-20,o),
(409,-20,cs)
);
}
);
width = 718;
},
{
layerId = m004;
name = "Thin F2";
shapes = (
{
closed = 1;
nodes = (
(452,-20,o),
(542,2,o),
(605,36,c),
(596,54,l),
(535,21,o),
(449,0,o),
(377,0,cs),
(190,0,o),
(65,144,o),
(65,365,cs),
(65,586,o),
(190,730,o),
(377,730,cs),
(449,730,o),
(535,709,o),
(596,676,c),
(605,694,l),
(542,728,o),
(452,750,o),
(377,750,cs),
(178,750,o),
(45,596,o),
(45,365,cs),
(45,134,o),
(178,-20,o),
(377,-20,cs)
);
}
);
width = 677;
}
);
metricLeft = "=O";
metricRight = "=H*.8";
unicode = 67;
},
{
color = 4;
glyphname = D;
kernLeft = H;
kernRight = O;
lastChange = "2026-07-05 07:39:44 +0000";
layers = (
{
layerId = m01;
shapes = (
{
closed = 1;
nodes = (
(466,-10,o),
(580,119,o),
(580,365,cs),
(580,611,o),
(466,740,o),
(250,740,cs),
(203,740,o),
(139,734,o),
(90,726,c),
(90,4,l),
(139,-4,o),
(203,-10,o),
(250,-10,cs)
);
},
{
closed = 1;
nodes = (
(204,10,o),
(142,16,o),
(93,24,c),
(110,5,l),
(110,725,l),
(93,706,l),
(142,714,o),
(204,720,o),
(250,720,cs),
(454,720,o),
(560,601,o),
(560,365,cs),
(560,129,o),
(454,10,o),
(250,10,cs)
);
}
);
width = 625;
},
{
layerId = m002;
shapes = (
{
closed = 1;
nodes = (
(490,-10,o),
(615,119,o),
(615,365,cs),
(615,611,o),
(490,740,o),
(252,740,cs),
(205,740,o),
(144,735,o),
(75,726,c),
(75,4,l),
(144,-5,o),
(205,-10,o),
(252,-10,cs)
);
},
{
closed = 1;
nodes = (
(233,88,o),
(166,91,o),
(127,95,c),
(185,38,l),
(185,693,l),
(127,635,l),
(166,639,o),
(233,642,o),
(263,642,cs),
(424,642,o),
(502,552,o),
(502,365,cs),
(502,178,o),
(425,88,o),
(263,88,cs)
);
}
);
width = 653;
},
{
layerId = m003;
shapes = (
{
closed = 1;
nodes = (
(513,-10,o),
(650,119,o),
(650,365,cs),
(650,611,o),
(513,740,o),
(253,740,cs),
(207,740,o),
(149,736,o),
(60,726,c),
(60,4,l),
(149,-6,o),
(207,-10,o),
(253,-10,cs)
);
},
{
closed = 1;
nodes = (
(249,166,o),
(200,166,o),
(160,166,c),
(260,70,l),
(260,660,l),
(160,564,l),
(200,564,o),
(249,564,o),
(275,564,cs),
(393,564,o),
(444,504,o),
(444,365,cs),
(444,226,o),
(393,166,o),
(275,166,cs)
);
}
);
width = 680;
},
{
layerId = m004;
shapes = (
{
closed = 1;
nodes = (
(474,-10,o),
(590,119,o),
(590,365,cs),
(590,611,o),
(474,740,o),
(253,740,cs),
(205,740,o),
(140,734,o),
(90,726,c),
(90,4,l),
(140,-4,o),
(205,-10,o),
(253,-10,cs)
);
},
{
closed = 1;
nodes = (
(206,10,o),
(143,16,o),
(93,24,c),
(110,5,l),
(110,725,l),
(93,706,l),
(143,714,o),
(206,720,o),
(253,720,cs),
(462,720,o),
(570,601,o),
(570,365,cs),
(570,129,o),
(462,10,o),
(253,10,cs)
);
}
);
width = 635;
},
{
layerId = m005;
shapes = (
{
closed = 1;
nodes = (
(498,-10,o),
(625,119,o),
(625,365,cs),
(625,611,o),
(498,740,o),
(255,740,cs),
(207,740,o),
(145,735,o),
(75,726,c),
(75,4,l),
(145,-5,o),
(207,-10,o),
(255,-10,cs)
);
},
{
closed = 1;
nodes = (
(235,88,o),
(166,91,o),
(126,95,c),
(185,38,l),
(185,693,l),
(126,635,l),
(166,639,o),
(235,642,o),
(265,642,cs),
(432,642,o),
(512,552,o),
(512,365,cs),
(512,178,o),
(432,88,o),
(265,88,cs)
);
}
);
width = 663;
},
{
associatedMasterId = m006;
attr = {
axisRules = (
{
},
{
max = 150;
min = 100;
}
);
};
layerId = "917F88B9-AC39-4EB0-AEDC-ED192323635B";
name = "Jun 14, 26 at 20:14";
shapes = (
{
closed = 1;
nodes = (
(532,0,o),
(660,125,o),
(660,365,cs),
(660,605,o),
(532,730,o),
(287,730,cs),
(233,730,o),
(165,730,o),
(60,730,c),
(60,0,l),
(165,0,o),
(233,0,o),
(287,0,cs)
);
},
{
closed = 1;
nodes = (
(258,176,o),
(203,176,o),
(159,176,c),
(260,70,l),
(260,660,l),
(159,554,l),
(203,554,o),
(258,554,o),
(287,554,cs),
(404,554,o),
(454,497,o),
(454,365,cs),
(454,233,o),
(404,176,o),
(287,176,cs)
);
}
);
width = 690;
},
{
layerId = m006;
name = "Black F2";
shapes = (
{
closed = 1;
nodes = (
(521,-10,o),
(660,119,o),
(660,365,cs),
(660,611,o),
(521,740,o),
(256,740,cs),
(209,740,o),
(151,736,o),
(60,726,c),
(60,4,l),
(151,-6,o),
(209,-10,o),
(256,-10,cs)
);
},
{
closed = 1;
nodes = (
(251,166,o),
(200,166,o),
(159,166,c),
(260,70,l),
(260,660,l),
(159,564,l),
(200,564,o),
(251,564,o),
(278,564,cs),
(401,564,o),
(454,504,o),
(454,365,cs),
(454,226,o),
(401,166,o),
(278,166,cs)
);
}
);
width = 690;
},
{
associatedMasterId = m004;
attr = {
axisRules = (
{
},
{
max = 150;
min = 100;
}
);
};
layerId = "2C313F7F-C172-496B-8618-15F2998ADFC4";
name = "Jun 14, 26 at 20:18";
shapes = (
{
closed = 1;
nodes = (
(484,0,o),
(590,125,o),
(590,365,cs),
(590,605,o),
(484,730,o),
(279,730,cs),
(234,730,o),
(178,730,o),
(90,730,c),
(90,0,l),
(178,0,o),
(234,0,o),
(279,0,cs)
);
},
{
closed = 1;
nodes = (
(234,20,o),
(188,20,o),
(100,20,c),
(110,10,l),
(110,720,l),
(100,710,l),
(188,710,o),
(234,710,o),
(279,710,cs),
(472,710,o),
(570,595,o),
(570,365,cs),
(570,135,o),
(472,20,o),
(279,20,cs)
);
}
);
width = 635;
},
{
associatedMasterId = m005;
attr = {
axisRules = (
{
},
{
max = 150;
min = 100;
}
);
};
layerId = "0B885725-F10F-4644-9827-EA65289D82C3";
name = "Jun 14, 26 at 20:30";
shapes = (
{
closed = 1;
nodes = (
(507,0,o),
(625,126,o),
(625,365,cs),
(625,604,o),
(507,730,o),
(283,730,cs),
(228,730,o),
(156,730,o),
(75,730,c),
(75,0,l),
(156,0,o),
(228,0,o),
(283,0,cs)
);
},
{
closed = 1;
nodes = (
(249,98,o),
(171,98,o),
(126,98,c),
(185,38,l),
(185,693,l),
(126,632,l),
(171,632,o),
(249,632,o),
(283,632,cs),
(438,632,o),
(512,546,o),
(512,365,cs),
(512,184,o),
(438,98,o),
(283,98,cs)
);
}
);
width = 663;
},
{
associatedMasterId = m01;
attr = {
axisRules = (
{
},
{
max = 150;
min = 100;
}
);
};
layerId = "08845D47-9C10-4CC7-8019-E07738689642";
name = "Jun 15, 26 at 20:56";
shapes = (
{
closed = 1;
nodes = (
(476,0,o),
(580,125,o),
(580,365,cs),
(580,605,o),
(476,730,o),
(275,730,cs),
(231,730,o),
(176,730,o),
(90,730,c),
(90,0,l),
(176,0,o),
(231,0,o),
(275,0,cs)
);
},
{
closed = 1;
nodes = (
(231,20,o),
(186,20,o),
(100,20,c),
(110,10,l),
(110,720,l),
(100,710,l),
(186,710,o),
(231,710,o),
(275,710,cs),
(464,710,o),
(560,595,o),
(560,365,cs),
(560,135,o),
(464,20,o),
(275,20,cs)
);
}
);
width = 625;
},
{
associatedMasterId = m002;
attr = {
axisRules = (
{
},
{
max = 150;
min = 100;
}
);
};
layerId = "0A29775C-4A36-4DE7-8E65-A7018B973283";
name = "Jun 15, 26 at 20:56";
shapes = (
{
closed = 1;
nodes = (
(499,0,o),
(615,126,o),
(615,365,cs),
(615,604,o),
(499,730,o),
(279,730,cs),
(225,730,o),
(155,730,o),
(75,730,c),
(75,0,l),
(155,0,o),
(225,0,o),
(279,0,cs)
);
},
{
closed = 1;
nodes = (
(247,98,o),
(171,98,o),
(127,98,c),
(185,38,l),
(185,693,l),
(127,632,l),
(171,632,o),
(247,632,o),
(279,632,cs),
(430,632,o),
(502,546,o),
(502,365,cs),
(502,184,o),
(430,98,o),
(279,98,cs)
);
}
);
width = 653;
},
{
associatedMasterId = m003;
attr = {
axisRules = (
{
},
{
max = 150;
min = 100;
}
);
};
layerId = "DC3B71D2-4A19-40D9-869C-876F9570803E";
name = "Jun 15, 26 at 20:56";
shapes = (
{
closed = 1;
nodes = (
(524,0,o),
(650,125,o),
(650,365,cs),
(650,605,o),
(524,730,o),
(283,730,cs),
(230,730,o),
(163,730,o),
(60,730,c),
(60,0,l),
(163,0,o),
(230,0,o),
(283,0,cs)
);
},
{
closed = 1;
nodes = (
(256,176,o),
(203,176,o),
(162,176,c),
(260,70,l),
(260,660,l),
(162,554,l),
(203,554,o),
(256,554,o),
(284,554,cs),
(396,554,o),
(444,497,o),
(444,365,cs),
(444,233,o),
(396,176,o),
(284,176,cs)
);
}
);
width = 680;
}
);
metricLeft = "=H";
metricRight = "=O";
unicode = 68;
},
{
color = 4;
glyphname = E;
kernLeft = H;
kernRight = E;
lastChange = "2026-07-05 07:39:46 +0000";
layers = (
{
layerId = m01;
shapes = (
{
closed = 1;
nodes = (
(470,0,l),
(470,20,l),
(110,20,l),
(110,380,l),
(450,380,l),
(450,400,l),
(110,400,l),
(110,710,l),
(470,710,l),
(470,730,l),
(90,730,l),
(90,0,l)
);
}
);
width = 551;
},
{
layerId = m002;
shapes = (
{
closed = 1;
nodes = (
(495,0,l),
(495,98,l),
(185,98,l),
(185,331,l),
(475,331,l),
(475,429,l),
(185,429,l),
(185,632,l),
(495,632,l),
(495,730,l),
(75,730,l),
(75,0,l)
);
}
);
width = 563;
},
{
layerId = m003;
shapes = (
{
closed = 1;
nodes = (
(520,0,l),
(520,172,l),
(260,172,l),
(260,285,l),
(500,285,l),
(500,455,l),
(260,455,l),
(260,558,l),
(520,558,l),
(520,730,l),
(60,730,l),
(60,0,l)
);
}
);
width = 574;
},
{
layerId = m004;
shapes = (
{
closed = 1;
nodes = (
(490,0,l),
(490,20,l),
(110,20,l),
(110,380,l),
(470,380,l),
(470,400,l),
(110,400,l),
(110,710,l),
(490,710,l),
(490,730,l),
(90,730,l),
(90,0,l)
);
}
);
width = 571;
},
{
layerId = m005;
shapes = (
{
closed = 1;
nodes = (
(525,0,l),
(525,98,l),
(185,98,l),
(185,331,l),
(505,331,l),
(505,429,l),
(185,429,l),
(185,632,l),
(525,632,l),
(525,730,l),
(75,730,l),
(75,0,l)
);
}
);
width = 593;
},
{
layerId = m006;
shapes = (
{
closed = 1;
nodes = (
(560,0,l),
(560,172,l),
(260,172,l),
(260,285,l),
(540,285,l),
(540,455,l),
(260,455,l),
(260,558,l),
(560,558,l),
(560,730,l),
(60,730,l),
(60,0,l)
);
}
);
width = 614;
}
);
metricLeft = "=H";
metricRight = "=H*.9";
unicode = 69;
},
{
color = 4;
glyphname = F;
kernLeft = H;
kernRight = F;
lastChange = "2026-07-05 07:39:48 +0000";
layers = (
{
layerId = m01;
shapes = (
{
closed = 1;
nodes = (
(110,0,l),
(110,380,l),
(450,380,l),
(450,400,l),
(110,400,l),
(110,710,l),
(470,710,l),
(470,730,l),
(90,730,l),
(90,0,l)
);
}
);
width = 524;
},
{
layerId = m002;
shapes = (
{
closed = 1;
nodes = (
(185,0,l),
(185,326,l),
(480,326,l),
(480,424,l),
(185,424,l),
(185,632,l),
(500,632,l),
(500,730,l),
(75,730,l),
(75,0,l)
);
}
);
width = 545;
},
{
layerId = m003;
shapes = (
{
closed = 1;
nodes = (
(260,0,l),
(260,272,l),
(510,272,l),
(510,448,l),
(260,448,l),
(260,554,l),
(530,554,l),
(530,730,l),
(60,730,l),
(60,0,l)
);
}
);
width = 566;
},
{
layerId = m004;
shapes = (
{
closed = 1;
nodes = (
(110,0,l),
(110,380,l),
(490,380,l),
(490,400,l),
(110,400,l),
(110,710,l),
(510,710,l),
(510,730,l),
(90,730,l),
(90,0,l)
);
}
);
width = 564;
},
{
layerId = m005;
shapes = (
{
closed = 1;
nodes = (
(185,0,l),
(185,326,l),
(520,326,l),
(520,424,l),
(185,424,l),
(185,632,l),
(540,632,l),
(540,730,l),
(75,730,l),
(75,0,l)
);
}
);
width = 585;
},
{
layerId = m006;
shapes = (
{
closed = 1;
nodes = (
(260,0,l),
(260,272,l),
(550,272,l),
(550,448,l),
(260,448,l),
(260,554,l),
(570,554,l),
(570,730,l),
(60,730,l),
(60,0,l)
);
}
);
width = 606;
}
);
metricLeft = "=H";
metricRight = "=H*.6";
unicode = 70;
},
{
color = 4;
glyphname = G;
kernLeft = O;
kernRight = G;
lastChange = "2026-07-05 07:39:50 +0000";
layers = (
{
layerId = m003;
name = "Black F1";
shapes = (
{
closed = 1;
nodes = (
(553,-20,o),
(675,5,o),
(750,42,c),
(750,449,l),
(384,449,l),
(384,271,l),
(550,271,l),
(550,156,l),
(565,181,l),
(529,166,o),
(499,160,o),
(459,160,cs),
(316,160,o),
(236,233,o),
(236,365,cs),
(236,495,o),
(313,570,o),
(447,570,cs),
(518,570,o),
(605,549,o),
(659,519,c),
(701,693,l),
(630,730,o),
(541,750,o),
(446,750,cs),
(188,750,o),
(30,603,o),
(30,365,cs),
(30,127,o),
(188,-20,o),
(446,-20,cs)
);
}
);
width = 804;
},
{
layerId = m002;
name = "Medium F1";
shapes = (
{
closed = 1;
nodes = (
(553,-20,o),
(665,3,o),
(738,39,c),
(738,419,l),
(384,419,l),
(384,321,l),
(628,321,l),
(628,81,l),
(641,117,l),
(589,93,o),
(525,80,o),
(458,80,cs),
(266,80,o),
(151,186,o),
(151,365,cs),
(151,543,o),
(264,650,o),
(452,650,cs),
(533,650,o),
(611,630,o),
(675,593,c),
(699,691,l),
(629,730,o),
(546,750,o),
(452,750,cs),
(196,750,o),
(38,603,o),
(38,365,cs),
(38,127,o),
(197,-20,o),
(452,-20,cs)
);
}
);
width = 806;
},
{
layerId = m01;
name = "Thin F1";
shapes = (
{
closed = 1;
nodes = (
(551,-20,o),
(654,1,o),
(725,35,c),
(725,390,l),
(383,390,l),
(383,370,l),
(705,370,l),
(705,36,l),
(716,53,l),
(647,20,o),
(549,0,o),
(456,0,cs),
(214,0,o),
(65,139,o),
(65,365,cs),
(65,591,o),
(214,730,o),
(456,730,cs),
(546,730,o),
(619,711,o),
(685,671,c),
(695,688,l),
(626,730,o),
(549,750,o),
(456,750,cs),
(203,750,o),
(45,602,o),
(45,365,cs),
(45,128,o),
(203,-20,o),
(456,-20,cs)
);
}
);
width = 806;
},
{
layerId = m005;
name = "Medium F2";
shapes = (
{
closed = 1;
nodes = (
(516,-20,o),
(620,3,o),
(688,39,c),
(688,419,l),
(359,419,l),
(359,321,l),
(578,321,l),
(578,96,l),
(596,117,l),
(546,92,o),
(489,80,o),
(430,80,cs),
(255,80,o),
(151,186,o),
(151,365,cs),
(151,543,o),
(254,650,o),
(425,650,cs),
(499,650,o),
(570,630,o),
(626,595,c),
(651,691,l),
(586,730,o),
(509,750,o),
(422,750,cs),
(185,750,o),
(38,603,o),
(38,365,cs),
(38,127,o),
(185,-20,o),
(422,-20,cs)
);
}
);
width = 756;
},
{
layerId = m004;
name = "Thin F2";
shapes = (
{
closed = 1;
nodes = (
(499,-20,o),
(591,1,o),
(655,35,c),
(655,390,l),
(348,390,l),
(348,370,l),
(635,370,l),
(635,36,l),
(646,53,l),
(584,20,o),
(496,0,o),
(414,0,cs),
(198,0,o),
(65,139,o),
(65,365,cs),
(65,591,o),
(198,730,o),
(414,730,cs),
(494,730,o),
(558,711,o),
(617,671,c),
(628,688,l),
(566,730,o),
(497,750,o),
(414,750,cs),
(187,750,o),
(45,602,o),
(45,365,cs),
(45,128,o),
(187,-20,o),
(414,-20,cs)
);
}
);
width = 736;
},
{
layerId = m006;
name = "Black F2";
shapes = (
{
closed = 1;
nodes = (
(531,-20,o),
(648,5,o),
(720,42,c),
(720,449,l),
(369,449,l),
(369,271,l),
(520,271,l),
(520,156,l),
(545,181,l),
(511,166,o),
(483,160,o),
(445,160,cs),
(311,160,o),
(236,233,o),
(236,365,cs),
(236,495,o),
(308,570,o),
(435,570,cs),
(502,570,o),
(580,549,o),
(633,519,c),
(673,693,l),
(605,730,o),
(520,750,o),
(429,750,cs),
(182,750,o),
(30,604,o),
(30,365,cs),
(30,126,o),
(182,-20,o),
(429,-20,cs)
);
}
);
width = 774;
}
);
metricLeft = "=O";
metricRight = "=H*.9";
unicode = 71;
},
{
color = 4;
glyphname = H;
kernLeft = H;
kernRight = H;
lastChange = "2026-07-05 07:38:58 +0000";
layers = (
{
layerId = m01;
shapes = (
{
closed = 1;
nodes = (
(110,0,l),
(110,400,l),
(630,400,l),
(630,0,l),
(650,0,l),
(650,730,l),
(630,730,l),
(630,420,l),
(110,420,l),
(110,730,l),
(90,730,l),
(90,0,l)
);
}
);
width = 740;
},
{
layerId = m002;
shapes = (
{
closed = 1;
nodes = (
(185,0,l),
(185,350,l),
(575,350,l),
(575,0,l),
(685,0,l),
(685,730,l),
(575,730,l),
(575,450,l),
(185,450,l),
(185,730,l),
(75,730,l),
(75,0,l)
);
}
);
width = 760;
},
{
layerId = m003;
shapes = (
{
closed = 1;
nodes = (
(260,0,l),
(260,300,l),
(520,300,l),
(520,0,l),
(720,0,l),
(720,730,l),
(520,730,l),
(520,480,l),
(260,480,l),
(260,730,l),
(60,730,l),
(60,0,l)
);
}
);
width = 780;
},
{
layerId = m004;
shapes = (
{
closed = 1;
nodes = (
(110,0,l),
(110,380,l),
(570,380,l),
(570,0,l),
(590,0,l),
(590,730,l),
(570,730,l),
(570,400,l),
(110,400,l),
(110,730,l),
(90,730,l),
(90,0,l)
);
}
);
width = 680;
},
{
layerId = m005;
shapes = (
{
closed = 1;
nodes = (
(185,0,l),
(185,330,l),
(515,330,l),
(515,0,l),
(625,0,l),
(625,730,l),
(515,730,l),
(515,430,l),
(185,430,l),
(185,730,l),
(75,730,l),
(75,0,l)
);
}
);
width = 700;
},
{
layerId = m006;
shapes = (
{
closed = 1;
nodes = (
(260,0,l),
(260,280,l),
(460,280,l),
(460,0,l),
(660,0,l),
(660,730,l),
(460,730,l),
(460,460,l),
(260,460,l),
(260,730,l),
(60,730,l),
(60,0,l)
);
}
);
width = 720;
}
);
metricRight = "=|";
unicode = 72;
},
{
color = 4;
glyphname = I;
kernLeft = I;
kernRight = I;
lastChange = "2026-07-05 07:38:59 +0000";
layers = (
{
layerId = m01;
shapes = (
{
closed = 1;
nodes = (
(128,0,l),
(128,730,l),
(108,730,l),
(108,0,l)
);
}
);
width = 236;
},
{
layerId = m002;
shapes = (
{
closed = 1;
nodes = (
(204,0,l),
(204,730,l),
(90,730,l),
(90,0,l)
);
}
);
width = 294;
},
{
layerId = m003;
shapes = (
{
closed = 1;
nodes = (
(282,0,l),
(282,730,l),
(72,730,l),
(72,0,l)
);
}
);
width = 354;
},
{
layerId = m004;
shapes = (
{
closed = 1;
nodes = (
(128,0,l),
(128,730,l),
(108,730,l),
(108,0,l)
);
}
);
width = 236;
},
{
layerId = m005;
shapes = (
{
closed = 1;
nodes = (
(204,0,l),
(204,730,l),
(90,730,l),
(90,0,l)
);
}
);
width = 294;
},
{
layerId = m006;
shapes = (
{
closed = 1;
nodes = (
(282,0,l),
(282,730,l),
(72,730,l),
(72,0,l)
);
}
);
width = 354;
}
);
metricLeft = "=H*1.2";
metricRight = "=|";
unicode = 73;
},
{
color = 4;
glyphname = J;
kernLeft = I;
kernRight = I;
lastChange = "2026-07-05 07:39:51 +0000";
layers = (
{
layerId = m01;
metricLeft = "=I-160";
shapes = (
{
closed = 1;
nodes = (
(91,-171,o),
(138,-84,o),
(138,84,cs),
(138,730,l),
(118,730,l),
(118,84,ls),
(118,-77,o),
(74,-158,o),
(-52,-233,c),
(-42,-250,l)
);
}
);
width = 246;
},
{
layerId = m002;
metricLeft = "=I-155";
shapes = (
{
closed = 1;
nodes = (
(163,-143,o),
(215,-41,o),
(215,154,cs),
(215,730,l),
(101,730,l),
(101,154,ls),
(101,1,o),
(62,-73,o),
(-65,-159,c),
(9,-250,l)
);
}
);
width = 305;
},
{
layerId = m003;
metricLeft = "=I-150";
shapes = (
{
closed = 1;
nodes = (
(235,-114,o),
(292,3,o),
(292,224,cs),
(292,730,l),
(84,730,l),
(84,224,ls),
(84,71,o),
(51,6,o),
(-78,-94,c),
(60,-250,l)
);
}
);
width = 364;
},
{
layerId = m004;
metricLeft = "=I-200";
shapes = (
{
closed = 1;
nodes = (
(71,-194,o),
(138,-94,o),
(138,84,cs),
(138,730,l),
(118,730,l),
(118,84,ls),
(118,-86,o),
(56,-178,o),
(-92,-231,c),
(-85,-250,l)
);
}
);
width = 246;
},
{
layerId = m005;
metricLeft = "=I-195";
shapes = (
{
closed = 1;
nodes = (
(145,-159,o),
(215,-50,o),
(215,154,cs),
(215,730,l),
(101,730,l),
(101,154,ls),
(101,-8,o),
(49,-86,o),
(-105,-156,c),
(-45,-250,l)
);
}
);
width = 305;
},
{
layerId = m006;
metricLeft = "=I-190";
shapes = (
{
closed = 1;
nodes = (
(222,-124,o),
(292,-7,o),
(292,224,cs),
(292,730,l),
(84,730,l),
(84,224,ls),
(84,61,o),
(43,-4,o),
(-118,-94,c),
(8,-250,l)
);
}
);
width = 364;
}
);
metricLeft = "=I-210";
metricRight = "=I";
unicode = 74;
},
{
color = 4;
glyphname = K;
kernLeft = H;
kernRight = X;
lastChange = "2026-07-05 07:39:01 +0000";
layers = (
{
layerId = m01;
metricRight = "=H*.2";
shapes = (
{
closed = 1;
nodes = (
(110,0,l),
(110,365,l),
(112,365,l),
(112,395,l),
(110,395,l),
(110,730,l),
(90,730,l),
(90,0,l)
);
},
{
closed = 1;
nodes = (
(118,374,l),
(118,374,l),
(118,374,l),
(590,730,l),
(557,730,l),
(96,383,l)
);
},
{
closed = 1;
nodes = (
(600,0,l),
(121,384,l),
(97,377,l),
(567,0,l)
);
}
);
width = 618;
},
{
layerId = m002;
metricRight = "=H*.14";
shapes = (
{
closed = 1;
nodes = (
(185,0,l),
(185,356,l),
(187,356,l),
(187,410,l),
(185,410,l),
(185,730,l),
(75,730,l),
(75,0,l)
);
},
{
closed = 1;
nodes = (
(270,353,l),
(270,353,l),
(270,353,l),
(635,730,l),
(497,730,l),
(136,362,l)
);
},
{
closed = 1;
nodes = (
(645,0,l),
(279,405,l),
(146,397,l),
(505,0,l)
);
}
);
width = 656;
},
{
layerId = m003;
metricRight = "=H*.08";
name = Black;
shapes = (
{
closed = 1;
nodes = (
(260,0,l),
(260,336,l),
(262,336,l),
(262,416,l),
(260,416,l),
(260,730,l),
(60,730,l),
(60,0,l)
);
},
{
closed = 1;
nodes = (
(434,336,l),
(434,336,l),
(434,336,l),
(710,730,l),
(480,730,l),
(219,354,l)
);
},
{
closed = 1;
nodes = (
(720,0,l),
(427,427,l),
(227,389,l),
(484,0,l)
);
}
);
width = 725;
},
{
layerId = m004;
metricRight = "=H*.2";
shapes = (
{
closed = 1;
nodes = (
(110,0,l),
(110,365,l),
(112,365,l),
(112,395,l),
(110,395,l),
(110,730,l),
(90,730,l),
(90,0,l)
);
},
{
closed = 1;
nodes = (
(118,374,l),
(118,374,l),
(118,374,l),
(580,730,l),
(547,730,l),
(96,383,l)
);
},
{
closed = 1;
nodes = (
(590,0,l),
(122,383,l),
(99,376,l),
(558,0,l)
);
}
);
width = 608;
},
{
background = {
shapes = (
{
closed = 0;
nodes = (
(625,730,l),
(289,369,l)
);
},
{
closed = 0;
nodes = (
(297,383,l),
(635,0,l)
);
}
);
};
layerId = m005;
metricRight = "=H*.14";
shapes = (
{
closed = 1;
nodes = (
(185,0,l),
(185,358,l),
(187,358,l),
(187,406,l),
(185,406,l),
(185,730,l),
(75,730,l),
(75,0,l)
);
},
{
closed = 1;
nodes = (
(273,355,l),
(273,355,l),
(273,355,l),
(625,730,l),
(489,730,l),
(153,369,l)
);
},
{
closed = 1;
nodes = (
(635,0,l),
(275,405,l),
(165,383,l),
(503,0,l)
);
}
);
width = 646;
},
{
layerId = m006;
metricRight = "=H*.08";
shapes = (
{
closed = 1;
nodes = (
(260,0,l),
(260,350,l),
(262,350,l),
(262,417,l),
(260,417,l),
(260,730,l),
(60,730,l),
(60,0,l)
);
},
{
closed = 1;
nodes = (
(440,336,l),
(440,336,l),
(434,336,l),
(670,730,l),
(446,730,l),
(225,354,l)
);
},
{
closed = 1;
nodes = (
(680,0,l),
(424,427,l),
(240,389,l),
(460,0,l)
);
}
);
width = 685;
}
);
metricLeft = "=H";
metricRight = "=H*.3";
unicode = 75;
},
{
color = 4;
glyphname = L;
kernLeft = I;
kernRight = L;
lastChange = "2026-07-05 07:39:04 +0000";
layers = (
{
layerId = m01;
shapes = (
{
closed = 1;
nodes = (
(470,0,l),
(470,20,l),
(110,20,l),
(110,730,l),
(90,730,l),
(90,0,l)
);
}
);
width = 506;
},
{
layerId = m002;
shapes = (
{
closed = 1;
nodes = (
(505,0,l),
(505,100,l),
(189,100,l),
(189,730,l),
(75,730,l),
(75,0,l)
);
}
);
width = 535;
},
{
layerId = m003;
shapes = (
{
closed = 1;
nodes = (
(540,0,l),
(540,180,l),
(268,180,l),
(268,730,l),
(60,730,l),
(60,0,l)
);
}
);
width = 564;
},
{
layerId = m004;
shapes = (
{
closed = 1;
nodes = (
(530,0,l),
(530,20,l),
(110,20,l),
(110,730,l),
(90,730,l),
(90,0,l)
);
}
);
width = 566;
},
{
layerId = m005;
shapes = (
{
closed = 1;
nodes = (
(555,0,l),
(555,100,l),
(189,100,l),
(189,730,l),
(75,730,l),
(75,0,l)
);
}
);
width = 585;
},
{
layerId = m006;
shapes = (
{
closed = 1;
nodes = (
(580,0,l),
(580,180,l),
(268,180,l),
(268,730,l),
(60,730,l),
(60,0,l)
);
}
);
width = 604;
}
);
metricLeft = "=H";
metricRight = "=H*.4";
unicode = 76;
},
{
color = 4;
glyphname = M;
kernLeft = H;
kernRight = H;
lastChange = "2026-07-05 07:39:06 +0000";
layers = (
{
layerId = m01;
shapes = (
{
closed = 1;
nodes = (
(110,0,l),
(110,649,l),
(110,709,l),
(112,709,l),
(444,155,l),
(476,155,l),
(808,709,l),
(810,709,l),
(810,649,l),
(810,0,l),
(830,0,l),
(830,730,l),
(794,730,l),
(461,174,l),
(459,174,l),
(126,730,l),
(90,730,l),
(90,0,l)
);
}
);
width = 920;
},
{
layerId = m002;
shapes = (
{
closed = 1;
nodes = (
(185,0,l),
(185,485,l),
(183,565,l),
(185,565,l),
(412,155,l),
(518,155,l),
(745,565,l),
(747,565,l),
(745,485,l),
(745,0,l),
(855,0,l),
(855,730,l),
(709,730,l),
(466,291,l),
(464,291,l),
(221,730,l),
(75,730,l),
(75,0,l)
);
}
);
width = 930;
},
{
layerId = m004;
shapes = (
{
closed = 1;
nodes = (
(110,0,l),
(110,649,l),
(110,709,l),
(112,709,l),
(388,155,l),
(412,155,l),
(688,709,l),
(690,709,l),
(690,649,l),
(690,0,l),
(710,0,l),
(710,730,l),
(678,730,l),
(401,174,l),
(399,174,l),
(122,730,l),
(90,730,l),
(90,0,l)
);
}
);
width = 800;
},
{
layerId = m005;
shapes = (
{
closed = 1;
nodes = (
(185,0,l),
(185,485,l),
(183,565,l),
(185,565,l),
(367,155,l),
(473,155,l),
(655,565,l),
(657,565,l),
(655,485,l),
(655,0,l),
(765,0,l),
(765,730,l),
(607,730,l),
(421,310,l),
(419,310,l),
(233,730,l),
(75,730,l),
(75,0,l)
);
}
);
width = 840;
},
{
layerId = m006;
shapes = (
{
closed = 1;
nodes = (
(260,0,l),
(260,320,l),
(258,420,l),
(260,420,l),
(350,155,l),
(530,155,l),
(620,420,l),
(622,420,l),
(620,320,l),
(620,0,l),
(820,0,l),
(820,730,l),
(560,730,l),
(441,380,l),
(439,380,l),
(320,730,l),
(60,730,l),
(60,0,l)
);
}
);
width = 880;
},
{
layerId = m003;
name = Black;
shapes = (
{
closed = 1;
nodes = (
(260,0,l),
(260,320,l),
(258,420,l),
(260,420,l),
(380,155,l),
(560,155,l),
(680,420,l),
(682,420,l),
(680,320,l),
(680,0,l),
(880,0,l),
(880,730,l),
(624,730,l),
(471,390,l),
(469,390,l),
(316,730,l),
(60,730,l),
(60,0,l)
);
}
);
width = 940;
}
);
metricLeft = "=H";
metricRight = "=|";
unicode = 77;
},
{
color = 4;
glyphname = N;
kernLeft = H;
kernRight = H;
lastChange = "2026-07-05 07:39:08 +0000";
layers = (
{
layerId = m01;
shapes = (
{
closed = 1;
nodes = (
(110,0,l),
(110,627,l),
(110,707,l),
(112,707,l),
(620,0,l),
(650,0,l),
(650,730,l),
(630,730,l),
(630,103,l),
(630,23,l),
(628,23,l),
(120,730,l),
(90,730,l),
(90,0,l)
);
}
);
width = 740;
},
{
layerId = m002;
shapes = (
{
closed = 1;
nodes = (
(185,0,l),
(185,463,l),
(183,553,l),
(185,553,l),
(565,0,l),
(685,0,l),
(685,730,l),
(575,730,l),
(575,267,l),
(577,177,l),
(575,177,l),
(195,730,l),
(75,730,l),
(75,0,l)
);
}
);
width = 760;
},
{
layerId = m003;
shapes = (
{
closed = 1;
nodes = (
(260,0,l),
(260,314,l),
(258,414,l),
(260,414,l),
(500,0,l),
(720,0,l),
(720,730,l),
(520,730,l),
(520,416,l),
(522,316,l),
(520,316,l),
(280,730,l),
(60,730,l),
(60,0,l)
);
}
);
width = 780;
},
{
layerId = m004;
shapes = (
{
closed = 1;
nodes = (
(110,0,l),
(110,625,l),
(110,705,l),
(112,705,l),
(540,0,l),
(570,0,l),
(570,730,l),
(550,730,l),
(550,105,l),
(550,25,l),
(548,25,l),
(120,730,l),
(90,730,l),
(90,0,l)
);
}
);
width = 660;
},
{
layerId = m005;
shapes = (
{
closed = 1;
nodes = (
(185,0,l),
(185,450,l),
(183,540,l),
(185,540,l),
(495,0,l),
(615,0,l),
(615,730,l),
(505,730,l),
(505,280,l),
(507,190,l),
(505,190,l),
(195,730,l),
(75,730,l),
(75,0,l)
);
}
);
width = 690;
},
{
layerId = m006;
shapes = (
{
closed = 1;
nodes = (
(260,0,l),
(260,280,l),
(258,380,l),
(260,380,l),
(450,0,l),
(660,0,l),
(660,730,l),
(460,730,l),
(460,450,l),
(462,350,l),
(460,350,l),
(270,730,l),
(60,730,l),
(60,0,l)
);
}
);
width = 720;
}
);
metricLeft = "=H";
metricRight = "=|";
unicode = 78;
},
{
color = 4;
glyphname = O;
kernLeft = O;
kernRight = O;
lastChange = "2026-07-05 07:39:10 +0000";
layers = (
{
layerId = m01;
shapes = (
{
closed = 1;
nodes = (
(662,-20,o),
(825,141,o),
(825,365,cs),
(825,589,o),
(662,750,o),
(435,750,cs),
(208,750,o),
(45,589,o),
(45,365,cs),
(45,141,o),
(208,-20,o),
(435,-20,cs)
);
},
{
closed = 1;
nodes = (
(219,0,o),
(65,152,o),
(65,365,cs),
(65,578,o),
(219,730,o),
(435,730,cs),
(651,730,o),
(805,578,o),
(805,365,cs),
(805,152,o),
(651,0,o),
(435,0,cs)
);
}
);
width = 870;
},
{
layerId = m002;
shapes = (
{
closed = 1;
nodes = (
(663,-20,o),
(828,141,o),
(828,365,cs),
(828,589,o),
(663,750,o),
(433,750,cs),
(203,750,o),
(38,589,o),
(38,365,cs),
(38,141,o),
(203,-20,o),
(433,-20,cs)
);
},
{
closed = 1;
nodes = (
(268,85,o),
(152,201,o),
(152,365,cs),
(152,529,o),
(268,645,o),
(433,645,cs),
(598,645,o),
(714,529,o),
(714,365,cs),
(714,201,o),
(598,85,o),
(433,85,cs)
);
}
);
width = 866;
},
{
layerId = m003;
shapes = (
{
closed = 1;
nodes = (
(663,-20,o),
(830,141,o),
(830,365,cs),
(830,589,o),
(663,750,o),
(430,750,cs),
(197,750,o),
(30,589,o),
(30,365,cs),
(30,141,o),
(197,-20,o),
(430,-20,cs)
);
},
{
closed = 1;
nodes = (
(317,170,o),
(238,250,o),
(238,365,cs),
(238,480,o),
(317,560,o),
(430,560,cs),
(543,560,o),
(622,480,o),
(622,365,cs),
(622,250,o),
(543,170,o),
(430,170,cs)
);
}
);
width = 860;
},
{
layerId = m005;
shapes = (
{
closed = 1;
nodes = (
(624,-20,o),
(768,133,o),
(768,365,cs),
(768,598,o),
(624,750,o),
(403,750,cs),
(183,750,o),
(38,598,o),
(38,365,cs),
(38,133,o),
(183,-20,o),
(403,-20,cs)
);
},
{
closed = 1;
nodes = (
(248,85,o),
(152,192,o),
(152,365,cs),
(152,538,o),
(248,645,o),
(403,645,cs),
(558,645,o),
(654,538,o),
(654,365,cs),
(654,192,o),
(558,85,o),
(403,85,cs)
);
}
);
width = 806;
},
{
layerId = m006;
name = "Black F2";
shapes = (
{
closed = 1;
nodes = (
(636,-20,o),
(790,136,o),
(790,365,cs),
(790,594,o),
(636,750,o),
(410,750,cs),
(184,750,o),
(30,594,o),
(30,365,cs),
(30,136,o),
(184,-20,o),
(410,-20,cs)
);
},
{
closed = 1;
nodes = (
(304,170,o),
(238,245,o),
(238,365,cs),
(238,485,o),
(304,560,o),
(410,560,cs),
(516,560,o),
(582,485,o),
(582,365,cs),
(582,245,o),
(516,170,o),
(410,170,cs)
);
}
);
width = 820;
},
{
layerId = m004;
name = "Thin F2";
shapes = (
{
closed = 1;
nodes = (
(610,-20,o),
(745,129,o),
(745,365,cs),
(745,601,o),
(610,750,o),
(395,750,cs),
(180,750,o),
(45,601,o),
(45,365,cs),
(45,129,o),
(180,-20,o),
(395,-20,cs)
);
},
{
closed = 1;
nodes = (
(191,0,o),
(65,139,o),
(65,365,cs),
(65,591,o),
(191,730,o),
(395,730,cs),
(599,730,o),
(725,591,o),
(725,365,cs),
(725,139,o),
(599,0,o),
(395,0,cs)
);
}
);
width = 790;
}
);
metricLeft = "=H*.5";
metricRight = "=|";
unicode = 79;
},
{
color = 4;
glyphname = P;
kernLeft = H;
kernRight = P;
lastChange = "2026-07-05 07:39:14 +0000";
layers = (
{
layerId = m01;
shapes = (
{
closed = 1;
nodes = (
(110,0,l),
(110,715,l),
(92,706,l),
(186,717,o),
(218,720,o),
(258,720,cs),
(436,720,o),
(510,663,o),
(510,535,cs),
(510,407,o),
(436,350,o),
(258,350,cs),
(219,350,o),
(188,353,o),
(101,363,c),
(99,343,l),
(186,333,o),
(218,330,o),
(258,330,cs),
(445,330,o),
(530,394,o),
(530,535,cs),
(530,676,o),
(445,740,o),
(258,740,cs),
(217,740,o),
(184,737,o),
(90,726,c),
(90,0,l)
);
}
);
width = 566;
},
{
layerId = m002;
shapes = (
{
closed = 1;
nodes = (
(186,0,l),
(186,688,l),
(124,630,l),
(190,638,o),
(235,642,o),
(274,642,cs),
(399,642,o),
(451,602,o),
(451,506,cs),
(451,410,o),
(399,370,o),
(274,370,cs),
(240,370,o),
(200,373,o),
(129,382,c),
(128,282,l),
(202,274,o),
(229,272,o),
(262,272,cs),
(466,272,o),
(565,349,o),
(565,506,cs),
(565,663,o),
(466,740,o),
(262,740,cs),
(210,740,o),
(145,735,o),
(75,726,c),
(75,0,l)
);
}
);
width = 595;
},
{
layerId = m003;
shapes = (
{
closed = 1;
nodes = (
(262,0,l),
(262,660,l),
(156,554,l),
(210,560,o),
(259,564,o),
(289,564,cs),
(364,564,o),
(392,540,o),
(392,477,cs),
(392,414,o),
(364,390,o),
(289,390,cs),
(259,390,o),
(210,394,o),
(156,400,c),
(156,220,l),
(199,216,o),
(233,214,o),
(266,214,cs),
(487,214,o),
(600,303,o),
(600,477,cs),
(600,650,o),
(486,740,o),
(266,740,cs),
(209,740,o),
(117,734,o),
(60,726,c),
(60,0,l)
);
}
);
width = 624;
},
{
layerId = m004;
shapes = (
{
closed = 1;
nodes = (
(110,0,l),
(110,715,l),
(92,706,l),
(190,717,o),
(225,720,o),
(266,720,cs),
(453,720,o),
(530,661,o),
(530,525,cs),
(530,389,o),
(453,330,o),
(266,330,cs),
(225,330,o),
(184,333,o),
(101,343,c),
(99,323,l),
(182,313,o),
(224,310,o),
(266,310,cs),
(463,310,o),
(550,376,o),
(550,525,cs),
(550,674,o),
(463,740,o),
(266,740,cs),
(224,740,o),
(188,737,o),
(90,726,c),
(90,0,l)
);
}
);
width = 586;
},
{
layerId = m005;
shapes = (
{
closed = 1;
nodes = (
(186,0,l),
(186,688,l),
(128,630,l),
(209,639,o),
(254,642,o),
(290,642,cs),
(426,642,o),
(481,601,o),
(481,499,cs),
(481,398,o),
(424,355,o),
(290,355,cs),
(254,355,o),
(215,358,o),
(132,367,c),
(131,267,l),
(197,260,o),
(231,257,o),
(274,257,cs),
(492,257,o),
(595,335,o),
(595,499,cs),
(595,662,o),
(492,740,o),
(274,740,cs),
(219,740,o),
(151,735,o),
(75,726,c),
(75,0,l)
);
}
);
width = 625;
},
{
layerId = m006;
shapes = (
{
closed = 1;
nodes = (
(262,0,l),
(262,660,l),
(163,554,l),
(220,560,o),
(279,564,o),
(314,564,cs),
(401,564,o),
(432,540,o),
(432,472,cs),
(432,404,o),
(401,380,o),
(314,380,cs),
(279,380,o),
(220,384,o),
(163,390,c),
(163,210,l),
(219,205,o),
(255,204,o),
(281,204,cs),
(523,204,o),
(640,292,o),
(640,472,cs),
(640,652,o),
(523,740,o),
(281,740,cs),
(213,740,o),
(110,733,o),
(60,726,c),
(60,0,l)
);
}
);
width = 664;
},
{
associatedMasterId = m006;
attr = {
axisRules = (
{
},
{
max = 150;
min = 100;
}
);
};
layerId = "C2F37F2E-F1FA-4B5A-A169-3627F8CF03A4";
name = "Jun 15, 26 at 11:41";
shapes = (
{
closed = 1;
nodes = (
(262,0,l),
(262,660,l),
(163,554,l),
(220,554,o),
(279,554,o),
(314,554,cs),
(401,554,o),
(432,531,o),
(432,467,cs),
(432,403,o),
(401,380,o),
(314,380,cs),
(279,380,o),
(220,380,o),
(163,380,c),
(163,204,l),
(219,204,o),
(254,204,o),
(280,204,cs),
(527,204,o),
(640,286,o),
(640,467,cs),
(640,648,o),
(528,730,o),
(281,730,cs),
(213,730,o),
(110,730,o),
(60,730,c),
(60,0,l)
);
}
);
width = 664;
},
{
associatedMasterId = m004;
attr = {
axisRules = (
{
},
{
max = 150;
min = 100;
}
);
};
layerId = "190FF0EF-8281-4F64-A8C5-C406AC696CA8";
name = "Jun 15, 26 at 11:44";
shapes = (
{
closed = 1;
nodes = (
(110,0,l),
(110,720,l),
(100,710,l),
(198,710,o),
(224,710,o),
(266,710,cs),
(454,710,o),
(530,653,o),
(530,520,cs),
(530,387,o),
(454,330,o),
(266,330,cs),
(224,330,o),
(183,330,o),
(100,330,c),
(100,310,l),
(183,310,o),
(224,310,o),
(266,310,cs),
(463,310,o),
(550,374,o),
(550,520,cs),
(550,666,o),
(463,730,o),
(266,730,cs),
(224,730,o),
(188,730,o),
(90,730,c),
(90,0,l)
);
}
);
width = 586;
},
{
associatedMasterId = m005;
attr = {
axisRules = (
{
},
{
max = 150;
min = 100;
}
);
};
layerId = "4B8B41D0-6C23-456E-9863-169414F35D9E";
name = "Jun 15, 26 at 11:47";
shapes = (
{
closed = 1;
nodes = (
(186,0,l),
(186,690,l),
(132,632,l),
(209,632,o),
(252,632,o),
(290,632,cs),
(427,632,o),
(481,593,o),
(481,494,cs),
(481,395,o),
(427,356,o),
(290,356,cs),
(252,356,o),
(202,356,o),
(132,356,c),
(132,258,l),
(201,258,o),
(240,258,o),
(274,258,cs),
(496,258,o),
(595,331,o),
(595,494,cs),
(595,657,o),
(496,730,o),
(274,730,cs),
(219,730,o),
(149,730,o),
(75,730,c),
(75,0,l)
);
}
);
width = 625;
},
{
associatedMasterId = m01;
attr = {
axisRules = (
{
},
{
max = 150;
min = 100;
}
);
};
layerId = "3C33BAB6-008D-44BB-ABF1-03F02741D686";
name = "Jun 15, 26 at 21:01";
shapes = (
{
closed = 1;
nodes = (
(110,0,l),
(110,720,l),
(100,710,l),
(194,710,o),
(218,710,o),
(258,710,cs),
(438,710,o),
(510,656,o),
(510,530,cs),
(510,404,o),
(438,350,o),
(258,350,cs),
(218,350,o),
(179,350,o),
(100,350,c),
(100,330,l),
(179,330,o),
(218,330,o),
(258,330,cs),
(447,330,o),
(530,391,o),
(530,530,cs),
(530,669,o),
(447,730,o),
(258,730,cs),
(218,730,o),
(184,730,o),
(90,730,c),
(90,0,l)
);
}
);
width = 566;
},
{
associatedMasterId = m002;
attr = {
axisRules = (
{
},
{
max = 150;
min = 100;
}
);
};
layerId = "312D0A1D-0B74-4630-8A3F-2145FEFC06CA";
name = "Jun 15, 26 at 21:01";
shapes = (
{
closed = 1;
nodes = (
(186,0,l),
(186,690,l),
(128,632,l),
(200,632,o),
(238,632,o),
(274,632,cs),
(401,632,o),
(451,595,o),
(451,501,cs),
(451,407,o),
(401,370,o),
(274,370,cs),
(238,370,o),
(193,370,o),
(128,370,c),
(128,272,l),
(194,272,o),
(230,272,o),
(262,272,cs),
(472,272,o),
(565,342,o),
(565,501,cs),
(565,660,o),
(472,730,o),
(262,730,cs),
(210,730,o),
(146,730,o),
(75,730,c),
(75,0,l)
);
}
);
width = 595;
},
{
associatedMasterId = m003;
attr = {
axisRules = (
{
},
{
max = 150;
min = 100;
}
);
};
layerId = "6207D0E1-E8E0-49F7-8968-0B272C5B9462";
name = "Jun 15, 26 at 21:02";
shapes = (
{
closed = 1;
nodes = (
(262,0,l),
(262,660,l),
(156,554,l),
(206,554,o),
(258,554,o),
(289,554,cs),
(365,554,o),
(392,532,o),
(392,472,cs),
(392,412,o),
(365,390,o),
(289,390,cs),
(258,390,o),
(206,390,o),
(156,390,c),
(156,214,l),
(209,214,o),
(241,214,o),
(266,214,cs),
(496,214,o),
(600,294,o),
(600,472,cs),
(600,650,o),
(496,730,o),
(266,730,cs),
(202,730,o),
(107,730,o),
(60,730,c),
(60,0,l)
);
}
);
width = 624;
}
);
metricLeft = "=H";
metricRight = "=H*.4";
unicode = 80;
},
{
color = 4;
glyphname = Q;
kernLeft = O;
kernRight = O;
lastChange = "2026-07-05 07:39:16 +0000";
layers = (
{
layerId = m01;
shapes = (
{
closed = 1;
nodes = (
(583,-20,o),
(696,-68,o),
(765,-160,c),
(781,-148,l),
(726,-75,o),
(642,-27,o),
(539,-9,c),
(539,-7,l),
(710,34,o),
(825,178,o),
(825,365,cs),
(825,589,o),
(662,750,o),
(435,750,cs),
(208,750,o),
(45,589,o),
(45,365,cs),
(45,141,o),
(208,-20,o),
(435,-20,cs)
);
},
{
closed = 1;
nodes = (
(219,0,o),
(65,152,o),
(65,365,cs),
(65,578,o),
(219,730,o),
(435,730,cs),
(651,730,o),
(805,578,o),
(805,365,cs),
(805,152,o),
(651,0,o),
(435,0,cs)
);
}
);
width = 870;
},
{
layerId = m002;
shapes = (
{
closed = 1;
nodes = (
(565,-20,o),
(643,-57,o),
(713,-160,c),
(801,-90,l),
(759,-36,o),
(706,3,o),
(638,29,c),
(638,31,l),
(755,95,o),
(828,216,o),
(828,365,cs),
(828,589,o),
(663,750,o),
(433,750,cs),
(203,750,o),
(38,589,o),
(38,365,cs),
(38,141,o),
(203,-20,o),
(433,-20,cs)
);
},
{
closed = 1;
nodes = (
(267,85,o),
(150,201,o),
(150,365,cs),
(150,529,o),
(267,645,o),
(433,645,cs),
(599,645,o),
(716,529,o),
(716,365,cs),
(716,201,o),
(599,85,o),
(433,85,cs)
);
}
);
width = 866;
},
{
layerId = m003;
shapes = (
{
closed = 1;
nodes = (
(546,-20,o),
(589,-46,o),
(660,-160,c),
(820,-50,l),
(782,0,o),
(738,37,o),
(687,62,c),
(687,64,l),
(779,135,o),
(830,242,o),
(830,365,cs),
(830,589,o),
(663,750,o),
(430,750,cs),
(197,750,o),
(30,589,o),
(30,365,cs),
(30,141,o),
(197,-20,o),
(430,-20,cs)
);
},
{
closed = 1;
nodes = (
(316,170,o),
(236,250,o),
(236,365,cs),
(236,480,o),
(316,560,o),
(430,560,cs),
(544,560,o),
(624,480,o),
(624,365,cs),
(624,250,o),
(544,170,o),
(430,170,cs)
);
}
);
width = 860;
},
{
layerId = m004;
shapes = (
{
closed = 1;
nodes = (
(531,-20,o),
(656,-74,o),
(719,-160,c),
(735,-148,l),
(680,-76,o),
(595,-28,o),
(491,-10,c),
(491,-8,l),
(649,30,o),
(745,167,o),
(745,365,cs),
(745,601,o),
(610,750,o),
(395,750,cs),
(180,750,o),
(45,601,o),
(45,365,cs),
(45,129,o),
(180,-20,o),
(395,-20,cs)
);
},
{
closed = 1;
nodes = (
(191,0,o),
(65,139,o),
(65,365,cs),
(65,591,o),
(191,730,o),
(395,730,cs),
(599,730,o),
(725,591,o),
(725,365,cs),
(725,139,o),
(599,0,o),
(395,0,cs)
);
}
);
width = 790;
},
{
layerId = m005;
shapes = (
{
closed = 1;
nodes = (
(532,-20,o),
(608,-59,o),
(675,-160,c),
(763,-90,l),
(719,-35,o),
(666,3,o),
(598,29,c),
(598,31,l),
(705,93,o),
(768,212,o),
(768,365,cs),
(768,598,o),
(624,750,o),
(403,750,cs),
(183,750,o),
(38,598,o),
(38,365,cs),
(38,133,o),
(183,-20,o),
(403,-20,cs)
);
},
{
closed = 1;
nodes = (
(248,85,o),
(152,192,o),
(152,365,cs),
(152,538,o),
(248,645,o),
(403,645,cs),
(558,645,o),
(654,538,o),
(654,365,cs),
(654,192,o),
(558,85,o),
(403,85,cs)
);
}
);
width = 806;
},
{
layerId = m006;
shapes = (
{
closed = 1;
nodes = (
(522,-20,o),
(563,-46,o),
(631,-160,c),
(790,-50,l),
(757,-4,o),
(709,35,o),
(655,60,c),
(655,62,l),
(740,129,o),
(790,235,o),
(790,365,cs),
(790,594,o),
(636,750,o),
(410,750,cs),
(184,750,o),
(30,594,o),
(30,365,cs),
(30,136,o),
(184,-20,o),
(410,-20,cs)
);
},
{
closed = 1;
nodes = (
(304,170,o),
(238,245,o),
(238,365,cs),
(238,485,o),
(304,560,o),
(410,560,cs),
(516,560,o),
(582,485,o),
(582,365,cs),
(582,245,o),
(516,170,o),
(410,170,cs)
);
}
);
width = 820;
}
);
metricLeft = "=H*.5";
metricRight = "=|";
unicode = 81;
},
{
color = 4;
glyphname = R;
kernLeft = H;
kernRight = R;
lastChange = "2026-07-05 07:39:18 +0000";
layers = (
{
layerId = m002;
metricRight = "=H*.3";
shapes = (
{
closed = 1;
nodes = (
(184,0,l),
(184,688,l),
(124,630,l),
(180,638,o),
(232,642,o),
(274,642,cs),
(400,642,o),
(451,606,o),
(451,518,cs),
(451,430,o),
(400,394,o),
(274,394,cs),
(244,394,o),
(220,396,o),
(129,406,c),
(128,310,l),
(196,302,o),
(228,300,o),
(262,300,cs),
(466,300,o),
(565,372,o),
(565,520,cs),
(565,668,o),
(466,740,o),
(262,740,cs),
(214,740,o),
(151,736,o),
(75,726,c),
(75,0,l)
);
},
{
closed = 1;
nodes = (
(595,0,l),
(275,353,l),
(151,353,l),
(469,0,l)
);
}
);
width = 618;
},
{
layerId = m003;
metricRight = "=H*.2";
shapes = (
{
closed = 1;
nodes = (
(258,0,l),
(258,660,l),
(156,559,l),
(213,566,o),
(258,570,o),
(289,570,cs),
(364,570,o),
(392,547,o),
(392,487,cs),
(392,427,o),
(364,404,o),
(289,404,cs),
(258,404,o),
(213,408,o),
(156,415,c),
(156,246,l),
(199,242,o),
(232,240,o),
(266,240,cs),
(486,240,o),
(600,324,o),
(600,487,cs),
(600,654,o),
(486,740,o),
(266,740,cs),
(207,740,o),
(117,734,o),
(60,726,c),
(60,0,l)
);
},
{
closed = 1;
nodes = (
(640,0,l),
(420,327,l),
(218,327,l),
(422,0,l)
);
}
);
width = 652;
},
{
layerId = m006;
metricRight = "=H*.2";
shapes = (
{
closed = 1;
nodes = (
(262,0,l),
(262,660,l),
(163,559,l),
(220,566,o),
(276,570,o),
(314,570,cs),
(401,570,o),
(432,549,o),
(432,489,cs),
(432,429,o),
(401,408,o),
(314,408,cs),
(276,408,o),
(220,412,o),
(163,419,c),
(163,250,l),
(219,245,o),
(254,244,o),
(281,244,cs),
(523,244,o),
(640,325,o),
(640,492,cs),
(640,659,o),
(523,740,o),
(281,740,cs),
(210,740,o),
(110,733,o),
(60,726,c),
(60,0,l)
);
},
{
closed = 1;
nodes = (
(660,0,l),
(461,327,l),
(253,327,l),
(440,0,l)
);
}
);
width = 672;
},
{
layerId = m004;
metricRight = "=H*.4";
name = "Thin Eve";
shapes = (
{
closed = 1;
nodes = (
(110,0,l),
(110,715,l),
(92,706,l),
(189,717,o),
(223,720,o),
(266,720,cs),
(454,720,o),
(530,666,o),
(530,540,cs),
(530,414,o),
(454,360,o),
(266,360,cs),
(223,360,o),
(182,363,o),
(101,373,c),
(99,353,l),
(180,343,o),
(222,340,o),
(266,340,cs),
(463,340,o),
(550,401,o),
(550,540,cs),
(550,679,o),
(463,740,o),
(266,740,cs),
(222,740,o),
(187,737,o),
(90,726,c),
(90,0,l)
);
},
{
closed = 1;
nodes = (
(570,0,l),
(270,351,l),
(244,351,l),
(544,0,l)
);
}
);
width = 606;
},
{
layerId = m005;
metricRight = "=H*.3";
name = "Medium Eve";
shapes = (
{
closed = 1;
nodes = (
(186,0,l),
(186,688,l),
(128,629,l),
(205,639,o),
(250,642,o),
(290,642,cs),
(427,642,o),
(481,606,o),
(481,515,cs),
(481,424,o),
(427,388,o),
(290,388,cs),
(244,388,o),
(186,392,o),
(132,399,c),
(131,302,l),
(200,294,o),
(237,292,o),
(274,292,cs),
(493,292,o),
(595,363,o),
(595,516,cs),
(595,669,o),
(493,740,o),
(274,740,cs),
(216,740,o),
(149,735,o),
(75,726,c),
(75,0,l)
);
},
{
closed = 1;
nodes = (
(615,0,l),
(366,339,l),
(244,339,l),
(491,0,l)
);
}
);
width = 638;
},
{
layerId = m01;
metricRight = "=H*.4";
name = Thin;
shapes = (
{
closed = 1;
nodes = (
(110,0,l),
(110,715,l),
(92,706,l),
(186,717,o),
(217,720,o),
(258,720,cs),
(436,720,o),
(510,668,o),
(510,550,cs),
(510,432,o),
(436,380,o),
(258,380,cs),
(225,380,o),
(195,382,o),
(101,393,c),
(99,373,l),
(193,362,o),
(224,360,o),
(258,360,cs),
(445,360,o),
(530,419,o),
(530,550,cs),
(530,681,o),
(445,740,o),
(258,740,cs),
(216,740,o),
(184,737,o),
(90,726,c),
(90,0,l)
);
},
{
closed = 1;
nodes = (
(550,0,l),
(133,379,l),
(104,379,l),
(520,0,l)
);
}
);
width = 586;
},
{
associatedMasterId = m004;
attr = {
axisRules = (
{
},
{
max = 150;
min = 100;
}
);
};
layerId = "AD341BE5-1D86-416D-BE90-BF446D902AD7";
metricRight = "=H*.3";
name = "Jun 15, 26 at 13:02";
shapes = (
{
closed = 1;
nodes = (
(110,0,l),
(110,720,l),
(100,710,l),
(208,710,o),
(237,710,o),
(286,710,cs),
(460,710,o),
(530,659,o),
(530,540,cs),
(530,421,o),
(460,370,o),
(286,370,cs),
(237,370,o),
(191,370,o),
(100,370,c),
(100,350,l),
(191,350,o),
(237,350,o),
(286,350,cs),
(469,350,o),
(550,408,o),
(550,540,cs),
(550,672,o),
(469,730,o),
(286,730,cs),
(237,730,o),
(198,730,o),
(90,730,c),
(90,0,l)
);
},
{
closed = 1;
nodes = (
(570,0,l),
(270,361,l),
(244,361,l),
(544,0,l)
);
}
);
width = 597;
},
{
associatedMasterId = m005;
attr = {
axisRules = (
{
},
{
max = 150;
min = 100;
}
);
};
layerId = "9CD70E61-86FD-46F2-9DDD-2820588FA83A";
metricRight = "=H*.2";
name = "Jun 15, 26 at 13:02";
shapes = (
{
closed = 1;
nodes = (
(186,0,l),
(186,690,l),
(132,632,l),
(214,632,o),
(257,632,o),
(300,632,cs),
(430,632,o),
(481,598,o),
(481,512,cs),
(481,426,o),
(430,392,o),
(300,392,cs),
(257,392,o),
(206,392,o),
(132,392,c),
(132,296,l),
(212,296,o),
(257,296,o),
(299,296,cs),
(501,296,o),
(595,365,o),
(595,513,cs),
(595,661,o),
(501,730,o),
(299,730,cs),
(234,730,o),
(158,730,o),
(75,730,c),
(75,0,l)
);
},
{
closed = 1;
nodes = (
(615,0,l),
(366,339,l),
(244,339,l),
(491,0,l)
);
}
);
width = 630;
},
{
associatedMasterId = m006;
attr = {
axisRules = (
{
},
{
max = 150;
min = 100;
}
);
};
layerId = "9B7AE8BE-55EB-41B3-8837-5119F823B4C2";
metricRight = "=H*.1";
name = "Jun 15, 26 at 13:02";
shapes = (
{
closed = 1;
nodes = (
(262,0,l),
(262,660,l),
(163,560,l),
(220,560,o),
(276,560,o),
(314,560,cs),
(401,560,o),
(432,540,o),
(432,484,cs),
(432,428,o),
(401,408,o),
(314,408,cs),
(276,408,o),
(220,408,o),
(163,408,c),
(163,244,l),
(233,244,o),
(277,244,o),
(311,244,cs),
(533,244,o),
(640,323,o),
(640,487,cs),
(640,651,o),
(533,730,o),
(311,730,cs),
(230,730,o),
(117,730,o),
(60,730,c),
(60,0,l)
);
},
{
closed = 1;
nodes = (
(660,0,l),
(461,327,l),
(253,327,l),
(440,0,l)
);
}
);
width = 666;
},
{
associatedMasterId = m01;
attr = {
axisRules = (
{
},
{
max = 150;
min = 100;
}
);
};
layerId = "E93DFEED-F193-4190-850B-2E94B8BF9895";
name = "Jun 15, 26 at 21:03";
shapes = (
{
closed = 1;
nodes = (
(110,0,l),
(110,720,l),
(100,710,l),
(204,710,o),
(231,710,o),
(278,710,cs),
(444,710,o),
(511,659,o),
(511,540,cs),
(511,421,o),
(444,370,o),
(278,370,cs),
(231,370,o),
(187,370,o),
(100,370,c),
(100,350,l),
(187,350,o),
(231,350,o),
(278,350,cs),
(453,350,o),
(531,408,o),
(531,540,cs),
(531,672,o),
(453,730,o),
(278,730,cs),
(231,730,o),
(194,730,o),
(90,730,c),
(90,0,l)
);
},
{
closed = 1;
nodes = (
(550,0,l),
(263,361,l),
(237,361,l),
(524,0,l)
);
}
);
width = 559;
},
{
associatedMasterId = m002;
attr = {
axisRules = (
{
},
{
max = 150;
min = 100;
}
);
};
layerId = "B2077651-A66E-46DF-A37B-806F64CE9DBA";
name = "Jun 15, 26 at 21:03";
shapes = (
{
closed = 1;
nodes = (
(186,0,l),
(186,690,l),
(130,632,l),
(209,632,o),
(249,632,o),
(290,632,cs),
(412,632,o),
(462,597,o),
(462,512,cs),
(462,427,o),
(412,392,o),
(290,392,cs),
(249,392,o),
(200,392,o),
(130,392,c),
(130,296,l),
(207,296,o),
(251,296,o),
(291,296,cs),
(485,296,o),
(576,365,o),
(576,513,cs),
(576,661,o),
(485,730,o),
(291,730,cs),
(228,730,o),
(155,730,o),
(75,730,c),
(75,0,l)
);
},
{
closed = 1;
nodes = (
(595,0,l),
(356,344,l),
(234,344,l),
(471,0,l)
);
}
);
width = 603;
},
{
associatedMasterId = m003;
attr = {
axisRules = (
{
},
{
max = 150;
min = 100;
}
);
};
layerId = "EFC19211-A3D4-408A-81A3-CD70C1F73641";
name = "Jun 15, 26 at 21:03";
shapes = (
{
closed = 1;
nodes = (
(262,0,l),
(262,660,l),
(160,560,l),
(213,560,o),
(266,560,o),
(302,560,cs),
(382,560,o),
(412,539,o),
(412,482,cs),
(412,425,o),
(382,404,o),
(302,404,cs),
(266,404,o),
(213,404,o),
(160,404,c),
(160,240,l),
(227,240,o),
(270,240,o),
(303,240,cs),
(516,240,o),
(620,320,o),
(620,485,cs),
(620,650,o),
(516,730,o),
(303,730,cs),
(224,730,o),
(115,730,o),
(60,730,c),
(60,0,l)
);
},
{
closed = 1;
nodes = (
(640,0,l),
(448,327,l),
(240,327,l),
(420,0,l)
);
}
);
width = 646;
}
);
metricLeft = "=H";
metricRight = "=H*.1";
unicode = 82;
},
{
color = 4;
glyphname = S;
kernLeft = S;
kernRight = S;
lastChange = "2026-07-05 07:39:19 +0000";
layers = (
{
layerId = m01;
shapes = (
{
closed = 1;
nodes = (
(420,-10,o),
(504,60,o),
(504,187,cs),
(504,286,o),
(435,344,o),
(278,389,cs),
(126,432,o),
(76,482,o),
(76,568,cs),
(76,668,o),
(144,720,o),
(284,720,cs),
(362,720,o),
(427,704,o),
(480,677,c),
(489,695,l),
(434,723,o),
(365,740,o),
(284,740,cs),
(134,740,o),
(56,681,o),
(56,568,cs),
(56,471,o),
(114,415,o),
(273,370,cs),
(423,327,o),
(484,275,o),
(484,187,cs),
(484,72,o),
(410,10,o),
(268,10,cs),
(195,10,o),
(121,26,o),
(62,53,c),
(54,35,l),
(115,7,o),
(193,-10,o),
(268,-10,cs)
);
}
);
width = 558;
},
{
layerId = m002;
shapes = (
{
closed = 1;
nodes = (
(447,-10,o),
(545,68,o),
(545,199,cs),
(545,307,o),
(478,370,o),
(324,413,cs),
(204,447,o),
(160,485,o),
(160,544,cs),
(160,608,o),
(207,640,o),
(303,640,cs),
(375,640,o),
(448,622,o),
(502,593,c),
(528,693,l),
(469,723,o),
(392,740,o),
(305,740,cs),
(134,740,o),
(46,674,o),
(46,545,cs),
(46,436,o),
(108,370,o),
(258,330,cs),
(378,298,o),
(431,259,o),
(431,199,cs),
(431,129,o),
(381,90,o),
(288,90,cs),
(218,90,o),
(133,112,o),
(71,146,c),
(45,46,l),
(106,11,o),
(196,-10,o),
(282,-10,cs)
);
}
);
width = 590;
},
{
layerId = m004;
shapes = (
{
closed = 1;
nodes = (
(436,-10,o),
(524,60,o),
(524,187,cs),
(524,287,o),
(452,344,o),
(288,389,cs),
(129,432,o),
(76,482,o),
(76,568,cs),
(76,668,o),
(147,720,o),
(294,720,cs),
(376,720,o),
(444,704,o),
(499,677,c),
(508,695,l),
(451,723,o),
(379,740,o),
(294,740,cs),
(138,740,o),
(56,681,o),
(56,568,cs),
(56,471,o),
(117,415,o),
(283,370,cs),
(440,327,o),
(504,275,o),
(504,187,cs),
(504,72,o),
(426,10,o),
(278,10,cs),
(201,10,o),
(124,26,o),
(62,53,c),
(54,35,l),
(118,7,o),
(199,-10,o),
(278,-10,cs)
);
}
);
width = 578;
},
{
layerId = m005;
shapes = (
{
closed = 1;
nodes = (
(463,-10,o),
(565,68,o),
(565,199,cs),
(565,307,o),
(493,370,o),
(333,413,cs),
(206,447,o),
(160,485,o),
(160,544,cs),
(160,608,o),
(209,640,o),
(311,640,cs),
(387,640,o),
(464,622,o),
(521,593,c),
(547,693,l),
(486,723,o),
(406,740,o),
(315,740,cs),
(138,740,o),
(46,674,o),
(46,545,cs),
(46,436,o),
(113,370,o),
(269,330,cs),
(395,298,o),
(451,259,o),
(451,199,cs),
(451,129,o),
(399,90,o),
(301,90,cs),
(222,90,o),
(131,115,o),
(71,146,c),
(45,46,l),
(109,11,o),
(202,-10,o),
(291,-10,cs)
);
}
);
width = 610;
},
{
layerId = m006;
shapes = (
{
closed = 1;
nodes = (
(500,-10,o),
(606,67,o),
(606,211,cs),
(606,327,o),
(533,396,o),
(378,437,cs),
(285,461,o),
(244,487,o),
(244,520,cs),
(244,547,o),
(271,560,o),
(327,560,cs),
(397,560,o),
(482,540,o),
(541,509,c),
(585,691,l),
(521,723,o),
(432,740,o),
(336,740,cs),
(137,740,o),
(36,667,o),
(36,522,cs),
(36,401,o),
(111,324,o),
(254,290,cs),
(352,268,o),
(398,242,o),
(398,210,cs),
(398,185,o),
(371,170,o),
(324,170,cs),
(254,170,o),
(138,203,o),
(80,238,c),
(36,56,l),
(99,15,o),
(194,-10,o),
(304,-10,cs)
);
}
);
width = 642;
},
{
layerId = m003;
name = "Black F1";
shapes = (
{
closed = 1;
nodes = (
(484,-10,o),
(586,67,o),
(586,211,cs),
(586,327,o),
(520,396,o),
(370,437,cs),
(283,461,o),
(244,487,o),
(244,520,cs),
(244,547,o),
(270,560,o),
(322,560,cs),
(388,560,o),
(469,540,o),
(524,509,c),
(566,691,l),
(504,723,o),
(418,740,o),
(325,740,cs),
(133,740,o),
(36,667,o),
(36,522,cs),
(36,401,o),
(104,324,o),
(242,290,cs),
(334,268,o),
(378,242,o),
(378,210,cs),
(378,185,o),
(352,170,o),
(308,170,cs),
(242,170,o),
(133,203,o),
(78,238,c),
(36,56,l),
(97,15,o),
(188,-10,o),
(295,-10,cs)
);
}
);
width = 622;
}
);
metricLeft = "=H*.6";
metricRight = "=|";
unicode = 83;
},
{
color = 4;
glyphname = T;
kernLeft = T;
kernRight = T;
lastChange = "2026-07-05 07:39:21 +0000";
layers = (
{
layerId = m01;
metricLeft = "=H*.1";
shapes = (
{
closed = 1;
nodes = (
(289,0,l),
(289,710,l),
(549,710,l),
(549,730,l),
(9,730,l),
(9,710,l),
(269,710,l),
(269,0,l)
);
}
);
width = 558;
},
{
layerId = m002;
metricLeft = "=H*.2";
shapes = (
{
closed = 1;
nodes = (
(351,0,l),
(351,630,l),
(575,630,l),
(575,730,l),
(15,730,l),
(15,630,l),
(239,630,l),
(239,0,l)
);
}
);
width = 590;
},
{
layerId = m003;
metricLeft = "=H*.3";
shapes = (
{
closed = 1;
nodes = (
(412,0,l),
(412,550,l),
(598,550,l),
(598,730,l),
(18,730,l),
(18,550,l),
(204,550,l),
(204,0,l)
);
}
);
width = 616;
},
{
layerId = m004;
metricLeft = "=H*.1";
shapes = (
{
closed = 1;
nodes = (
(299,0,l),
(299,710,l),
(569,710,l),
(569,730,l),
(9,730,l),
(9,710,l),
(279,710,l),
(279,0,l)
);
}
);
width = 578;
},
{
layerId = m005;
metricLeft = "=H*.2";
shapes = (
{
closed = 1;
nodes = (
(361,0,l),
(361,630,l),
(595,630,l),
(595,730,l),
(15,730,l),
(15,630,l),
(249,630,l),
(249,0,l)
);
}
);
width = 610;
},
{
layerId = m006;
metricLeft = "=H*.3";
shapes = (
{
closed = 1;
nodes = (
(422,0,l),
(422,550,l),
(618,550,l),
(618,730,l),
(18,730,l),
(18,550,l),
(214,550,l),
(214,0,l)
);
}
);
width = 636;
}
);
metricLeft = "=H*.1";
metricRight = "=|";
unicode = 84;
},
{
color = 4;
glyphname = U;
kernLeft = U;
kernRight = U;
lastChange = "2026-07-05 07:39:23 +0000";
layers = (
{
layerId = m01;
shapes = (
{
closed = 1;
nodes = (
(488,-20,o),
(566,84,o),
(566,300,cs),
(566,730,l),
(546,730,l),
(546,300,ls),
(546,93,o),
(475,0,o),
(326,0,cs),
(177,0,o),
(106,93,o),
(106,300,cs),
(106,730,l),
(86,730,l),
(86,300,ls),
(86,84,o),
(164,-20,o),
(326,-20,cs)
);
}
);
width = 652;
},
{
layerId = m002;
shapes = (
{
closed = 1;
nodes = (
(522,-20,o),
(611,88,o),
(611,305,cs),
(611,730,l),
(501,730,l),
(501,335,ls),
(501,154,o),
(455,81,o),
(341,81,cs),
(227,81,o),
(181,154,o),
(181,335,cs),
(181,730,l),
(71,730,l),
(71,305,ls),
(71,88,o),
(161,-20,o),
(341,-20,cs)
);
}
);
width = 682;
},
{
layerId = m003;
shapes = (
{
closed = 1;
nodes = (
(556,-20,o),
(657,91,o),
(657,310,cs),
(657,730,l),
(457,730,l),
(457,370,ls),
(457,210,o),
(434,162,o),
(357,162,cs),
(280,162,o),
(257,210,o),
(257,370,cs),
(257,730,l),
(57,730,l),
(57,310,ls),
(57,91,o),
(158,-20,o),
(357,-20,cs)
);
}
);
width = 714;
},
{
layerId = m004;
shapes = (
{
closed = 1;
nodes = (
(505,-20,o),
(586,84,o),
(586,300,cs),
(586,730,l),
(566,730,l),
(566,300,ls),
(566,94,o),
(492,0,o),
(336,0,cs),
(180,0,o),
(106,94,o),
(106,300,cs),
(106,730,l),
(86,730,l),
(86,300,ls),
(86,84,o),
(167,-20,o),
(336,-20,cs)
);
}
);
width = 672;
},
{
layerId = m005;
shapes = (
{
closed = 1;
nodes = (
(538,-20,o),
(631,88,o),
(631,305,cs),
(631,730,l),
(521,730,l),
(521,335,ls),
(521,153,o),
(473,81,o),
(351,81,cs),
(229,81,o),
(181,153,o),
(181,335,cs),
(181,730,l),
(71,730,l),
(71,305,ls),
(71,88,o),
(164,-20,o),
(351,-20,cs)
);
}
);
width = 702;
},
{
layerId = m006;
shapes = (
{
closed = 1;
nodes = (
(573,-20,o),
(677,91,o),
(677,310,cs),
(677,730,l),
(477,730,l),
(477,370,ls),
(477,209,o),
(452,162,o),
(367,162,cs),
(282,162,o),
(257,209,o),
(257,370,cs),
(257,730,l),
(57,730,l),
(57,310,ls),
(57,91,o),
(161,-20,o),
(367,-20,cs)
);
}
);
width = 734;
}
);
metricLeft = "=H*.95";
metricRight = "=|";
unicode = 85;
},
{
color = 4;
glyphname = V;
kernLeft = V;
kernRight = V;
lastChange = "2026-07-05 07:39:53 +0000";
layers = (
{
layerId = m002;
shapes = (
{
closed = 1;
nodes = (
(445,0,l),
(725,730,l),
(603,730,l),
(394,170,l),
(371,107,l),
(369,107,l),
(346,170,l),
(137,730,l),
(15,730,l),
(295,0,l)
);
}
);
width = 740;
},
{
layerId = m003;
shapes = (
{
closed = 1;
nodes = (
(517,0,l),
(772,730,l),
(554,730,l),
(422,280,l),
(393,178,l),
(391,178,l),
(362,280,l),
(230,730,l),
(12,730,l),
(267,0,l)
);
}
);
width = 784;
},
{
layerId = m004;
shapes = (
{
closed = 1;
nodes = (
(311,0,l),
(578,730,l),
(556,730,l),
(312,61,l),
(299,23,l),
(297,23,l),
(284,61,l),
(40,730,l),
(18,730,l),
(285,0,l)
);
}
);
width = 596;
},
{
layerId = m005;
shapes = (
{
closed = 1;
nodes = (
(395,0,l),
(625,730,l),
(505,730,l),
(339,180,l),
(321,117,l),
(319,117,l),
(301,180,l),
(135,730,l),
(15,730,l),
(245,0,l)
);
}
);
width = 640;
},
{
layerId = m006;
shapes = (
{
closed = 1;
nodes = (
(467,0,l),
(672,730,l),
(458,730,l),
(365,300,l),
(343,194,l),
(341,194,l),
(319,300,l),
(226,730,l),
(12,730,l),
(217,0,l)
);
}
);
width = 684;
},
{
associatedMasterId = m003;
layerId = "073B8499-A2BD-4C2F-AFAF-33828D8F29CE";
name = "A width";
shapes = (
{
closed = 1;
nodes = (
(512,0,l),
(772,730,l),
(554,730,l),
(422,280,l),
(393,170,l),
(391,170,l),
(362,280,l),
(230,730,l),
(12,730,l),
(272,0,l)
);
}
);
width = 784;
},
{
associatedMasterId = m002;
layerId = "937254B9-A304-4BC3-ADF3-1481D60FDA01";
name = "A width";
shapes = (
{
closed = 1;
nodes = (
(436,0,l),
(724,730,l),
(604,730,l),
(393,171,l),
(370,95,l),
(368,95,l),
(345,171,l),
(134,730,l),
(14,730,l),
(302,0,l)
);
}
);
width = 738;
},
{
layerId = m01;
name = "Thin F1";
shapes = (
{
closed = 1;
nodes = (
(361,0,l),
(678,730,l),
(656,730,l),
(366,61,l),
(349,20,l),
(347,20,l),
(330,61,l),
(40,730,l),
(18,730,l),
(335,0,l)
);
}
);
width = 696;
}
);
metricLeft = "=A";
metricRight = "=|";
unicode = 86;
},
{
color = 4;
glyphname = W;
kernLeft = V;
kernRight = V;
lastChange = "2026-07-05 07:40:55 +0000";
layers = (
{
layerId = m002;
shapes = (
{
closed = 1;
nodes = (
(338,0,l),
(489,595,l),
(491,595,l),
(642,0,l),
(778,0,l),
(965,730,l),
(849,730,l),
(726,206,l),
(709,132,l),
(707,132,l),
(689,206,l),
(558,730,l),
(558,730,l),
(558,730,l),
(422,730,l),
(422,730,l),
(422,730,l),
(291,206,l),
(273,132,l),
(271,132,l),
(254,206,l),
(131,730,l),
(15,730,l),
(202,0,l)
);
}
);
width = 980;
},
{
layerId = m004;
shapes = (
{
closed = 1;
nodes = (
(260,0,l),
(452,710,l),
(454,710,l),
(646,0,l),
(678,0,l),
(888,730,l),
(867,730,l),
(673,55,l),
(663,18,l),
(661,18,l),
(652,53,l),
(469,730,l),
(469,730,l),
(469,730,l),
(437,730,l),
(437,730,l),
(437,730,l),
(254,53,l),
(245,18,l),
(243,18,l),
(233,55,l),
(39,730,l),
(18,730,l),
(228,0,l)
);
}
);
width = 906;
},
{
layerId = m005;
shapes = (
{
closed = 1;
nodes = (
(338,0,l),
(489,595,l),
(491,595,l),
(642,0,l),
(778,0,l),
(965,730,l),
(849,730,l),
(726,206,l),
(709,132,l),
(707,132,l),
(689,206,l),
(558,730,l),
(558,730,l),
(558,730,l),
(422,730,l),
(422,730,l),
(422,730,l),
(291,206,l),
(273,132,l),
(271,132,l),
(254,206,l),
(131,730,l),
(15,730,l),
(202,0,l)
);
}
);
width = 980;
},
{
layerId = m006;
shapes = (
{
closed = 1;
nodes = (
(452,0,l),
(526,510,l),
(528,510,l),
(602,0,l),
(862,0,l),
(1042,730,l),
(828,730,l),
(753,305,l),
(738,215,l),
(736,215,l),
(724,305,l),
(667,730,l),
(667,730,l),
(667,730,l),
(387,730,l),
(387,730,l),
(387,730,l),
(330,305,l),
(318,215,l),
(316,215,l),
(301,305,l),
(226,730,l),
(12,730,l),
(192,0,l)
);
}
);
width = 1054;
},
{
layerId = m003;
name = "Black F1";
shapes = (
{
closed = 1;
nodes = (
(452,0,l),
(526,510,l),
(528,510,l),
(602,0,l),
(862,0,l),
(1042,730,l),
(828,730,l),
(753,305,l),
(738,215,l),
(736,215,l),
(724,305,l),
(667,730,l),
(667,730,l),
(667,730,l),
(387,730,l),
(387,730,l),
(387,730,l),
(330,305,l),
(318,215,l),
(316,215,l),
(301,305,l),
(226,730,l),
(12,730,l),
(192,0,l)
);
}
);
width = 1054;
},
{
layerId = m01;
name = "Thin F1";
shapes = (
{
closed = 1;
nodes = (
(260,0,l),
(452,710,l),
(454,710,l),
(646,0,l),
(678,0,l),
(888,730,l),
(867,730,l),
(673,55,l),
(663,18,l),
(661,18,l),
(652,53,l),
(469,730,l),
(469,730,l),
(469,730,l),
(437,730,l),
(437,730,l),
(437,730,l),
(254,53,l),
(245,18,l),
(243,18,l),
(233,55,l),
(39,730,l),
(18,730,l),
(228,0,l)
);
}
);
width = 906;
},
{
associatedMasterId = m004;
attr = {
axisRules = (
{
max = 300;
min = 100;
},
{
max = 200;
min = 150;
}
);
};
background = {
shapes = (
{
closed = 1;
nodes = (
(320,0,l),
(638,730,l),
(616,730,l),
(336,86,l),
(310,25,l),
(308,25,l),
(283,91,l),
(40,730,l),
(18,730,l),
(296,0,l)
);
},
{
closed = 1;
nodes = (
(660,0,l),
(938,730,l),
(916,730,l),
(673,91,l),
(648,25,l),
(646,25,l),
(620,86,l),
(340,730,l),
(318,730,l),
(636,0,l)
);
}
);
};
layerId = "E192F69A-8E5D-4218-A70D-FAE34409CC58";
name = "Jun 11, 26 at 17:53";
shapes = (
{
closed = 1;
nodes = (
(320,0,l),
(478,363,l),
(636,0,l),
(660,0,l),
(938,730,l),
(916,730,l),
(673,91,l),
(648,25,l),
(646,25,l),
(620,86,l),
(489,388,l),
(638,730,l),
(616,730,l),
(478,413,l),
(340,730,l),
(318,730,l),
(467,388,l),
(336,86,l),
(310,25,l),
(308,25,l),
(283,91,l),
(40,730,l),
(18,730,l),
(296,0,l)
);
}
);
width = 956;
},
{
associatedMasterId = m005;
attr = {
axisRules = (
{
max = 300;
min = 100;
},
{
max = 200;
min = 150;
}
);
};
background = {
shapes = (
{
closed = 1;
nodes = (
(407,0,l),
(715,730,l),
(599,730,l),
(372,192,l),
(348,132,l),
(346,132,l),
(323,198,l),
(135,730,l),
(15,730,l),
(273,0,l)
);
},
{
closed = 1;
nodes = (
(737,0,l),
(995,730,l),
(875,730,l),
(687,198,l),
(664,132,l),
(662,132,l),
(638,192,l),
(411,730,l),
(295,730,l),
(603,0,l)
);
}
);
};
layerId = "1250F801-1661-428B-A33C-769B7A1F763A";
name = "Jun 11, 26 at 17:53";
shapes = (
{
closed = 1;
nodes = (
(407,0,l),
(505,252,l),
(603,0,l),
(737,0,l),
(995,730,l),
(875,730,l),
(687,198,l),
(664,132,l),
(662,132,l),
(638,192,l),
(563,370,l),
(715,730,l),
(599,730,l),
(505,487,l),
(411,730,l),
(295,730,l),
(447,370,l),
(372,192,l),
(348,132,l),
(346,132,l),
(323,198,l),
(135,730,l),
(15,730,l),
(273,0,l)
);
}
);
width = 1010;
},
{
associatedMasterId = m01;
attr = {
axisRules = (
{
max = 300;
min = 100;
},
{
max = 200;
min = 150;
}
);
};
background = {
shapes = (
{
closed = 1;
nodes = (
(340,0,l),
(698,730,l),
(676,730,l),
(352,69,l),
(330,22,l),
(328,22,l),
(305,79,l),
(40,730,l),
(18,730,l),
(316,0,l)
);
},
{
closed = 1;
nodes = (
(700,0,l),
(998,730,l),
(976,730,l),
(711,79,l),
(688,22,l),
(686,22,l),
(664,69,l),
(340,730,l),
(318,730,l),
(676,0,l)
);
}
);
};
layerId = "84745874-0A59-4090-B506-B8B038283198";
name = "Thin F1 [100‹wg‹300, 150‹wd‹200] Jul 2, 26 at 12:49";
shapes = (
{
closed = 1;
nodes = (
(340,0,l),
(508,343,l),
(676,0,l),
(700,0,l),
(998,730,l),
(976,730,l),
(711,79,l),
(688,22,l),
(686,22,l),
(664,69,l),
(519,365,l),
(698,730,l),
(676,730,l),
(508,387,l),
(340,730,l),
(318,730,l),
(497,365,l),
(352,69,l),
(330,22,l),
(328,22,l),
(305,79,l),
(40,730,l),
(18,730,l),
(316,0,l)
);
}
);
width = 1016;
},
{
associatedMasterId = m002;
attr = {
axisRules = (
{
max = 300;
min = 100;
},
{
max = 200;
min = 150;
}
);
};
background = {
shapes = (
{
closed = 1;
nodes = (
(417,0,l),
(765,730,l),
(649,730,l),
(383,172,l),
(360,121,l),
(358,121,l),
(338,177,l),
(135,730,l),
(15,730,l),
(283,0,l)
);
},
{
closed = 1;
nodes = (
(787,0,l),
(1055,730,l),
(935,730,l),
(732,177,l),
(712,121,l),
(710,121,l),
(687,172,l),
(421,730,l),
(305,730,l),
(653,0,l)
);
}
);
};
layerId = "995D3563-4519-49B2-A080-A616EDADFC3D";
name = "Medium F1 [100‹wg‹300, 150‹wd‹200] Jul 2, 26 at 12:56";
shapes = (
{
closed = 1;
nodes = (
(417,0,l),
(535,268,l),
(653,0,l),
(787,0,l),
(1055,730,l),
(935,730,l),
(732,177,l),
(712,121,l),
(710,121,l),
(687,172,l),
(593,369,l),
(765,730,l),
(649,730,l),
(535,471,l),
(421,730,l),
(305,730,l),
(477,369,l),
(383,172,l),
(360,121,l),
(358,121,l),
(338,177,l),
(135,730,l),
(15,730,l),
(283,0,l)
);
}
);
width = 1070;
}
);
metricLeft = "=V";
metricRight = "=|";
unicode = 87;
},
{
color = 4;
glyphname = X;
kernLeft = X;
kernRight = X;
lastChange = "2026-07-05 07:39:55 +0000";
layers = (
{
background = {
shapes = (
{
closed = 0;
nodes = (
(628,730,l),
(604,730,l),
(36,0,l),
(61,0,l),
(620,718,l)
);
},
{
closed = 0;
nodes = (
(44,730,l),
(68,730,l),
(636,0,l),
(611,0,l),
(52,718,l)
);
}
);
};
layerId = m01;
metricLeft = "=|K*2";
shapes = (
{
closed = 1;
nodes = (
(61,0,l),
(335,352,l),
(337,352,l),
(611,0,l),
(636,0,l),
(348,369,l),
(629,730,l),
(604,730,l),
(337,387,l),
(335,387,l),
(68,730,l),
(43,730,l),
(324,369,l),
(36,0,l)
);
}
);
width = 672;
},
{
layerId = m005;
metricLeft = "=|K*2.6";
shapes = (
{
closed = 1;
nodes = (
(151,0,l),
(323,303,l),
(325,303,l),
(497,0,l),
(619,0,l),
(410,367,l),
(617,730,l),
(495,730,l),
(325,430,l),
(323,430,l),
(154,730,l),
(32,730,l),
(239,367,l),
(29,0,l)
);
}
);
width = 648;
},
{
layerId = m006;
metricLeft = "=|K*4";
shapes = (
{
closed = 1;
nodes = (
(246,0,l),
(344,255,l),
(346,255,l),
(444,0,l),
(670,0,l),
(500,365,l),
(670,730,l),
(444,730,l),
(346,475,l),
(344,475,l),
(246,730,l),
(20,730,l),
(190,365,l),
(20,0,l)
);
}
);
width = 690;
},
{
background = {
shapes = (
{
closed = 1;
nodes = (
(46,0,l),
(547,730,l),
(524,730,l),
(22,0,l)
);
},
{
closed = 1;
nodes = (
(552,0,l),
(50,730,l),
(27,730,l),
(528,0,l)
);
}
);
};
layerId = m004;
metricLeft = "=|K*1.2";
name = "Thin F2";
shapes = (
{
closed = 1;
nodes = (
(46,0,l),
(286,351,l),
(288,351,l),
(528,0,l),
(552,0,l),
(299,368,l),
(547,730,l),
(523,730,l),
(288,385,l),
(286,385,l),
(51,730,l),
(27,730,l),
(275,368,l),
(22,0,l)
);
}
);
width = 574;
},
{
layerId = m003;
metricLeft = "=|K*4";
name = "Black F1";
shapes = (
{
closed = 1;
nodes = (
(250,0,l),
(369,245,l),
(371,245,l),
(490,0,l),
(720,0,l),
(520,365,l),
(720,730,l),
(490,730,l),
(371,485,l),
(369,485,l),
(250,730,l),
(20,730,l),
(220,365,l),
(20,0,l)
);
}
);
width = 740;
},
{
layerId = m002;
metricLeft = "=|K*3";
name = "Medium F1";
shapes = (
{
closed = 1;
nodes = (
(159,0,l),
(357,299,l),
(359,299,l),
(557,0,l),
(683,0,l),
(434,367,l),
(679,730,l),
(553,730,l),
(359,436,l),
(357,436,l),
(163,730,l),
(37,730,l),
(282,367,l),
(33,0,l)
);
}
);
width = 716;
}
);
metricLeft = "=|K*2";
metricRight = "=|";
unicode = 88;
},
{
color = 4;
glyphname = Y;
kernLeft = Y;
kernRight = Y;
lastChange = "2026-07-05 07:40:57 +0000";
layers = (
{
layerId = m01;
shapes = (
{
closed = 1;
nodes = (
(353,0,l),
(353,338,l),
(684,730,l),
(658,730,l),
(345,359,l),
(343,359,l),
(30,730,l),
(4,730,l),
(335,338,l),
(335,0,l)
);
}
);
width = 688;
},
{
layerId = m002;
shapes = (
{
closed = 1;
nodes = (
(424,0,l),
(424,309,l),
(733,730,l),
(605,730,l),
(369,406,l),
(367,406,l),
(131,730,l),
(3,730,l),
(312,309,l),
(312,0,l)
);
}
);
width = 736;
},
{
layerId = m003;
shapes = (
{
closed = 1;
nodes = (
(496,0,l),
(496,280,l),
(782,730,l),
(562,730,l),
(393,450,l),
(391,450,l),
(222,730,l),
(2,730,l),
(288,280,l),
(288,0,l)
);
}
);
width = 784;
},
{
layerId = m004;
shapes = (
{
closed = 1;
nodes = (
(313,0,l),
(313,297,l),
(604,730,l),
(580,730,l),
(305,321,l),
(303,321,l),
(28,730,l),
(4,730,l),
(295,297,l),
(295,0,l)
);
}
);
width = 608;
},
{
layerId = m005;
shapes = (
{
closed = 1;
nodes = (
(379,0,l),
(379,274,l),
(643,730,l),
(517,730,l),
(324,393,l),
(322,393,l),
(129,730,l),
(3,730,l),
(267,274,l),
(267,0,l)
);
}
);
width = 646;
},
{
layerId = m006;
shapes = (
{
closed = 1;
nodes = (
(446,0,l),
(446,250,l),
(682,730,l),
(462,730,l),
(343,420,l),
(341,420,l),
(222,730,l),
(2,730,l),
(238,250,l),
(238,0,l)
);
}
);
width = 684;
}
);
metricLeft = "=V*.2";
metricRight = "=|";
unicode = 89;
},
{
color = 4;
glyphname = Z;
kernLeft = Z;
kernRight = Z;
lastChange = "2026-07-05 07:39:25 +0000";
layers = (
{
layerId = m01;
shapes = (
{
closed = 1;
nodes = (
(512,0,l),
(512,20,l),
(96,20,l),
(96,22,l),
(512,710,l),
(512,730,l),
(72,730,l),
(72,710,l),
(488,710,l),
(488,708,l),
(72,20,l),
(72,0,l)
);
}
);
width = 584;
},
{
layerId = m002;
shapes = (
{
closed = 1;
nodes = (
(540,0,l),
(540,98,l),
(192,98,l),
(192,100,l),
(540,632,l),
(540,730,l),
(60,730,l),
(60,632,l),
(408,632,l),
(408,630,l),
(60,98,l),
(60,0,l)
);
}
);
width = 600;
},
{
layerId = m003;
shapes = (
{
closed = 1;
nodes = (
(568,0,l),
(568,175,l),
(284,175,l),
(284,177,l),
(568,555,l),
(568,730,l),
(48,730,l),
(48,555,l),
(332,555,l),
(332,553,l),
(48,175,l),
(48,0,l)
);
}
);
width = 616;
},
{
layerId = m004;
shapes = (
{
closed = 1;
nodes = (
(552,0,l),
(552,20,l),
(97,20,l),
(97,22,l),
(552,710,l),
(552,730,l),
(72,730,l),
(72,710,l),
(527,710,l),
(527,708,l),
(72,20,l),
(72,0,l)
);
}
);
width = 624;
},
{
layerId = m005;
shapes = (
{
closed = 1;
nodes = (
(570,0,l),
(570,98,l),
(192,98,l),
(192,100,l),
(570,632,l),
(570,730,l),
(60,730,l),
(60,632,l),
(438,632,l),
(438,630,l),
(60,98,l),
(60,0,l)
);
}
);
width = 630;
},
{
layerId = m006;
shapes = (
{
closed = 1;
nodes = (
(588,0,l),
(588,175,l),
(288,175,l),
(288,177,l),
(588,555,l),
(588,730,l),
(48,730,l),
(48,555,l),
(348,555,l),
(348,553,l),
(48,175,l),
(48,0,l)
);
}
);
width = 636;
},
{
associatedMasterId = m006;
layerId = "B65A32CE-FC06-4A51-973E-96E9FD023277";
name = "Jul 2, 26 at 13:22";
shapes = (
{
closed = 1;
nodes = (
(568,0,l),
(568,175,l),
(284,175,l),
(284,177,l),
(568,555,l),
(568,730,l),
(48,730,l),
(48,555,l),
(332,555,l),
(332,553,l),
(48,175,l),
(48,0,l)
);
}
);
width = 616;
},
{
associatedMasterId = m005;
layerId = "077951FF-F023-4F11-B14B-82DEFD11EC52";
name = "Jul 2, 26 at 13:22";
shapes = (
{
closed = 1;
nodes = (
(536,0,l),
(536,98,l),
(188,98,l),
(188,100,l),
(536,632,l),
(536,730,l),
(56,730,l),
(56,632,l),
(404,632,l),
(404,630,l),
(56,98,l),
(56,0,l)
);
}
);
width = 592;
},
{
associatedMasterId = m004;
layerId = "2F6DE566-CC26-4FC9-B211-0E12642E4052";
name = "Jul 2, 26 at 13:22";
shapes = (
{
closed = 1;
nodes = (
(504,0,l),
(504,20,l),
(88,20,l),
(88,22,l),
(504,710,l),
(504,730,l),
(64,730,l),
(64,710,l),
(480,710,l),
(480,708,l),
(64,20,l),
(64,0,l)
);
}
);
width = 568;
}
);
metricLeft = "=H*.8";
metricRight = "=|";
unicode = 90;
},
{
color = 4;
glyphname = a;
kernLeft = o;
kernRight = u;
lastChange = "2026-07-05 08:33:27 +0000";
layers = (
{
layerId = m01;
shapes = (
{
closed = 1;
nodes = (
(430,-10,o),
(521,46,o),
(561,144,c),
(563,144,l),
(563,0,l),
(583,0,l),
(583,520,l),
(583,520,l),
(583,520,l),
(583,520,l),
(563,520,l),
(563,520,l),
(563,520,l),
(563,520,l),
(563,376,l),
(561,376,l),
(521,474,o),
(430,530,o),
(313,530,cs),
(151,530,o),
(43,422,o),
(43,260,cs),
(43,98,o),
(151,-10,o),
(313,-10,cs)
);
},
{
closed = 1;
nodes = (
(162,10,o),
(63,109,o),
(63,260,cs),
(63,411,o),
(162,510,o),
(313,510,cs),
(464,510,o),
(563,411,o),
(563,260,c),
(563,260,l),
(563,109,o),
(464,10,o),
(313,10,cs)
);
}
);
width = 669;
},
{
associatedMasterId = m01;
attr = {
coordinates = (
200,
200
);
};
layerId = "46F1A50B-7C0C-4B23-8733-B6799256F0FB";
name = "Jun 20, 26 at 14:30";
shapes = (
{
closed = 1;
nodes = (
(416,-10,o),
(507,38,o),
(546,116,c),
(548,116,l),
(548,0,l),
(589,0,l),
(589,520,l),
(589,520,l),
(589,520,l),
(589,520,l),
(546,520,l),
(546,520,l),
(546,520,l),
(546,520,l),
(546,404,l),
(544,404,l),
(506,482,o),
(416,530,o),
(309,530,cs),
(148,530,o),
(41,422,o),
(41,260,cs),
(41,98,o),
(148,-10,o),
(309,-10,cs)
);
},
{
closed = 1;
nodes = (
(175,27,o),
(83,119,o),
(83,260,cs),
(83,401,o),
(175,494,o),
(315,494,cs),
(454,494,o),
(546,401,o),
(546,260,c),
(546,260,l),
(546,119,o),
(454,27,o),
(315,27,cs)
);
}
);
width = 672;
},
{
associatedMasterId = m01;
attr = {
axisRules = (
{
},
{
max = 150;
min = 100;
}
);
};
layerId = "C38710FC-DE03-4402-A680-1BD323331CB3";
name = "Thin F1 [100‹wd‹150] Jun 15, 26 at 20:31";
shapes = (
{
closed = 1;
nodes = (
(311,-10,o),
(391,37,o),
(431,108,c),
(433,108,l),
(433,0,l),
(453,0,l),
(453,325,ls),
(453,476,o),
(405,530,o),
(271,530,cs),
(200,530,o),
(130,515,o),
(65,484,c),
(74,466,l),
(137,496,o),
(202,510,o),
(271,510,cs),
(393,510,o),
(433,465,o),
(433,325,c),
(337,325,ls),
(149,325,o),
(43,264,o),
(43,145,cs),
(43,50,o),
(113,-10,o),
(219,-10,cs)
);
},
{
closed = 1;
nodes = (
(123,10,o),
(63,62,o),
(63,145,cs),
(63,250,o),
(157,305,o),
(337,305,cs),
(433,305,l),
(433,168,l),
(413,75,o),
(325,10,o),
(219,10,cs)
);
}
);
width = 539;
},
{
associatedMasterId = m01;
attr = {
axisRules = (
{
},
{
max = 150;
min = 100;
}
);
coordinates = (
200,
200
);
};
layerId = "0F8FA687-1F62-46B7-84B5-53EEADDCFC1A";
name = "Thin F1 [100‹wd‹120] Jun 13, 26 at 11:54";
shapes = (
{
closed = 1;
nodes = (
(301,-10,o),
(380,29,o),
(420,89,c),
(422,89,l),
(422,0,l),
(462,0,l),
(462,326,ls),
(462,477,o),
(413,530,o),
(275,530,cs),
(202,530,o),
(128,515,o),
(63,485,c),
(74,448,l),
(136,478,o),
(203,493,o),
(271,493,cs),
(383,493,o),
(420,453,o),
(420,329,c),
(330,329,ls),
(146,329,o),
(41,267,o),
(41,147,cs),
(41,51,o),
(110,-10,o),
(216,-10,cs)
);
},
{
closed = 1;
nodes = (
(138,29,o),
(83,75,o),
(83,150,cs),
(83,244,o),
(169,293,o),
(334,293,cs),
(420,293,l),
(420,171,l),
(401,88,o),
(321,29,o),
(225,29,cs)
);
}
);
width = 545;
},
{
layerId = m002;
shapes = (
{
closed = 1;
nodes = (
(381,-10,o),
(461,22,o),
(500,72,c),
(502,72,l),
(502,0,l),
(606,0,l),
(606,520,l),
(606,520,l),
(606,520,l),
(606,520,l),
(497,520,l),
(497,520,l),
(497,520,l),
(497,520,l),
(497,448,l),
(495,448,l),
(458,498,o),
(381,530,o),
(296,530,cs),
(140,530,o),
(36,422,o),
(36,260,cs),
(36,98,o),
(140,-10,o),
(296,-10,cs)
);
},
{
closed = 1;
nodes = (
(216,80,o),
(145,152,o),
(145,260,cs),
(145,368,o),
(216,440,o),
(321,440,cs),
(426,440,o),
(497,368,o),
(497,260,c),
(497,260,l),
(497,152,o),
(426,80,o),
(321,80,cs)
);
}
);
width = 678;
},
{
associatedMasterId = m002;
attr = {
axisRules = (
{
},
{
max = 150;
min = 100;
}
);
};
layerId = "ED553DDA-DF08-4367-81EA-A36C5E5BBDAF";
name = "Jun 13, 26 at 11:16";
shapes = (
{
closed = 1;
nodes = (
(280,-10,o),
(349,22,o),
(386,72,c),
(388,72,l),
(388,0,l),
(491,0,l),
(491,328,ls),
(491,478,o),
(439,530,o),
(288,530,cs),
(209,530,o),
(123,516,o),
(57,489,c),
(73,393,l),
(135,424,o),
(206,440,o),
(272,440,cs),
(355,440,o),
(383,414,o),
(383,339,c),
(308,339,ls),
(134,340,o),
(36,274,o),
(36,154,cs),
(36,55,o),
(103,-10,o),
(207,-10,cs)
);
},
{
closed = 1;
nodes = (
(182,84,o),
(144,114,o),
(144,163,cs),
(144,227,o),
(204,259,o),
(324,259,cs),
(383,259,l),
(383,180,l),
(366,122,o),
(311,84,o),
(244,84,cs)
);
}
);
width = 563;
},
{
layerId = m003;
shapes = (
{
closed = 1;
nodes = (
(328,-10,o),
(397,17,o),
(439,60,c),
(441,60,l),
(441,0,l),
(629,0,l),
(629,520,l),
(629,520,l),
(629,520,l),
(629,520,l),
(431,520,l),
(431,520,l),
(431,520,l),
(431,520,l),
(431,460,l),
(429,460,l),
(387,505,o),
(326,530,o),
(259,530,cs),
(121,530,o),
(29,422,o),
(29,260,cs),
(29,98,o),
(121,-10,o),
(259,-10,cs)
);
},
{
closed = 1;
nodes = (
(269,157,o),
(227,200,o),
(227,260,cs),
(227,320,o),
(269,363,o),
(329,363,cs),
(389,363,o),
(431,320,o),
(431,260,c),
(431,260,l),
(431,200,o),
(389,157,o),
(329,157,cs)
);
}
);
width = 687;
},
{
associatedMasterId = m003;
attr = {
axisRules = (
{
},
{
max = 150;
min = 100;
}
);
};
layerId = "A8E37540-B84B-445C-A393-7F86791583F9";
name = "Jun 13, 26 at 11:16";
shapes = (
{
closed = 1;
nodes = (
(242,-10,o),
(306,18,o),
(341,60,c),
(343,60,l),
(343,0,l),
(529,0,l),
(529,330,ls),
(529,479,o),
(472,530,o),
(305,530,cs),
(217,530,o),
(115,516,o),
(48,493,c),
(70,353,l),
(130,375,o),
(210,390,o),
(273,390,cs),
(323,390,o),
(333,381,o),
(333,338,c),
(278,338,ls),
(118,338,o),
(29,272,o),
(29,153,cs),
(29,55,o),
(90,-10,o),
(182,-10,cs)
);
},
{
closed = 1;
nodes = (
(235,133,o),
(215,150,o),
(215,178,cs),
(215,215,o),
(244,231,o),
(311,231,cs),
(333,231,l),
(333,171,l),
(319,146,o),
(297,133,o),
(268,133,cs)
);
}
);
width = 587;
},
{
layerId = m004;
name = "Thin F2";
shapes = (
{
closed = 1;
nodes = (
(385,-10,o),
(470,35,o),
(511,108,c),
(513,108,l),
(513,0,l),
(533,0,l),
(533,520,l),
(533,520,l),
(533,520,l),
(533,520,l),
(513,520,l),
(513,520,l),
(513,520,l),
(513,520,l),
(513,412,l),
(511,412,l),
(470,485,o),
(385,530,o),
(289,530,cs),
(141,530,o),
(43,422,o),
(43,260,cs),
(43,98,o),
(141,-10,o),
(289,-10,cs)
);
},
{
closed = 1;
nodes = (
(152,10,o),
(63,108,o),
(63,260,cs),
(63,412,o),
(152,510,o),
(289,510,cs),
(402,510,o),
(488,451,o),
(513,355,c),
(513,165,l),
(488,69,o),
(402,10,o),
(289,10,cs)
);
}
);
width = 619;
},
{
associatedMasterId = m004;
attr = {
coordinates = (
200,
100
);
};
background = {
shapes = (
{
closed = 1;
nodes = (
(374,-10,o),
(456,29,o),
(497,89,c),
(499,89,l),
(499,0,l),
(541,0,l),
(541,520,l),
(541,520,l),
(541,520,l),
(541,520,l),
(498,520,l),
(498,520,l),
(498,520,l),
(498,520,l),
(498,431,l),
(496,431,l),
(456,491,o),
(374,530,o),
(285,530,cs),
(138,530,o),
(41,423,o),
(41,260,cs),
(41,97,o),
(138,-10,o),
(285,-10,cs)
);
},
{
closed = 1;
nodes = (
(165,27,o),
(83,117,o),
(83,260,cs),
(83,403,o),
(165,494,o),
(292,494,cs),
(397,494,o),
(476,438,o),
(499,348,c),
(499,173,l),
(476,83,o),
(397,27,o),
(292,27,cs)
);
}
);
};
layerId = "4542052A-5F31-4362-B451-0B9720437F60";
name = "Jun 20, 26 at 14:28";
shapes = (
{
closed = 1;
nodes = (
(374,-10,o),
(457,29,o),
(498,89,c),
(500,89,l),
(500,0,l),
(541,0,l),
(541,520,l),
(541,520,l),
(541,520,l),
(541,520,l),
(499,520,l),
(499,520,l),
(499,520,l),
(499,520,l),
(499,431,l),
(497,431,l),
(457,491,o),
(374,530,o),
(285,530,cs),
(138,530,o),
(41,423,o),
(41,260,cs),
(41,97,o),
(138,-10,o),
(285,-10,cs)
);
},
{
closed = 1;
nodes = (
(165,28,o),
(83,118,o),
(83,260,cs),
(83,402,o),
(165,493,o),
(292,493,cs),
(396,493,o),
(476,436,o),
(499,347,c),
(499,173,l),
(476,84,o),
(396,28,o),
(292,28,cs)
);
}
);
width = 624;
},
{
associatedMasterId = m004;
attr = {
axisRules = (
{
},
{
max = 150;
min = 100;
}
);
};
layerId = "2F6DAC94-11DA-4706-9407-E7CE0C8C551C";
metricLeft = "=o";
name = "Jun 13, 26 at 10:59";
shapes = (
{
closed = 1;
nodes = (
(296,-10,o),
(373,36,o),
(411,108,c),
(413,108,l),
(413,0,l),
(433,0,l),
(433,315,ls),
(433,471,o),
(385,530,o),
(259,530,cs),
(193,530,o),
(122,514,o),
(63,484,c),
(72,466,l),
(129,495,o),
(195,510,o),
(259,510,cs),
(373,510,o),
(413,461,o),
(413,315,c),
(342,315,ls),
(143,315,o),
(43,263,o),
(43,145,cs),
(43,51,o),
(109,-10,o),
(209,-10,cs)
);
},
{
closed = 1;
nodes = (
(119,10,o),
(63,62,o),
(63,145,cs),
(63,248,o),
(151,295,o),
(342,295,cs),
(413,295,l),
(413,170,l),
(394,75,o),
(310,10,o),
(209,10,cs)
);
}
);
width = 519;
},
{
associatedMasterId = m004;
attr = {
axisRules = (
{
},
{
max = 150;
min = 100;
}
);
coordinates = (
200,
100
);
};
layerId = "AB5C3998-141E-4435-A4D0-70B56BE0E087";
name = "Jun 13, 26 at 12:15";
shapes = (
{
closed = 1;
nodes = (
(287,-10,o),
(364,29,o),
(401,89,c),
(403,89,l),
(403,0,l),
(444,0,l),
(444,317,ls),
(444,473,o),
(395,530,o),
(264,530,cs),
(195,530,o),
(121,514,o),
(61,485,c),
(73,450,l),
(131,478,o),
(197,493,o),
(260,493,cs),
(366,493,o),
(402,450,o),
(402,319,c),
(333,319,ls),
(141,319,o),
(41,263,o),
(41,145,cs),
(41,51,o),
(107,-10,o),
(207,-10,cs)
);
},
{
closed = 1;
nodes = (
(133,30,o),
(83,75,o),
(83,149,cs),
(83,242,o),
(163,284,o),
(337,284,cs),
(402,284,l),
(402,173,l),
(383,87,o),
(307,30,o),
(214,30,cs)
);
}
);
width = 527;
},
{
layerId = m005;
shapes = (
{
closed = 1;
nodes = (
(349,-10,o),
(416,20,o),
(460,72,c),
(462,72,l),
(462,0,l),
(566,0,l),
(566,520,l),
(566,520,l),
(566,520,l),
(566,520,l),
(457,520,l),
(457,520,l),
(457,520,l),
(457,520,l),
(457,448,l),
(455,448,l),
(412,501,o),
(348,530,o),
(272,530,cs),
(128,530,o),
(36,425,o),
(36,260,cs),
(36,95,o),
(128,-10,o),
(272,-10,cs)
);
},
{
closed = 1;
nodes = (
(203,80,o),
(145,147,o),
(145,260,cs),
(145,373,o),
(203,440,o),
(301,440,cs),
(380,440,o),
(439,396,o),
(457,324,c),
(457,196,l),
(439,124,o),
(380,80,o),
(301,80,cs)
);
}
);
width = 638;
},
{
layerId = m006;
name = "Black F2";
shapes = (
{
closed = 1;
nodes = (
(316,-10,o),
(361,10,o),
(409,60,c),
(411,60,l),
(411,0,l),
(599,0,l),
(599,520,l),
(599,520,l),
(599,520,l),
(599,520,l),
(401,520,l),
(401,520,l),
(401,520,l),
(401,520,l),
(401,460,l),
(399,460,l),
(353,511,o),
(314,530,o),
(254,530,cs),
(114,530,o),
(29,428,o),
(29,260,cs),
(29,92,o),
(114,-10,o),
(254,-10,cs)
);
},
{
closed = 1;
nodes = (
(256,142,o),
(227,181,o),
(227,260,cs),
(227,339,o),
(256,378,o),
(314,378,cs),
(356,378,o),
(391,358,o),
(401,327,c),
(401,193,l),
(391,162,o),
(356,142,o),
(314,142,cs)
);
}
);
width = 657;
},
{
associatedMasterId = m006;
attr = {
axisRules = (
{
},
{
max = 150;
min = 100;
}
);
};
layerId = "C7D51260-6CEC-42F1-8753-3096B68C9C5C";
name = "Jun 13, 26 at 10:57";
shapes = (
{
closed = 1;
nodes = (
(236,-10,o),
(297,18,o),
(331,60,c),
(333,60,l),
(333,0,l),
(519,0,l),
(519,330,ls),
(519,478,o),
(462,530,o),
(300,530,cs),
(215,530,o),
(117,516,o),
(48,493,c),
(70,353,l),
(133,375,o),
(210,390,o),
(265,390,cs),
(313,390,o),
(323,380,o),
(323,328,c),
(270,328,ls),
(120,328,o),
(29,258,o),
(29,143,cs),
(29,52,o),
(89,-10,o),
(177,-10,cs)
);
},
{
closed = 1;
nodes = (
(233,133,o),
(215,149,o),
(215,178,cs),
(215,214,o),
(243,231,o),
(303,231,cs),
(323,231,l),
(323,171,l),
(310,145,o),
(291,133,o),
(264,133,cs)
);
}
);
width = 577;
},
{
associatedMasterId = m005;
attr = {
axisRules = (
{
},
{
max = 150;
min = 100;
}
);
};
background = {
shapes = (
{
closed = 1;
nodes = (
(270,-10,o),
(335,21,o),
(371,72,c),
(373,72,l),
(373,0,l),
(476,0,l),
(476,323,ls),
(476,474,o),
(423,530,o),
(280,530,cs),
(200,530,o),
(121,512,o),
(56,479,c),
(74,391,l),
(137,424,o),
(200,440,o),
(262,440,cs),
(342,440,o),
(368,414,o),
(368,332,c),
(306,332,ls),
(134,332,o),
(36,264,o),
(36,145,cs),
(36,50,o),
(99,-10,o),
(199,-10,cs)
);
},
{
closed = 1;
nodes = (
(173,88,o),
(144,112,o),
(144,159,cs),
(144,223,o),
(200,252,o),
(323,252,cs),
(368,252,l),
(368,183,l),
(351,125,o),
(296,88,o),
(227,88,cs)
);
}
);
};
layerId = "F521AC3A-008E-4F9D-B9B8-0AF46135A852";
name = "Medium F1 [100‹wd‹150] Jul 5, 26 at 17:23";
shapes = (
{
closed = 1;
nodes = (
(270,-10,o),
(335,21,o),
(371,72,c),
(373,72,l),
(373,0,l),
(476,0,l),
(476,323,ls),
(476,477,o),
(426,530,o),
(280,530,cs),
(201,530,o),
(117,515,o),
(56,489,c),
(74,401,l),
(135,426,o),
(201,440,o),
(262,440,cs),
(344,440,o),
(368,415,o),
(368,332,c),
(306,332,ls),
(134,332,o),
(36,264,o),
(36,145,cs),
(36,50,o),
(99,-10,o),
(199,-10,cs)
);
},
{
closed = 1;
nodes = (
(173,88,o),
(144,112,o),
(144,159,cs),
(144,223,o),
(200,252,o),
(323,252,cs),
(368,252,l),
(368,183,l),
(351,125,o),
(296,88,o),
(227,88,cs)
);
}
);
width = 548;
}
);
metricLeft = "=o";
metricRight = "=|h";
unicode = 97;
},
{
color = 4;
glyphname = b;
kernLeft = H;
kernRight = o;
lastChange = "2026-07-05 14:29:32 +0000";
layers = (
{
layerId = m01;
shapes = (
{
closed = 1;
nodes = (
(518,-10,o),
(626,98,o),
(626,260,cs),
(626,422,o),
(518,530,o),
(356,530,cs),
(239,530,o),
(148,474,o),
(108,376,c),
(106,376,l),
(106,770,l),
(86,770,l),
(86,0,l),
(106,0,l),
(106,144,l),
(108,144,l),
(148,46,o),
(239,-10,o),
(356,-10,cs)
);
},
{
closed = 1;
nodes = (
(205,10,o),
(106,109,o),
(106,260,c),
(106,260,l),
(106,411,o),
(205,510,o),
(356,510,cs),
(507,510,o),
(606,411,o),
(606,260,cs),
(606,109,o),
(507,10,o),
(356,10,cs)
);
}
);
width = 669;
},
{
associatedMasterId = m01;
attr = {
coordinates = (
200,
200
);
};
layerId = "46F1A50B-7C0C-4B23-8733-B6799256F0FB";
name = "Jun 20, 26 at 14:30";
shapes = (
{
closed = 1;
nodes = (
(524,-10,o),
(631,98,o),
(631,260,cs),
(631,422,o),
(524,530,o),
(364,530,cs),
(256,530,o),
(166,482,o),
(128,404,c),
(126,404,l),
(126,770,l),
(83,770,l),
(84,0,l),
(125,0,l),
(125,116,l),
(127,116,l),
(165,38,o),
(256,-10,o),
(364,-10,cs)
);
},
{
closed = 1;
nodes = (
(218,27,o),
(126,119,o),
(126,260,c),
(126,260,l),
(126,401,o),
(218,494,o),
(357,494,cs),
(497,494,o),
(589,401,o),
(589,260,cs),
(589,119,o),
(497,27,o),
(357,27,cs)
);
}
);
width = 672;
},
{
layerId = m002;
shapes = (
{
closed = 1;
nodes = (
(538,-10,o),
(642,98,o),
(642,260,cs),
(642,422,o),
(538,530,o),
(382,530,cs),
(297,530,o),
(220,498,o),
(183,448,c),
(181,448,l),
(181,770,l),
(72,770,l),
(72,0,l),
(176,0,l),
(176,72,l),
(178,72,l),
(217,22,o),
(297,-10,o),
(382,-10,cs)
);
},
{
closed = 1;
nodes = (
(252,80,o),
(181,152,o),
(181,260,c),
(181,260,l),
(181,368,o),
(252,440,o),
(357,440,cs),
(462,440,o),
(533,368,o),
(533,260,cs),
(533,152,o),
(462,80,o),
(357,80,cs)
);
}
);
width = 678;
},
{
layerId = m003;
shapes = (
{
closed = 1;
nodes = (
(566,-10,o),
(658,98,o),
(658,260,cs),
(658,422,o),
(566,530,o),
(428,530,cs),
(361,530,o),
(300,505,o),
(258,460,c),
(256,460,l),
(256,770,l),
(58,770,l),
(58,0,l),
(246,0,l),
(246,60,l),
(248,60,l),
(290,17,o),
(359,-10,o),
(428,-10,cs)
);
},
{
closed = 1;
nodes = (
(298,157,o),
(256,200,o),
(256,260,c),
(256,260,l),
(256,320,o),
(298,363,o),
(358,363,cs),
(418,363,o),
(460,320,o),
(460,260,cs),
(460,200,o),
(418,157,o),
(358,157,cs)
);
}
);
width = 687;
},
{
layerId = m004;
name = "Thin F2";
shapes = (
{
closed = 1;
nodes = (
(433,-10,o),
(516,97,o),
(516,260,cs),
(516,423,o),
(433,530,o),
(301,530,cs),
(217,530,o),
(145,485,o),
(108,412,c),
(106,412,l),
(106,770,l),
(86,770,l),
(86,0,l),
(106,0,l),
(106,108,l),
(108,108,l),
(145,35,o),
(217,-10,o),
(301,-10,cs)
);
},
{
closed = 1;
nodes = (
(206,10,o),
(128,73,o),
(106,168,c),
(106,352,l),
(128,447,o),
(206,510,o),
(301,510,cs),
(420,510,o),
(496,413,o),
(496,260,cs),
(496,107,o),
(420,10,o),
(301,10,cs)
);
}
);
width = 559;
},
{
layerId = m005;
shapes = (
{
closed = 1;
nodes = (
(480,-10,o),
(562,95,o),
(562,260,cs),
(562,425,o),
(480,530,o),
(350,530,cs),
(282,530,o),
(222,501,o),
(183,448,c),
(181,448,l),
(181,770,l),
(72,770,l),
(72,0,l),
(176,0,l),
(176,72,l),
(178,72,l),
(217,20,o),
(280,-10,o),
(350,-10,cs)
);
},
{
closed = 1;
nodes = (
(254,86,o),
(197,134,o),
(181,208,c),
(181,312,l),
(197,386,o),
(254,434,o),
(327,434,cs),
(409,434,o),
(453,373,o),
(453,260,cs),
(453,147,o),
(409,86,o),
(327,86,cs)
);
}
);
width = 598;
},
{
layerId = m006;
name = "Black F2";
shapes = (
{
closed = 1;
nodes = (
(527,-10,o),
(608,92,o),
(608,260,cs),
(608,428,o),
(527,530,o),
(395,530,cs),
(338,530,o),
(302,511,o),
(258,460,c),
(256,460,l),
(256,770,l),
(58,770,l),
(58,0,l),
(246,0,l),
(246,60,l),
(248,60,l),
(293,10,o),
(336,-10,o),
(395,-10,cs)
);
},
{
closed = 1;
nodes = (
(296,142,o),
(265,162,o),
(256,193,c),
(256,327,l),
(265,358,o),
(296,378,o),
(333,378,cs),
(384,378,o),
(410,339,o),
(410,260,cs),
(410,181,o),
(384,142,o),
(333,142,cs)
);
}
);
width = 637;
},
{
associatedMasterId = m004;
attr = {
coordinates = (
200,
100
);
};
layerId = "9ECECF33-0D80-4161-A09F-E5E90B007CD8";
name = "Jul 3, 26 at 20:59";
shapes = (
{
closed = 1;
nodes = (
(445,-10,o),
(528,97,o),
(528,260,cs),
(528,424,o),
(445,530,o),
(313,530,cs),
(236,530,o),
(165,494,o),
(127,431,c),
(125,431,l),
(125,770,l),
(83,770,l),
(83,0,l),
(124,0,l),
(124,89,l),
(126,89,l),
(163,28,o),
(234,-10,o),
(313,-10,cs)
);
},
{
closed = 1;
nodes = (
(218,29,o),
(145,89,o),
(125,178,c),
(125,342,l),
(145,431,o),
(218,491,o),
(308,491,cs),
(417,491,o),
(485,403,o),
(485,260,cs),
(485,117,o),
(417,29,o),
(308,29,cs)
);
}
);
width = 570;
}
);
metricLeft = "=h";
metricRight = "=o";
unicode = 98;
},
{
color = 4;
glyphname = c;
kernLeft = o;
kernRight = c;
lastChange = "2026-07-05 15:04:45 +0000";
layers = (
{
layerId = m01;
shapes = (
{
closed = 1;
nodes = (
(392,-20,o),
(462,-3,o),
(513,25,c),
(503,43,l),
(454,16,o),
(389,0,o),
(327,0,cs),
(170,0,o),
(63,105,o),
(63,260,cs),
(63,415,o),
(170,520,o),
(327,520,cs),
(389,520,o),
(454,504,o),
(503,477,c),
(513,495,l),
(462,523,o),
(392,540,o),
(327,540,cs),
(159,540,o),
(43,426,o),
(43,260,cs),
(43,94,o),
(159,-20,o),
(327,-20,cs)
);
}
);
width = 582;
},
{
layerId = m002;
shapes = (
{
closed = 1;
nodes = (
(410,-20,o),
(474,-5,o),
(526,23,c),
(504,113,l),
(448,88,o),
(396,76,o),
(346,76,cs),
(224,76,o),
(148,147,o),
(148,260,cs),
(148,373,o),
(224,444,o),
(346,444,cs),
(396,444,o),
(448,432,o),
(504,407,c),
(526,497,l),
(474,525,o),
(410,540,o),
(340,540,cs),
(153,540,o),
(36,432,o),
(36,260,cs),
(36,88,o),
(153,-20,o),
(340,-20,cs)
);
}
);
width = 584;
},
{
layerId = m003;
shapes = (
{
closed = 1;
nodes = (
(427,-20,o),
(486,-7,o),
(539,21,c),
(507,181,l),
(450,159,o),
(407,150,o),
(365,150,cs),
(279,150,o),
(233,188,o),
(233,260,cs),
(233,332,o),
(279,370,o),
(365,370,cs),
(407,370,o),
(450,361,o),
(507,339,c),
(539,499,l),
(486,527,o),
(427,540,o),
(353,540,cs),
(147,540,o),
(29,438,o),
(29,260,cs),
(29,82,o),
(147,-20,o),
(353,-20,cs)
);
}
);
width = 585;
},
{
layerId = m004;
shapes = (
{
closed = 1;
nodes = (
(347,-20,o),
(408,-3,o),
(453,25,c),
(442,42,l),
(400,16,o),
(344,0,o),
(291,0,cs),
(157,0,o),
(63,105,o),
(63,260,cs),
(63,415,o),
(157,520,o),
(291,520,cs),
(344,520,o),
(400,504,o),
(442,478,c),
(453,495,l),
(408,523,o),
(347,540,o),
(291,540,cs),
(145,540,o),
(43,425,o),
(43,260,cs),
(43,95,o),
(145,-20,o),
(291,-20,cs)
);
}
);
width = 522;
},
{
layerId = m005;
shapes = (
{
closed = 1;
nodes = (
(371,-20,o),
(429,-5,o),
(476,23,c),
(454,113,l),
(406,88,o),
(361,76,o),
(317,76,cs),
(211,76,o),
(146,146,o),
(146,260,cs),
(146,374,o),
(211,444,o),
(317,444,cs),
(361,444,o),
(406,432,o),
(454,407,c),
(476,497,l),
(429,525,o),
(371,540,o),
(309,540,cs),
(141,540,o),
(36,432,o),
(36,260,cs),
(36,88,o),
(141,-20,o),
(309,-20,cs)
);
}
);
width = 534;
},
{
background = {
shapes = (
{
closed = 1;
nodes = (
(396,-20,o),
(450,-7,o),
(499,21,c),
(468,181,l),
(418,159,o),
(382,150,o),
(342,150,cs),
(263,150,o),
(225,186,o),
(225,260,cs),
(225,334,o),
(263,370,o),
(342,370,cs),
(382,370,o),
(418,361,o),
(468,339,c),
(499,499,l),
(450,527,o),
(396,540,o),
(328,540,cs),
(138,540,o),
(29,438,o),
(29,260,cs),
(29,82,o),
(138,-20,o),
(328,-20,cs)
);
}
);
};
layerId = m006;
shapes = (
{
closed = 1;
nodes = (
(396,-20,o),
(450,-7,o),
(499,21,c),
(467,181,l),
(418,159,o),
(383,150,o),
(344,150,cs),
(266,150,o),
(229,185,o),
(229,260,cs),
(229,335,o),
(266,370,o),
(344,370,cs),
(383,370,o),
(418,361,o),
(467,339,c),
(499,499,l),
(450,527,o),
(396,540,o),
(328,540,cs),
(139,540,o),
(29,437,o),
(29,260,cs),
(29,83,o),
(139,-20,o),
(328,-20,cs)
);
}
);
width = 545;
}
);
metricLeft = "=o";
metricRight = "=|*1.6";
unicode = 99;
},
{
color = 4;
glyphname = d;
kernLeft = o;
kernRight = H;
lastChange = "2026-07-05 14:35:27 +0000";
layers = (
{
layerId = m01;
shapes = (
{
closed = 1;
nodes = (
(430,-10,o),
(521,46,o),
(561,144,c),
(563,144,l),
(563,0,l),
(583,0,l),
(583,770,l),
(563,770,l),
(563,376,l),
(561,376,l),
(521,474,o),
(430,530,o),
(313,530,cs),
(151,530,o),
(43,422,o),
(43,260,cs),
(43,98,o),
(151,-10,o),
(313,-10,cs)
);
},
{
closed = 1;
nodes = (
(162,10,o),
(63,109,o),
(63,260,cs),
(63,411,o),
(162,510,o),
(313,510,cs),
(464,510,o),
(563,411,o),
(563,260,c),
(563,260,l),
(563,109,o),
(464,10,o),
(313,10,cs)
);
}
);
width = 669;
},
{
associatedMasterId = m01;
attr = {
coordinates = (
200,
200
);
};
layerId = "46F1A50B-7C0C-4B23-8733-B6799256F0FB";
name = "Jun 20, 26 at 14:30";
shapes = (
{
closed = 1;
nodes = (
(416,-10,o),
(507,38,o),
(546,116,c),
(548,116,l),
(548,0,l),
(589,0,l),
(589,770,l),
(546,770,l),
(546,404,l),
(544,404,l),
(506,482,o),
(416,530,o),
(309,530,cs),
(148,530,o),
(41,422,o),
(41,260,cs),
(41,98,o),
(148,-10,o),
(309,-10,cs)
);
},
{
closed = 1;
nodes = (
(175,27,o),
(83,119,o),
(83,260,cs),
(83,401,o),
(175,494,o),
(315,494,cs),
(454,494,o),
(546,401,o),
(546,260,c),
(546,260,l),
(546,119,o),
(454,27,o),
(315,27,cs)
);
}
);
width = 672;
},
{
layerId = m002;
shapes = (
{
closed = 1;
nodes = (
(381,-10,o),
(461,22,o),
(500,72,c),
(502,72,l),
(502,0,l),
(606,0,l),
(606,770,l),
(497,770,l),
(497,448,l),
(495,448,l),
(458,498,o),
(381,530,o),
(296,530,cs),
(140,530,o),
(36,422,o),
(36,260,cs),
(36,98,o),
(140,-10,o),
(296,-10,cs)
);
},
{
closed = 1;
nodes = (
(216,80,o),
(145,152,o),
(145,260,cs),
(145,368,o),
(216,440,o),
(321,440,cs),
(426,440,o),
(497,368,o),
(497,260,c),
(497,260,l),
(497,152,o),
(426,80,o),
(321,80,cs)
);
}
);
width = 678;
},
{
layerId = m003;
shapes = (
{
closed = 1;
nodes = (
(328,-10,o),
(397,17,o),
(439,60,c),
(441,60,l),
(441,0,l),
(629,0,l),
(629,770,l),
(431,770,l),
(431,460,l),
(429,460,l),
(387,505,o),
(326,530,o),
(259,530,cs),
(121,530,o),
(29,422,o),
(29,260,cs),
(29,98,o),
(121,-10,o),
(259,-10,cs)
);
},
{
closed = 1;
nodes = (
(269,157,o),
(227,200,o),
(227,260,cs),
(227,320,o),
(269,363,o),
(329,363,cs),
(389,363,o),
(431,320,o),
(431,260,c),
(431,260,l),
(431,200,o),
(389,157,o),
(329,157,cs)
);
}
);
width = 687;
},
{
layerId = m004;
name = "Thin F2";
shapes = (
{
closed = 1;
nodes = (
(342,-10,o),
(414,35,o),
(451,108,c),
(453,108,l),
(453,0,l),
(473,0,l),
(473,770,l),
(453,770,l),
(453,412,l),
(451,412,l),
(414,485,o),
(342,530,o),
(258,530,cs),
(126,530,o),
(43,423,o),
(43,260,cs),
(43,97,o),
(126,-10,o),
(258,-10,cs)
);
},
{
closed = 1;
nodes = (
(139,10,o),
(63,107,o),
(63,260,cs),
(63,413,o),
(139,510,o),
(258,510,cs),
(353,510,o),
(431,447,o),
(453,352,c),
(453,168,l),
(431,73,o),
(353,10,o),
(258,10,cs)
);
}
);
width = 559;
},
{
associatedMasterId = m004;
attr = {
coordinates = (
200,
100
);
};
layerId = "4542052A-5F31-4362-B451-0B9720437F60";
name = "Jun 20, 26 at 14:28";
shapes = (
{
closed = 1;
nodes = (
(335,-10,o),
(406,28,o),
(443,89,c),
(445,89,l),
(445,0,l),
(486,0,l),
(486,770,l),
(444,770,l),
(444,431,l),
(442,431,l),
(404,494,o),
(333,530,o),
(256,530,cs),
(124,530,o),
(41,424,o),
(41,260,cs),
(41,97,o),
(124,-10,o),
(256,-10,cs)
);
},
{
closed = 1;
nodes = (
(152,29,o),
(84,117,o),
(84,260,cs),
(84,403,o),
(152,491,o),
(261,491,cs),
(351,491,o),
(424,431,o),
(444,342,c),
(444,178,l),
(424,89,o),
(351,29,o),
(261,29,cs)
);
}
);
width = 569;
},
{
layerId = m005;
shapes = (
{
closed = 1;
nodes = (
(318,-10,o),
(381,20,o),
(420,72,c),
(422,72,l),
(422,0,l),
(526,0,l),
(526,770,l),
(417,770,l),
(417,448,l),
(415,448,l),
(376,501,o),
(316,530,o),
(248,530,cs),
(118,530,o),
(36,425,o),
(36,260,cs),
(36,95,o),
(118,-10,o),
(248,-10,cs)
);
},
{
closed = 1;
nodes = (
(189,86,o),
(145,147,o),
(145,260,cs),
(145,373,o),
(189,434,o),
(271,434,cs),
(344,434,o),
(401,386,o),
(417,312,c),
(417,208,l),
(401,134,o),
(344,86,o),
(271,86,cs)
);
}
);
width = 598;
},
{
layerId = m006;
name = "Black F2";
shapes = (
{
closed = 1;
nodes = (
(301,-10,o),
(344,10,o),
(389,60,c),
(391,60,l),
(391,0,l),
(579,0,l),
(579,770,l),
(381,770,l),
(381,460,l),
(379,460,l),
(335,511,o),
(299,530,o),
(242,530,cs),
(110,530,o),
(29,428,o),
(29,260,cs),
(29,92,o),
(110,-10,o),
(242,-10,cs)
);
},
{
closed = 1;
nodes = (
(253,142,o),
(227,181,o),
(227,260,cs),
(227,339,o),
(253,378,o),
(304,378,cs),
(341,378,o),
(372,358,o),
(381,327,c),
(381,193,l),
(372,162,o),
(341,142,o),
(304,142,cs)
);
}
);
width = 637;
}
);
metricLeft = "=o";
metricRight = "=|h";
unicode = 100;
},
{
color = 4;
glyphname = e;
kernLeft = o;
kernRight = o;
lastChange = "2026-07-06 02:55:01 +0000";
layers = (
{
layerId = m01;
metricRight = "=|*.8";
shapes = (
{
closed = 1;
nodes = (
(414,-20,o),
(493,3,o),
(548,42,c),
(537,58,l),
(484,21,o),
(411,0,o),
(329,0,cs),
(157,0,o),
(63,92,o),
(63,260,c),
(63,260,l),
(63,428,o),
(150,520,o),
(308,520,cs),
(466,520,o),
(553,430,o),
(553,268,c),
(562,278,l),
(53,278,l),
(53,258,l),
(573,258,l),
(573,263,o),
(573,263,o),
(573,268,cs),
(573,441,o),
(477,540,o),
(308,540,cs),
(139,540,o),
(43,439,o),
(43,260,cs),
(43,81,o),
(146,-20,o),
(329,-20,cs)
);
}
);
width = 607;
},
{
layerId = m002;
shapes = (
{
closed = 1;
nodes = (
(423,-20,o),
(499,-2,o),
(557,31,c),
(537,119,l),
(487,91,o),
(410,74,o),
(341,74,cs),
(212,74,o),
(145,133,o),
(145,246,c),
(145,274,l),
(145,389,o),
(202,448,o),
(313,448,cs),
(423,448,o),
(480,390,o),
(480,278,c),
(495,309,l),
(101,309,l),
(101,215,l),
(584,215,l),
(585,241,o),
(586,256,o),
(586,269,cs),
(586,439,o),
(485,540,o),
(314,540,cs),
(140,540,o),
(36,435,o),
(36,260,cs),
(36,82,o),
(147,-20,o),
(341,-20,cs)
);
}
);
width = 622;
},
{
layerId = m003;
metricRight = "=|*1.2";
shapes = (
{
closed = 1;
nodes = (
(431,-20,o),
(507,-5,o),
(566,19,c),
(536,163,l),
(490,142,o),
(414,128,o),
(355,128,cs),
(264,128,o),
(221,161,o),
(221,230,cs),
(221,290,ls),
(221,363,o),
(251,396,o),
(317,396,cs),
(383,396,o),
(413,363,o),
(413,290,c),
(428,318,l),
(147,318,l),
(147,192,l),
(595,192,l),
(597,212,o),
(599,246,o),
(599,270,cs),
(599,439,o),
(494,540,o),
(319,540,cs),
(139,540,o),
(29,433,o),
(29,260,cs),
(29,82,o),
(146,-20,o),
(352,-20,cs)
);
}
);
width = 634;
},
{
layerId = m004;
metricRight = "=|*.8";
shapes = (
{
closed = 1;
nodes = (
(337,-20,o),
(400,3,o),
(444,43,c),
(431,58,l),
(390,21,o),
(332,0,o),
(269,0,cs),
(138,0,o),
(63,93,o),
(63,260,cs),
(63,260,ls),
(63,427,o),
(131,520,o),
(253,520,cs),
(375,520,o),
(443,430,o),
(443,268,c),
(453,278,l),
(52,278,l),
(52,258,l),
(463,258,l),
(463,263,o),
(463,263,o),
(463,268,cs),
(463,440,o),
(388,540,o),
(253,540,cs),
(118,540,o),
(43,437,o),
(43,260,cs),
(43,83,o),
(126,-20,o),
(269,-20,cs)
);
}
);
width = 497;
},
{
layerId = m005;
shapes = (
{
closed = 1;
nodes = (
(366,-20,o),
(432,-2,o),
(481,31,c),
(457,119,l),
(401,87,o),
(355,74,o),
(303,74,cs),
(197,74,o),
(145,131,o),
(145,245,c),
(145,275,l),
(145,389,o),
(190,448,o),
(277,448,cs),
(363,448,o),
(408,390,o),
(408,279,c),
(425,304,l),
(94,304,l),
(93,216,l),
(504,216,l),
(506,239,o),
(506,269,o),
(506,269,cs),
(506,441,o),
(421,540,o),
(273,540,cs),
(123,540,o),
(36,438,o),
(36,260,cs),
(36,80,o),
(129,-20,o),
(295,-20,cs)
);
}
);
width = 542;
},
{
layerId = m006;
metricRight = "=|*1.2";
shapes = (
{
closed = 1;
nodes = (
(391,-20,o),
(463,-5,o),
(518,19,c),
(492,163,l),
(414,136,o),
(377,128,o),
(332,128,cs),
(250,128,o),
(221,155,o),
(221,230,cs),
(221,290,ls),
(221,363,o),
(244,396,o),
(294,396,cs),
(344,396,o),
(365,365,o),
(365,290,c),
(392,312,l),
(137,312,l),
(137,192,l),
(545,192,l),
(547,206,o),
(549,245,o),
(549,270,cs),
(549,440,o),
(454,540,o),
(294,540,cs),
(130,540,o),
(29,434,o),
(29,260,cs),
(29,82,o),
(135,-20,o),
(320,-20,cs)
);
}
);
width = 584;
}
);
metricLeft = "=o";
metricRight = "=|";
unicode = 101;
},
{
color = 4;
glyphname = f;
kernLeft = f;
kernRight = f;
lastChange = "2026-07-05 15:13:37 +0000";
layers = (
{
layerId = m01;
shapes = (
{
closed = 1;
nodes = (
(219,0,l),
(219,500,l),
(474,500,l),
(474,520,l),
(219,520,l),
(219,640,ls),
(219,730,o),
(265,770,o),
(375,770,cs),
(408,770,o),
(430,767,o),
(464,756,c),
(464,777,l),
(432,786,o),
(408,790,o),
(375,790,cs),
(255,790,o),
(199,742,o),
(199,640,cs),
(199,520,l),
(34,520,l),
(34,500,l),
(199,500,l),
(199,0,l)
);
}
);
width = 508;
},
{
layerId = m002;
shapes = (
{
closed = 1;
nodes = (
(274,0,l),
(274,430,l),
(489,430,l),
(489,520,l),
(274,520,l),
(274,600,ls),
(274,674,o),
(306,702,o),
(390,702,cs),
(418,702,o),
(445,699,o),
(479,690,c),
(479,778,l),
(442,786,o),
(405,790,o),
(371,790,cs),
(235,790,o),
(165,727,o),
(165,605,cs),
(165,520,l),
(29,520,l),
(29,430,l),
(165,430,l),
(165,0,l)
);
}
);
width = 518;
},
{
layerId = m003;
shapes = (
{
closed = 1;
nodes = (
(328,0,l),
(328,360,l),
(503,360,l),
(503,520,l),
(328,520,l),
(328,560,ls),
(328,616,o),
(346,634,o),
(403,634,cs),
(430,634,o),
(462,630,o),
(493,624,c),
(493,778,l),
(450,786,o),
(400,790,o),
(366,790,cs),
(214,790,o),
(130,712,o),
(130,570,cs),
(130,520,l),
(23,520,l),
(23,360,l),
(130,360,l),
(130,0,l)
);
}
);
width = 526;
},
{
layerId = m004;
shapes = (
{
closed = 1;
nodes = (
(184,0,l),
(184,500,l),
(384,500,l),
(384,520,l),
(184,520,l),
(184,640,ls),
(184,732,o),
(221,770,o),
(311,770,cs),
(340,770,o),
(361,766,o),
(384,756,c),
(384,778,l),
(362,786,o),
(339,790,o),
(311,790,cs),
(210,790,o),
(164,743,o),
(164,640,cs),
(164,520,l),
(34,520,l),
(34,500,l),
(164,500,l),
(164,0,l)
);
}
);
width = 418;
},
{
layerId = m005;
shapes = (
{
closed = 1;
nodes = (
(254,0,l),
(254,430,l),
(419,430,l),
(419,520,l),
(254,520,l),
(254,600,ls),
(254,676,o),
(278,702,o),
(347,702,cs),
(374,702,o),
(397,698,o),
(419,690,c),
(419,778,l),
(386,786,o),
(355,790,o),
(325,790,cs),
(206,790,o),
(145,728,o),
(145,605,cs),
(145,520,l),
(29,520,l),
(29,430,l),
(145,430,l),
(145,0,l)
);
}
);
width = 448;
},
{
layerId = m006;
shapes = (
{
closed = 1;
nodes = (
(323,0,l),
(323,360,l),
(453,360,l),
(453,520,l),
(323,520,l),
(323,560,ls),
(323,617,o),
(337,634,o),
(383,634,cs),
(403,634,o),
(424,631,o),
(453,624,c),
(453,778,l),
(410,786,o),
(370,790,o),
(339,790,cs),
(201,790,o),
(125,712,o),
(125,570,cs),
(125,520,l),
(23,520,l),
(23,360,l),
(125,360,l),
(125,0,l)
);
}
);
width = 476;
}
);
metricLeft = "=h*.4";
metricRight = "=|";
unicode = 102;
},
{
color = 4;
glyphname = g;
kernLeft = o;
kernRight = u;
lastChange = "2026-07-05 14:47:16 +0000";
layers = (
{
layerId = m01;
shapes = (
{
closed = 1;
nodes = (
(487,-250,o),
(580,-155,o),
(581,40,cs),
(583,520,l),
(563,520,l),
(563,376,l),
(561,376,l),
(521,474,o),
(430,530,o),
(313,530,cs),
(151,530,o),
(43,422,o),
(43,260,cs),
(43,98,o),
(151,-10,o),
(313,-10,cs),
(430,-10,o),
(521,46,o),
(561,144,c),
(563,144,l),
(561,40,ls),
(560,-145,o),
(476,-230,o),
(298,-230,cs),
(211,-230,o),
(148,-210,o),
(96,-167,c),
(83,-182,l),
(139,-228,o),
(207,-250,o),
(298,-250,cs)
);
},
{
closed = 1;
nodes = (
(162,10,o),
(63,109,o),
(63,260,cs),
(63,411,o),
(162,510,o),
(313,510,cs),
(464,510,o),
(563,411,o),
(563,260,c),
(563,260,l),
(563,109,o),
(464,10,o),
(313,10,cs)
);
}
);
width = 669;
},
{
associatedMasterId = m01;
attr = {
coordinates = (
200,
200
);
};
layerId = "46F1A50B-7C0C-4B23-8733-B6799256F0FB";
name = "Jun 20, 26 at 14:30";
shapes = (
{
closed = 1;
nodes = (
(491,-250,o),
(586,-155,o),
(587,45,cs),
(589,520,l),
(548,520,l),
(548,404,l),
(546,404,l),
(507,482,o),
(416,530,o),
(309,530,cs),
(148,530,o),
(41,422,o),
(41,260,cs),
(41,98,o),
(148,-10,o),
(309,-10,cs),
(416,-10,o),
(506,38,o),
(544,116,c),
(546,116,l),
(545,45,ls),
(544,-133,o),
(466,-211,o),
(294,-211,cs),
(210,-211,o),
(150,-193,o),
(97,-152,c),
(82,-185,l),
(137,-229,o),
(205,-250,o),
(296,-250,cs)
);
},
{
closed = 1;
nodes = (
(175,28,o),
(83,120,o),
(83,260,cs),
(83,400,o),
(175,493,o),
(315,493,cs),
(454,493,o),
(546,400,o),
(546,260,c),
(546,260,l),
(546,120,o),
(454,28,o),
(315,28,cs)
);
}
);
width = 672;
},
{
layerId = m002;
shapes = (
{
closed = 1;
nodes = (
(505,-250,o),
(606,-151,o),
(606,60,cs),
(606,520,l),
(502,520,l),
(502,448,l),
(500,448,l),
(461,498,o),
(381,530,o),
(296,530,cs),
(140,530,o),
(36,422,o),
(36,260,cs),
(36,98,o),
(140,-10,o),
(296,-10,cs),
(381,-10,o),
(458,22,o),
(495,72,c),
(497,72,l),
(497,59,ls),
(497,-94,o),
(435,-156,o),
(283,-156,cs),
(209,-156,o),
(155,-141,o),
(102,-106,c),
(80,-196,l),
(132,-233,o),
(200,-250,o),
(290,-250,cs)
);
},
{
closed = 1;
nodes = (
(216,80,o),
(145,152,o),
(145,260,cs),
(145,368,o),
(216,440,o),
(321,440,cs),
(426,440,o),
(497,368,o),
(497,260,c),
(497,260,l),
(497,152,o),
(426,80,o),
(321,80,cs)
);
}
);
width = 678;
},
{
layerId = m003;
shapes = (
{
closed = 1;
nodes = (
(512,-250,o),
(629,-146,o),
(629,60,cs),
(629,520,l),
(441,520,l),
(441,460,l),
(439,460,l),
(397,503,o),
(328,530,o),
(259,530,cs),
(121,530,o),
(29,422,o),
(29,260,cs),
(29,98,o),
(121,-10,o),
(259,-10,cs),
(326,-10,o),
(387,15,o),
(429,60,c),
(431,60,l),
(431,58,l),
(431,-50,o),
(383,-94,o),
(266,-94,cs),
(207,-94,o),
(159,-83,o),
(108,-58,c),
(74,-206,l),
(127,-236,o),
(195,-250,o),
(280,-250,cs)
);
},
{
closed = 1;
nodes = (
(269,157,o),
(227,200,o),
(227,260,cs),
(227,320,o),
(269,363,o),
(329,363,cs),
(389,363,o),
(431,320,o),
(431,260,c),
(431,260,l),
(431,200,o),
(389,157,o),
(329,157,cs)
);
}
);
width = 687;
},
{
layerId = m004;
name = "Thin F2";
shapes = (
{
closed = 1;
nodes = (
(395,-250,o),
(473,-153,o),
(473,24,cs),
(473,520,l),
(453,520,l),
(453,412,l),
(451,412,l),
(414,485,o),
(343,530,o),
(258,530,cs),
(127,530,o),
(43,430,o),
(43,280,cs),
(43,130,o),
(127,30,o),
(258,30,cs),
(343,30,o),
(414,75,o),
(451,148,c),
(453,148,l),
(453,24,ls),
(453,-143,o),
(383,-230,o),
(252,-230,cs),
(197,-230,o),
(133,-215,o),
(92,-194,c),
(83,-212,l),
(126,-234,o),
(194,-250,o),
(252,-250,cs)
);
},
{
closed = 1;
nodes = (
(139,50,o),
(63,140,o),
(63,280,cs),
(63,420,o),
(139,510,o),
(258,510,cs),
(354,510,o),
(431,447,o),
(453,351,c),
(453,209,l),
(431,113,o),
(354,50,o),
(258,50,cs)
);
}
);
width = 559;
},
{
associatedMasterId = m004;
attr = {
coordinates = (
200,
100
);
};
layerId = "4542052A-5F31-4362-B451-0B9720437F60";
name = "Jun 20, 26 at 14:28";
shapes = (
{
closed = 1;
nodes = (
(405,-250,o),
(486,-151,o),
(486,31,cs),
(486,520,l),
(445,520,l),
(445,431,l),
(443,431,l),
(406,492,o),
(337,530,o),
(256,530,cs),
(125,530,o),
(41,430,o),
(41,279,cs),
(41,128,o),
(125,28,o),
(256,28,cs),
(335,28,o),
(404,64,o),
(442,127,c),
(444,127,l),
(444,31,ls),
(444,-129,o),
(378,-211,o),
(251,-211,cs),
(196,-211,o),
(137,-196,o),
(94,-172,c),
(81,-209,l),
(126,-234,o),
(192,-250,o),
(254,-250,cs)
);
},
{
closed = 1;
nodes = (
(153,67,o),
(85,148,o),
(85,279,cs),
(85,410,o),
(153,491,o),
(262,491,cs),
(352,491,o),
(423,434,o),
(444,344,c),
(444,214,l),
(423,124,o),
(352,67,o),
(262,67,cs)
);
}
);
width = 569;
},
{
layerId = m005;
shapes = (
{
closed = 1;
nodes = (
(434,-250,o),
(526,-147,o),
(526,50,cs),
(526,520,l),
(422,520,l),
(422,448,l),
(420,448,l),
(381,500,o),
(318,530,o),
(248,530,cs),
(119,530,o),
(36,430,o),
(36,275,cs),
(36,120,o),
(119,20,o),
(248,20,cs),
(318,20,o),
(377,49,o),
(416,102,c),
(418,102,l),
(418,50,ls),
(418,-87,o),
(362,-154,o),
(247,-154,cs),
(194,-154,o),
(149,-140,o),
(101,-107,c),
(75,-199,l),
(124,-233,o),
(186,-250,o),
(258,-250,cs)
);
},
{
closed = 1;
nodes = (
(195,116,o),
(152,172,o),
(152,275,cs),
(152,378,o),
(195,434,o),
(275,434,cs),
(345,434,o),
(400,391,o),
(417,323,c),
(417,227,l),
(400,159,o),
(345,116,o),
(275,116,cs)
);
}
);
width = 598;
},
{
layerId = m006;
name = "Black F2";
shapes = (
{
closed = 1;
nodes = (
(466,-250,o),
(579,-141,o),
(579,56,cs),
(579,520,l),
(391,520,l),
(391,460,l),
(389,460,l),
(350,506,o),
(296,530,o),
(232,530,cs),
(104,530,o),
(29,434,o),
(29,270,cs),
(29,106,o),
(104,10,o),
(232,10,cs),
(293,10,o),
(341,32,o),
(380,80,c),
(382,80,l),
(382,56,ls),
(382,-47,o),
(338,-94,o),
(241,-94,cs),
(194,-94,o),
(152,-83,o),
(108,-58,c),
(74,-206,l),
(118,-234,o),
(184,-250,o),
(262,-250,cs)
);
},
{
closed = 1;
nodes = (
(252,164,o),
(227,198,o),
(227,270,cs),
(227,342,o),
(252,376,o),
(304,376,cs),
(342,376,o),
(372,358,o),
(381,330,c),
(381,210,l),
(372,182,o),
(342,164,o),
(304,164,cs)
);
}
);
width = 637;
}
);
metricLeft = "=o";
metricRight = "=|h";
unicode = 103;
},
{
color = 4;
glyphname = h;
kernLeft = H;
kernRight = h;
lastChange = "2026-07-05 10:09:49 +0000";
layers = (
{
layerId = m01;
shapes = (
{
closed = 1;
nodes = (
(106,0,l),
(106,306,ls),
(106,432,o),
(188,510,o),
(321,510,cs),
(448,510,o),
(516,439,o),
(516,306,cs),
(516,0,l),
(536,0,l),
(536,306,ls),
(536,450,o),
(459,530,o),
(321,530,cs),
(221,530,o),
(145,488,o),
(108,412,c),
(106,412,l),
(106,770,l),
(86,770,l),
(86,0,l)
);
}
);
width = 605;
},
{
layerId = m002;
shapes = (
{
closed = 1;
nodes = (
(181,0,l),
(181,256,ls),
(181,367,o),
(242,434,o),
(342,434,cs),
(428,434,o),
(473,383,o),
(473,286,cs),
(473,0,l),
(582,0,l),
(582,313,ls),
(582,447,o),
(500,530,o),
(368,530,cs),
(289,530,o),
(221,500,o),
(183,448,c),
(181,448,l),
(181,770,l),
(72,770,l),
(72,0,l)
);
}
);
width = 640;
},
{
layerId = m003;
shapes = (
{
closed = 1;
nodes = (
(256,0,l),
(256,265,ls),
(256,325,o),
(286,358,o),
(343,358,cs),
(400,358,o),
(430,325,o),
(430,265,cs),
(430,0,l),
(628,0,l),
(628,320,ls),
(628,444,o),
(541,530,o),
(415,530,cs),
(351,530,o),
(299,507,o),
(258,460,c),
(256,460,l),
(256,770,l),
(58,770,l),
(58,0,l)
);
}
);
width = 674;
},
{
layerId = m004;
name = "Thin F2";
shapes = (
{
closed = 1;
nodes = (
(106,0,l),
(106,352,l),
(133,454,o),
(201,510,o),
(298,510,cs),
(405,510,o),
(456,442,o),
(456,300,cs),
(456,0,l),
(476,0,l),
(476,300,ls),
(476,451,o),
(418,530,o),
(298,530,cs),
(212,530,o),
(145,488,o),
(108,412,c),
(106,412,l),
(106,770,l),
(86,770,l),
(86,0,l)
);
}
);
width = 545;
},
{
layerId = m005;
shapes = (
{
closed = 1;
nodes = (
(181,0,l),
(181,334,l),
(204,397,o),
(256,434,o),
(323,434,cs),
(394,434,o),
(423,392,o),
(423,290,cs),
(423,0,l),
(532,0,l),
(532,300,ls),
(532,457,o),
(477,530,o),
(360,530,cs),
(287,530,o),
(226,502,o),
(183,448,c),
(181,448,l),
(181,770,l),
(72,770,l),
(72,0,l)
);
}
);
width = 590;
},
{
layerId = m006;
name = "Black F2";
shapes = (
{
closed = 1;
nodes = (
(256,0,l),
(256,315,l),
(264,347,o),
(290,366,o),
(326,366,cs),
(368,366,o),
(390,339,o),
(390,288,cs),
(390,0,l),
(588,0,l),
(588,300,ls),
(588,454,o),
(533,530,o),
(422,530,cs),
(361,530,o),
(306,507,o),
(258,460,c),
(256,460,l),
(256,770,l),
(58,770,l),
(58,0,l)
);
}
);
width = 634;
},
{
associatedMasterId = m004;
attr = {
coordinates = (
200,
100
);
};
layerId = "DBFFBCB2-45B6-47F5-99BE-56E40808C34B";
name = "Jun 21, 26 at 16:31";
shapes = (
{
closed = 1;
nodes = (
(125,0,l),
(125,348,l),
(151,440,o),
(215,491,o),
(304,491,cs),
(402,491,o),
(448,430,o),
(448,298,cs),
(448,0,l),
(490,0,l),
(490,300,ls),
(490,453,o),
(433,530,o),
(314,530,cs),
(233,530,o),
(166,494,o),
(127,431,c),
(125,431,l),
(125,770,l),
(83,770,l),
(83,0,l)
);
}
);
width = 556;
},
{
associatedMasterId = m01;
attr = {
coordinates = (
200,
200
);
};
layerId = "466FB072-3C8F-46C9-ADE0-E318C4508BE2";
name = "Jun 21, 26 at 20:33";
shapes = (
{
closed = 1;
nodes = (
(126,0,l),
(126,294,ls),
(126,416,o),
(203,491,o),
(326,491,cs),
(443,491,o),
(505,425,o),
(505,301,cs),
(505,0,l),
(548,0,l),
(548,308,ls),
(548,449,o),
(469,530,o),
(333,530,cs),
(241,530,o),
(162,493,o),
(126,431,c),
(125,431,l),
(124,770,l),
(83,770,l),
(83,0,l)
);
}
);
width = 614;
}
);
metricLeft = "=H*.96";
metricRight = "=|*.8";
unicode = 104;
},
{
color = 4;
glyphname = i;
kernLeft = I;
kernRight = I;
lastChange = "2026-07-05 15:11:52 +0000";
layers = (
{
layerId = m01;
shapes = (
{
closed = 1;
nodes = (
(126,0,l),
(126,520,l),
(106,520,l),
(106,0,l)
);
},
{
closed = 1;
nodes = (
(133,682,o),
(146,694,o),
(146,711,cs),
(146,728,o),
(133,740,o),
(116,740,cs),
(99,740,o),
(86,728,o),
(86,711,cs),
(86,694,o),
(99,682,o),
(116,682,cs)
);
}
);
width = 232;
},
{
layerId = m002;
shapes = (
{
closed = 1;
nodes = (
(202,0,l),
(202,520,l),
(92,520,l),
(92,0,l)
);
},
{
closed = 1;
nodes = (
(191,636,o),
(222,666,o),
(222,708,cs),
(222,750,o),
(191,780,o),
(147,780,cs),
(103,780,o),
(72,750,o),
(72,708,cs),
(72,666,o),
(103,636,o),
(147,636,cs)
);
}
);
width = 294;
},
{
layerId = m003;
shapes = (
{
closed = 1;
nodes = (
(278,0,l),
(278,520,l),
(78,520,l),
(78,0,l)
);
},
{
closed = 1;
nodes = (
(248,590,o),
(298,638,o),
(298,705,cs),
(298,772,o),
(248,820,o),
(178,820,cs),
(108,820,o),
(58,772,o),
(58,705,cs),
(58,638,o),
(108,590,o),
(178,590,cs)
);
}
);
width = 356;
},
{
layerId = m004;
shapes = (
{
closed = 1;
nodes = (
(126,0,l),
(126,520,l),
(106,520,l),
(106,0,l)
);
},
{
closed = 1;
nodes = (
(133,682,o),
(146,694,o),
(146,711,cs),
(146,728,o),
(133,740,o),
(116,740,cs),
(99,740,o),
(86,728,o),
(86,711,cs),
(86,694,o),
(99,682,o),
(116,682,cs)
);
}
);
width = 232;
},
{
layerId = m005;
shapes = (
{
closed = 1;
nodes = (
(202,0,l),
(202,520,l),
(92,520,l),
(92,0,l)
);
},
{
closed = 1;
nodes = (
(191,636,o),
(222,666,o),
(222,708,cs),
(222,750,o),
(191,780,o),
(147,780,cs),
(103,780,o),
(72,750,o),
(72,708,cs),
(72,666,o),
(103,636,o),
(147,636,cs)
);
}
);
width = 294;
},
{
layerId = m006;
shapes = (
{
closed = 1;
nodes = (
(278,0,l),
(278,520,l),
(78,520,l),
(78,0,l)
);
},
{
closed = 1;
nodes = (
(248,590,o),
(298,638,o),
(298,705,cs),
(298,772,o),
(248,820,o),
(178,820,cs),
(108,820,o),
(58,772,o),
(58,705,cs),
(58,638,o),
(108,590,o),
(178,590,cs)
);
}
);
width = 356;
}
);
metricLeft = "=h";
metricRight = "=|";
unicode = 105;
},
{
color = 4;
glyphname = j;
kernLeft = I;
kernRight = I;
lastChange = "2026-07-05 15:11:52 +0000";
layers = (
{
layerId = m01;
metricLeft = "=i-140";
shapes = (
{
closed = 1;
nodes = (
(143,682,o),
(156,694,o),
(156,711,cs),
(156,728,o),
(143,740,o),
(126,740,cs),
(109,740,o),
(96,728,o),
(96,711,cs),
(96,694,o),
(109,682,o),
(126,682,cs)
);
},
{
closed = 1;
nodes = (
(89,-171,o),
(136,-84,o),
(136,84,cs),
(136,520,l),
(116,520,l),
(116,84,ls),
(116,-77,o),
(72,-158,o),
(-54,-233,c),
(-44,-250,l)
);
}
);
width = 242;
},
{
layerId = m002;
metricLeft = "=i-130";
shapes = (
{
closed = 1;
nodes = (
(204,636,o),
(235,666,o),
(235,708,cs),
(235,750,o),
(204,780,o),
(160,780,cs),
(116,780,o),
(85,750,o),
(85,708,cs),
(85,666,o),
(116,636,o),
(160,636,cs)
);
},
{
closed = 1;
nodes = (
(165,-142,o),
(215,-40,o),
(215,154,cs),
(215,520,l),
(105,520,l),
(105,154,ls),
(105,-2,o),
(67,-77,o),
(-58,-166,c),
(16,-250,l)
);
}
);
width = 307;
},
{
layerId = m003;
metricLeft = "=i-120";
shapes = (
{
closed = 1;
nodes = (
(263,590,o),
(313,638,o),
(313,705,cs),
(313,772,o),
(263,820,o),
(193,820,cs),
(123,820,o),
(73,772,o),
(73,705,cs),
(73,638,o),
(123,590,o),
(193,590,cs)
);
},
{
closed = 1;
nodes = (
(239,-114,o),
(293,4,o),
(293,224,cs),
(293,520,l),
(93,520,l),
(93,224,ls),
(93,69,o),
(61,2,o),
(-62,-100,c),
(76,-250,l)
);
}
);
width = 371;
},
{
layerId = m004;
metricLeft = "=i-170";
shapes = (
{
closed = 1;
nodes = (
(141,682,o),
(154,694,o),
(154,711,cs),
(154,728,o),
(141,740,o),
(124,740,cs),
(107,740,o),
(94,728,o),
(94,711,cs),
(94,694,o),
(107,682,o),
(124,682,cs)
);
},
{
closed = 1;
nodes = (
(79,-182,o),
(134,-94,o),
(134,84,cs),
(134,520,l),
(114,520,l),
(114,84,ls),
(114,-86,o),
(64,-167,o),
(-84,-232,c),
(-76,-250,l)
);
}
);
width = 240;
},
{
layerId = m005;
metricLeft = "=i-160";
shapes = (
{
closed = 1;
nodes = (
(199,636,o),
(230,666,o),
(230,708,cs),
(230,750,o),
(199,780,o),
(155,780,cs),
(112,780,o),
(80,750,o),
(80,708,cs),
(80,666,o),
(112,636,o),
(155,636,cs)
);
},
{
closed = 1;
nodes = (
(151,-148,o),
(210,-45,o),
(210,154,cs),
(210,520,l),
(100,520,l),
(100,154,ls),
(100,-10,o),
(56,-85,o),
(-88,-168,c),
(-22,-250,l)
);
}
);
width = 302;
},
{
layerId = m006;
metricLeft = "=i-150";
shapes = (
{
closed = 1;
nodes = (
(258,590,o),
(308,638,o),
(308,705,cs),
(308,772,o),
(258,820,o),
(188,820,cs),
(118,820,o),
(68,772,o),
(68,705,cs),
(68,638,o),
(118,590,o),
(188,590,cs)
);
},
{
closed = 1;
nodes = (
(225,-114,o),
(288,3,o),
(288,224,cs),
(288,520,l),
(88,520,l),
(88,224,ls),
(88,66,o),
(51,-1,o),
(-92,-103,c),
(33,-250,l)
);
}
);
width = 366;
}
);
metricLeft = "=H*.7";
metricRight = "=i";
unicode = 106;
},
{
color = 4;
glyphname = k;
kernLeft = H;
kernRight = x;
lastChange = "2026-07-06 01:06:48 +0000";
layers = (
{
layerId = m01;
shapes = (
{
closed = 1;
nodes = (
(106,0,l),
(106,770,l),
(86,770,l),
(86,0,l)
);
},
{
closed = 1;
nodes = (
(122,265,l),
(122,265,l),
(122,265,l),
(488,520,l),
(454,520,l),
(100,273,l)
);
},
{
closed = 1;
nodes = (
(506,0,l),
(122,279,l),
(100,270,l),
(472,0,l)
);
}
);
width = 523;
},
{
layerId = m002;
shapes = (
{
closed = 1;
nodes = (
(181,0,l),
(181,770,l),
(72,770,l),
(72,0,l)
);
},
{
closed = 1;
nodes = (
(255,232,l),
(255,232,l),
(255,232,l),
(561,520,l),
(433,520,l),
(157,263,l)
);
},
{
closed = 1;
nodes = (
(572,0,l),
(267,294,l),
(169,262,l),
(445,0,l)
);
}
);
width = 586;
},
{
layerId = m003;
shapes = (
{
closed = 1;
nodes = (
(256,0,l),
(256,770,l),
(58,770,l),
(58,0,l)
);
},
{
closed = 1;
nodes = (
(387,199,l),
(387,199,l),
(387,199,l),
(633,520,l),
(411,520,l),
(213,253,l)
);
},
{
closed = 1;
nodes = (
(638,0,l),
(412,308,l),
(238,254,l),
(418,0,l)
);
}
);
width = 650;
},
{
background = {
shapes = (
{
closed = 0;
nodes = (
(-4,-16,l),
(269,252,l),
(542,520,l)
);
}
);
};
layerId = m005;
shapes = (
{
closed = 1;
nodes = (
(181,0,l),
(181,770,l),
(72,770,l),
(72,0,l)
);
},
{
closed = 1;
nodes = (
(269,258,l),
(269,252,l),
(542,520,l),
(416,520,l),
(141,248,l),
(143,135,l)
);
},
{
closed = 1;
nodes = (
(552,0,l),
(272,323,l),
(182,283,l),
(434,0,l)
);
}
);
width = 566;
},
{
layerId = m006;
shapes = (
{
closed = 1;
nodes = (
(256,0,l),
(256,770,l),
(58,770,l),
(58,0,l)
);
},
{
closed = 1;
nodes = (
(363,289,l),
(363,199,l),
(608,520,l),
(392,520,l),
(191,250,l),
(185,56,l)
);
},
{
closed = 1;
nodes = (
(618,0,l),
(364,350,l),
(199,285,l),
(410,0,l)
);
}
);
width = 630;
},
{
layerId = m004;
name = "Thin F2";
shapes = (
{
closed = 1;
nodes = (
(106,0,l),
(106,770,l),
(86,770,l),
(86,0,l)
);
},
{
closed = 1;
nodes = (
(175,284,l),
(175,284,l),
(476,520,l),
(444,520,l),
(94,246,l),
(92,219,l)
);
},
{
closed = 1;
nodes = (
(486,0,l),
(179,295,l),
(165,281,l),
(458,0,l)
);
}
);
width = 503;
}
);
metricLeft = "=h";
metricRight = "=|*.2";
unicode = 107;
},
{
color = 4;
glyphname = l;
kernLeft = I;
kernRight = I;
lastChange = "2026-07-05 15:11:56 +0000";
layers = (
{
layerId = m01;
shapes = (
{
closed = 1;
nodes = (
(123,0,l),
(123,770,l),
(103,770,l),
(103,0,l)
);
}
);
width = 226;
},
{
layerId = m002;
shapes = (
{
closed = 1;
nodes = (
(196,0,l),
(196,770,l),
(86,770,l),
(86,0,l)
);
}
);
width = 282;
},
{
layerId = m003;
shapes = (
{
closed = 1;
nodes = (
(270,0,l),
(270,770,l),
(70,770,l),
(70,0,l)
);
}
);
width = 340;
},
{
layerId = m004;
shapes = (
{
closed = 1;
nodes = (
(123,0,l),
(123,770,l),
(103,770,l),
(103,0,l)
);
}
);
width = 226;
},
{
layerId = m005;
shapes = (
{
closed = 1;
nodes = (
(196,0,l),
(196,770,l),
(86,770,l),
(86,0,l)
);
}
);
width = 282;
},
{
layerId = m006;
shapes = (
{
closed = 1;
nodes = (
(270,0,l),
(270,770,l),
(70,770,l),
(70,0,l)
);
}
);
width = 340;
}
);
metricLeft = "=h*1.2";
metricRight = "=|";
unicode = 108;
},
{
color = 4;
glyphname = m;
kernLeft = m;
kernRight = h;
lastChange = "2026-07-06 06:14:09 +0000";
layers = (
{
layerId = m002;
shapes = (
{
closed = 1;
nodes = (
(180,0,l),
(180,256,ls),
(180,370,o),
(230,434,o),
(319,434,cs),
(403,434,o),
(448,382,o),
(448,286,cs),
(448,0,l),
(556,0,l),
(556,256,ls),
(556,370,o),
(606,434,o),
(695,434,cs),
(779,434,o),
(824,382,o),
(824,286,cs),
(824,0,l),
(932,0,l),
(932,313,ls),
(932,450,o),
(858,530,o),
(731,530,cs),
(644,530,o),
(564,492,o),
(524,432,c),
(522,432,l),
(491,497,o),
(434,530,o),
(354,530,cs),
(277,530,o),
(210,499,o),
(177,448,c),
(175,448,l),
(175,520,l),
(72,520,l),
(72,0,l)
);
}
);
width = 990;
},
{
layerId = m003;
shapes = (
{
closed = 1;
nodes = (
(255,0,l),
(255,265,ls),
(255,326,o),
(282,358,o),
(333,358,cs),
(384,358,o),
(411,326,o),
(411,265,cs),
(411,0,l),
(605,0,l),
(605,265,ls),
(605,326,o),
(632,358,o),
(683,358,cs),
(734,358,o),
(761,326,o),
(761,265,cs),
(761,0,l),
(958,0,l),
(958,320,ls),
(958,450,o),
(881,530,o),
(756,530,cs),
(682,530,o),
(602,502,o),
(557,460,c),
(555,460,l),
(519,505,o),
(465,530,o),
(402,530,cs),
(340,530,o),
(286,506,o),
(247,460,c),
(245,460,l),
(245,520,l),
(58,520,l),
(58,0,l)
);
}
);
width = 1004;
},
{
layerId = m004;
name = "Thin F2";
shapes = (
{
closed = 1;
nodes = (
(106,0,l),
(106,344,l),
(127,445,o),
(191,510,o),
(269,510,cs),
(352,510,o),
(396,437,o),
(396,300,cs),
(396,0,l),
(416,0,l),
(416,344,l),
(437,445,o),
(501,510,o),
(579,510,cs),
(662,510,o),
(706,437,o),
(706,300,cs),
(706,0,l),
(726,0,l),
(726,300,ls),
(726,446,o),
(676,530,o),
(579,530,cs),
(503,530,o),
(440,476,o),
(409,391,c),
(407,391,l),
(389,480,o),
(343,530,o),
(269,530,cs),
(199,530,o),
(141,485,o),
(108,412,c),
(106,412,l),
(106,520,l),
(86,520,l),
(86,0,l)
);
}
);
width = 795;
},
{
layerId = m005;
shapes = (
{
closed = 1;
nodes = (
(180,0,l),
(180,334,l),
(199,399,o),
(240,438,o),
(291,438,cs),
(347,438,o),
(374,391,o),
(374,294,cs),
(374,0,l),
(480,0,l),
(480,334,l),
(499,399,o),
(540,438,o),
(591,438,cs),
(647,438,o),
(674,391,o),
(674,294,cs),
(674,0,l),
(782,0,l),
(782,300,ls),
(782,456,o),
(731,530,o),
(623,530,cs),
(555,530,o),
(503,501,o),
(461,440,c),
(459,440,l),
(437,499,o),
(391,530,o),
(322,530,cs),
(261,530,o),
(216,506,o),
(177,448,c),
(175,448,l),
(175,520,l),
(72,520,l),
(72,0,l)
);
}
);
width = 840;
},
{
background = {
shapes = (
{
closed = 1;
nodes = (
(252,0,l),
(252,315,l),
(260,346,o),
(284,366,o),
(314,366,cs),
(347,366,o),
(363,341,o),
(363,288,cs),
(363,0,l),
(553,0,l),
(553,315,l),
(561,346,o),
(585,366,o),
(615,366,cs),
(648,366,o),
(664,341,o),
(664,288,cs),
(664,0,l),
(858,0,l),
(858,300,ls),
(858,458,o),
(804,530,o),
(700,530,cs),
(636,530,o),
(572,503,o),
(526,460,c),
(524,460,l),
(499,506,o),
(454,530,o),
(398,530,cs),
(341,530,o),
(287,505,o),
(244,460,c),
(242,460,l),
(242,520,l),
(58,520,l),
(58,0,l)
);
}
);
};
layerId = m006;
name = "Black F2";
shapes = (
{
closed = 1;
nodes = (
(252,0,l),
(252,315,l),
(259,346,o),
(281,366,o),
(308,366,cs),
(338,366,o),
(353,341,o),
(353,288,cs),
(353,0,l),
(543,0,l),
(543,315,l),
(550,346,o),
(572,366,o),
(599,366,cs),
(629,366,o),
(644,341,o),
(644,288,cs),
(644,0,l),
(838,0,l),
(838,300,ls),
(838,455,o),
(788,530,o),
(685,530,cs),
(624,530,o),
(562,504,o),
(517,460,c),
(515,460,l),
(491,505,o),
(448,530,o),
(393,530,cs),
(338,530,o),
(285,505,o),
(244,460,c),
(242,460,l),
(242,520,l),
(58,520,l),
(58,0,l)
);
}
);
width = 884;
},
{
layerId = m01;
name = "Thin F1";
shapes = (
{
closed = 1;
nodes = (
(106,0,l),
(106,306,ls),
(106,436,o),
(180,510,o),
(306,510,cs),
(425,510,o),
(486,441,o),
(486,306,cs),
(486,0,l),
(506,0,l),
(506,306,ls),
(506,432,o),
(583,510,o),
(706,510,cs),
(823,510,o),
(886,439,o),
(886,306,cs),
(886,0,l),
(906,0,l),
(906,306,ls),
(906,449,o),
(835,530,o),
(706,530,cs),
(601,530,o),
(526,477,o),
(498,388,c),
(496,388,l),
(474,481,o),
(409,530,o),
(306,530,cs),
(208,530,o),
(136,487,o),
(108,412,c),
(106,412,l),
(106,520,l),
(86,520,l),
(86,0,l)
);
}
);
width = 975;
},
{
associatedMasterId = m01;
attr = {
coordinates = (
200,
200
);
};
background = {
shapes = (
{
closed = 0;
nodes = (
(497,384,l),
(495,384,l)
);
}
);
};
layerId = "99584B94-22D3-449D-AA18-0BDC02D7093F";
name = "Jun 29, 26 at 16:22";
shapes = (
{
closed = 1;
nodes = (
(125,0,l),
(125,294,ls),
(125,420,o),
(193,491,o),
(309,491,cs),
(420,491,o),
(477,426,o),
(477,301,cs),
(477,0,l),
(519,0,l),
(519,294,ls),
(519,417,o),
(589,491,o),
(703,491,cs),
(812,491,o),
(871,425,o),
(871,301,cs),
(871,0,l),
(913,0,l),
(913,308,ls),
(913,449,o),
(841,530,o),
(712,530,cs),
(616,530,o),
(537,485,o),
(501,411,c),
(499,411,l),
(472,490,o),
(410,530,o),
(318,530,cs),
(228,530,o),
(154,492,o),
(125,431,c),
(123,431,l),
(123,520,l),
(83,520,l),
(83,0,l)
);
}
);
width = 979;
},
{
associatedMasterId = m004;
attr = {
coordinates = (
200,
100
);
};
layerId = "682119E7-B46F-47FC-B77A-23ECD4F329F8";
name = "Jul 6, 26 at 15:11";
shapes = (
{
closed = 1;
nodes = (
(125,0,l),
(125,342,l),
(145,433,o),
(203,492,o),
(275,492,cs),
(351,492,o),
(391,426,o),
(391,299,cs),
(391,0,l),
(432,0,l),
(432,342,l),
(452,433,o),
(511,492,o),
(582,492,cs),
(658,492,o),
(698,426,o),
(698,299,cs),
(698,0,l),
(740,0,l),
(740,300,ls),
(740,449,o),
(690,530,o),
(590,530,cs),
(516,530,o),
(455,488,o),
(418,415,c),
(416,415,l),
(395,489,o),
(351,530,o),
(282,530,cs),
(217,530,o),
(159,494,o),
(125,431,c),
(123,431,l),
(123,520,l),
(83,520,l),
(83,0,l)
);
}
);
width = 806;
}
);
metricLeft = "=h";
metricRight = "=|*.8";
unicode = 109;
},
{
color = 4;
glyphname = n;
kernLeft = m;
kernRight = h;
lastChange = "2026-07-05 15:11:12 +0000";
layers = (
{
layerId = m01;
shapes = (
{
closed = 1;
nodes = (
(106,0,l),
(106,306,ls),
(106,432,o),
(188,510,o),
(321,510,cs),
(448,510,o),
(516,439,o),
(516,306,cs),
(516,0,l),
(536,0,l),
(536,306,ls),
(536,450,o),
(459,530,o),
(321,530,cs),
(221,530,o),
(145,488,o),
(108,412,c),
(106,412,l),
(106,520,l),
(86,520,l),
(86,0,l)
);
}
);
width = 605;
},
{
layerId = m002;
shapes = (
{
closed = 1;
nodes = (
(181,0,l),
(181,256,ls),
(181,367,o),
(242,434,o),
(342,434,cs),
(428,434,o),
(473,383,o),
(473,286,cs),
(473,0,l),
(582,0,l),
(582,313,ls),
(582,447,o),
(500,530,o),
(368,530,cs),
(287,530,o),
(216,499,o),
(178,448,c),
(176,448,l),
(176,520,l),
(72,520,l),
(72,0,l)
);
}
);
width = 640;
},
{
layerId = m003;
shapes = (
{
closed = 1;
nodes = (
(256,0,l),
(256,265,ls),
(256,325,o),
(286,358,o),
(343,358,cs),
(400,358,o),
(430,325,o),
(430,265,cs),
(430,0,l),
(628,0,l),
(628,320,ls),
(628,444,o),
(541,530,o),
(415,530,cs),
(348,530,o),
(290,506,o),
(248,460,c),
(246,460,l),
(246,520,l),
(58,520,l),
(58,0,l)
);
}
);
width = 674;
},
{
layerId = m004;
name = "Thin F2";
shapes = (
{
closed = 1;
nodes = (
(106,0,l),
(106,352,l),
(131,451,o),
(201,510,o),
(292,510,cs),
(399,510,o),
(446,446,o),
(446,300,cs),
(446,0,l),
(466,0,l),
(466,300,ls),
(466,455,o),
(412,530,o),
(292,530,cs),
(210,530,o),
(144,486,o),
(108,412,c),
(106,412,l),
(106,520,l),
(86,520,l),
(86,0,l)
);
}
);
width = 535;
},
{
layerId = m005;
shapes = (
{
closed = 1;
nodes = (
(181,0,l),
(181,334,l),
(203,397,o),
(253,434,o),
(317,434,cs),
(385,434,o),
(413,392,o),
(413,290,cs),
(413,0,l),
(522,0,l),
(522,300,ls),
(522,457,o),
(469,530,o),
(355,530,cs),
(283,530,o),
(220,501,o),
(178,448,c),
(176,448,l),
(176,520,l),
(72,520,l),
(72,0,l)
);
}
);
width = 580;
},
{
layerId = m006;
name = "Black F2";
shapes = (
{
closed = 1;
nodes = (
(256,0,l),
(256,315,l),
(264,347,o),
(288,366,o),
(321,366,cs),
(360,366,o),
(380,339,o),
(380,288,cs),
(380,0,l),
(578,0,l),
(578,300,ls),
(578,454,o),
(525,530,o),
(417,530,cs),
(355,530,o),
(296,505,o),
(248,460,c),
(246,460,l),
(246,520,l),
(58,520,l),
(58,0,l)
);
}
);
width = 624;
},
{
associatedMasterId = m004;
attr = {
coordinates = (
200,
100
);
};
layerId = "DBFFBCB2-45B6-47F5-99BE-56E40808C34B";
name = "Jun 21, 26 at 16:31";
shapes = (
{
closed = 1;
nodes = (
(125,0,l),
(125,348,l),
(149,437,o),
(214,491,o),
(299,491,cs),
(396,491,o),
(438,433,o),
(438,298,cs),
(438,0,l),
(480,0,l),
(480,300,ls),
(480,456,o),
(427,530,o),
(308,530,cs),
(227,530,o),
(165,496,o),
(126,431,c),
(124,431,l),
(124,520,l),
(83,520,l),
(83,0,l)
);
}
);
width = 546;
},
{
associatedMasterId = m01;
attr = {
coordinates = (
200,
200
);
};
layerId = "81FA8989-86D4-442E-9BF5-DE0B1DCBA8C0";
name = "Jun 21, 26 at 20:34";
shapes = (
{
closed = 1;
nodes = (
(126,0,l),
(126,294,ls),
(126,416,o),
(203,491,o),
(326,491,cs),
(443,491,o),
(505,425,o),
(505,301,cs),
(505,0,l),
(548,0,l),
(548,308,ls),
(548,449,o),
(469,530,o),
(333,530,cs),
(241,530,o),
(162,493,o),
(126,431,c),
(125,431,l),
(124,520,l),
(83,520,l),
(83,0,l)
);
}
);
width = 614;
}
);
metricLeft = "=h";
metricRight = "=h";
unicode = 110;
},
{
color = 4;
glyphname = o;
kernLeft = o;
kernRight = o;
lastChange = "2026-07-06 03:05:37 +0000";
layers = (
{
layerId = m01;
shapes = (
{
closed = 1;
nodes = (
(499,-20,o),
(613,92,o),
(613,260,cs),
(613,428,o),
(499,540,o),
(328,540,cs),
(157,540,o),
(43,428,o),
(43,260,cs),
(43,92,o),
(157,-20,o),
(328,-20,cs)
);
},
{
closed = 1;
nodes = (
(168,0,o),
(63,103,o),
(63,260,cs),
(63,417,o),
(168,520,o),
(328,520,cs),
(488,520,o),
(593,417,o),
(593,260,cs),
(593,103,o),
(488,0,o),
(328,0,cs)
);
}
);
width = 656;
},
{
layerId = m002;
shapes = (
{
closed = 1;
nodes = (
(500,-20,o),
(616,92,o),
(616,260,cs),
(616,428,o),
(500,540,o),
(326,540,cs),
(152,540,o),
(36,428,o),
(36,260,cs),
(36,92,o),
(152,-20,o),
(326,-20,cs)
);
},
{
closed = 1;
nodes = (
(215,76,o),
(145,147,o),
(145,260,cs),
(145,373,o),
(215,444,o),
(326,444,cs),
(437,444,o),
(507,373,o),
(507,260,cs),
(507,147,o),
(437,76,o),
(326,76,cs)
);
}
);
width = 652;
},
{
layerId = m003;
shapes = (
{
closed = 1;
nodes = (
(501,-20,o),
(619,92,o),
(619,260,cs),
(619,428,o),
(501,540,o),
(324,540,cs),
(147,540,o),
(29,428,o),
(29,260,cs),
(29,92,o),
(147,-20,o),
(324,-20,cs)
);
},
{
closed = 1;
nodes = (
(259,152,o),
(221,192,o),
(221,260,cs),
(221,328,o),
(259,368,o),
(324,368,cs),
(389,368,o),
(427,328,o),
(427,260,cs),
(427,192,o),
(389,152,o),
(324,152,cs)
);
}
);
width = 648;
},
{
background = {
shapes = (
{
closed = 1;
nodes = (
(422,-20,o),
(513,88,o),
(513,260,cs),
(513,432,o),
(422,540,o),
(278,540,cs),
(134,540,o),
(43,432,o),
(43,260,cs),
(43,88,o),
(134,-20,o),
(278,-20,cs)
);
},
{
closed = 1;
nodes = (
(145,0,o),
(63,99,o),
(63,260,cs),
(63,421,o),
(145,520,o),
(278,520,cs),
(411,520,o),
(493,421,o),
(493,260,cs),
(493,99,o),
(411,0,o),
(278,0,cs)
);
}
);
};
layerId = m004;
shapes = (
{
closed = 1;
nodes = (
(424,-20,o),
(513,86,o),
(513,260,cs),
(513,434,o),
(424,540,o),
(278,540,cs),
(132,540,o),
(43,434,o),
(43,260,cs),
(43,86,o),
(132,-20,o),
(278,-20,cs)
);
},
{
closed = 1;
nodes = (
(144,0,o),
(63,96,o),
(63,260,cs),
(63,424,o),
(144,520,o),
(278,520,cs),
(412,520,o),
(493,424,o),
(493,260,cs),
(493,96,o),
(412,0,o),
(278,0,cs)
);
}
);
width = 556;
},
{
layerId = m005;
shapes = (
{
closed = 1;
nodes = (
(449,-20,o),
(546,86,o),
(546,260,cs),
(546,434,o),
(449,540,o),
(291,540,cs),
(133,540,o),
(36,434,o),
(36,260,cs),
(36,86,o),
(133,-20,o),
(291,-20,cs)
);
},
{
closed = 1;
nodes = (
(197,76,o),
(143,143,o),
(143,260,cs),
(143,377,o),
(197,444,o),
(291,444,cs),
(385,444,o),
(439,377,o),
(439,260,cs),
(439,143,o),
(385,76,o),
(291,76,cs)
);
}
);
width = 582;
},
{
layerId = m006;
shapes = (
{
closed = 1;
nodes = (
(474,-20,o),
(579,87,o),
(579,260,cs),
(579,433,o),
(474,540,o),
(304,540,cs),
(134,540,o),
(29,433,o),
(29,260,cs),
(29,87,o),
(134,-20,o),
(304,-20,cs)
);
},
{
closed = 1;
nodes = (
(249,144,o),
(221,184,o),
(221,260,cs),
(221,336,o),
(249,376,o),
(304,376,cs),
(359,376,o),
(387,336,o),
(387,260,cs),
(387,184,o),
(359,144,o),
(304,144,cs)
);
}
);
width = 608;
}
);
metricLeft = "=O*.96";
metricRight = "=|";
unicode = 111;
},
{
color = 4;
glyphname = p;
kernLeft = n;
kernRight = o;
lastChange = "2026-07-05 14:38:11 +0000";
layers = (
{
layerId = m01;
shapes = (
{
closed = 1;
nodes = (
(239,530,o),
(148,474,o),
(108,376,c),
(106,376,l),
(106,520,l),
(86,520,l),
(86,-230,l),
(106,-230,l),
(106,144,l),
(108,144,l),
(148,46,o),
(239,-10,o),
(356,-10,cs),
(518,-10,o),
(626,98,o),
(626,260,cs),
(626,422,o),
(518,530,o),
(356,530,cs)
);
},
{
closed = 1;
nodes = (
(507,510,o),
(606,411,o),
(606,260,cs),
(606,109,o),
(507,10,o),
(356,10,cs),
(205,10,o),
(106,109,o),
(106,260,c),
(106,260,l),
(106,411,o),
(205,510,o),
(356,510,cs)
);
}
);
width = 669;
},
{
associatedMasterId = m01;
attr = {
coordinates = (
200,
200
);
};
layerId = "46F1A50B-7C0C-4B23-8733-B6799256F0FB";
name = "Jun 20, 26 at 14:30";
shapes = (
{
closed = 1;
nodes = (
(256,530,o),
(165,482,o),
(127,404,c),
(125,404,l),
(125,520,l),
(84,520,l),
(83,-230,l),
(126,-230,l),
(126,116,l),
(128,116,l),
(166,38,o),
(256,-10,o),
(364,-10,cs),
(524,-10,o),
(631,98,o),
(631,260,cs),
(631,422,o),
(524,530,o),
(364,530,cs)
);
},
{
closed = 1;
nodes = (
(497,493,o),
(589,401,o),
(589,260,cs),
(589,119,o),
(497,26,o),
(357,26,cs),
(218,26,o),
(126,119,o),
(126,260,c),
(126,260,l),
(126,401,o),
(218,493,o),
(357,493,cs)
);
}
);
width = 672;
},
{
layerId = m002;
shapes = (
{
closed = 1;
nodes = (
(297,530,o),
(217,498,o),
(178,448,c),
(176,448,l),
(176,520,l),
(72,520,l),
(72,-230,l),
(181,-230,l),
(181,72,l),
(183,72,l),
(220,22,o),
(297,-10,o),
(382,-10,cs),
(538,-10,o),
(642,98,o),
(642,260,cs),
(642,422,o),
(538,530,o),
(382,530,cs)
);
},
{
closed = 1;
nodes = (
(462,440,o),
(533,368,o),
(533,260,cs),
(533,152,o),
(462,80,o),
(357,80,cs),
(252,80,o),
(181,152,o),
(181,260,c),
(181,260,l),
(181,368,o),
(252,440,o),
(357,440,cs)
);
}
);
width = 678;
},
{
layerId = m003;
shapes = (
{
closed = 1;
nodes = (
(359,530,o),
(290,503,o),
(248,460,c),
(246,460,l),
(246,520,l),
(58,520,l),
(58,-230,l),
(256,-230,l),
(256,60,l),
(258,60,l),
(300,15,o),
(361,-10,o),
(428,-10,cs),
(566,-10,o),
(658,98,o),
(658,260,cs),
(658,422,o),
(566,530,o),
(428,530,cs)
);
},
{
closed = 1;
nodes = (
(418,363,o),
(460,320,o),
(460,260,cs),
(460,200,o),
(418,157,o),
(358,157,cs),
(298,157,o),
(256,200,o),
(256,260,c),
(256,260,l),
(256,320,o),
(298,363,o),
(358,363,cs)
);
}
);
width = 687;
},
{
layerId = m004;
name = "Thin F2";
shapes = (
{
closed = 1;
nodes = (
(217,530,o),
(145,485,o),
(108,412,c),
(106,412,l),
(106,520,l),
(86,520,l),
(86,-230,l),
(106,-230,l),
(106,108,l),
(108,108,l),
(145,35,o),
(217,-10,o),
(301,-10,cs),
(433,-10,o),
(516,97,o),
(516,260,cs),
(516,423,o),
(433,530,o),
(301,530,cs)
);
},
{
closed = 1;
nodes = (
(420,510,o),
(496,413,o),
(496,260,cs),
(496,107,o),
(420,10,o),
(301,10,cs),
(206,10,o),
(128,73,o),
(106,168,c),
(106,352,l),
(128,447,o),
(206,510,o),
(301,510,cs)
);
}
);
width = 559;
},
{
associatedMasterId = m004;
attr = {
coordinates = (
200,
100
);
};
layerId = "4542052A-5F31-4362-B451-0B9720437F60";
name = "Jun 20, 26 at 14:28";
shapes = (
{
closed = 1;
nodes = (
(234,530,o),
(163,492,o),
(126,431,c),
(124,431,l),
(124,520,l),
(83,520,l),
(83,-230,l),
(125,-230,l),
(125,89,l),
(127,89,l),
(165,26,o),
(236,-10,o),
(313,-10,cs),
(445,-10,o),
(528,96,o),
(528,260,cs),
(528,423,o),
(445,530,o),
(313,530,cs)
);
},
{
closed = 1;
nodes = (
(417,491,o),
(485,403,o),
(485,260,cs),
(485,117,o),
(417,29,o),
(308,29,cs),
(218,29,o),
(145,89,o),
(125,178,c),
(125,342,l),
(145,431,o),
(218,491,o),
(308,491,cs)
);
}
);
width = 570;
},
{
layerId = m005;
shapes = (
{
closed = 1;
nodes = (
(280,530,o),
(217,500,o),
(178,448,c),
(176,448,l),
(176,520,l),
(72,520,l),
(72,-230,l),
(181,-230,l),
(181,72,l),
(183,72,l),
(222,19,o),
(282,-10,o),
(350,-10,cs),
(480,-10,o),
(562,95,o),
(562,260,cs),
(562,425,o),
(480,530,o),
(350,530,cs)
);
},
{
closed = 1;
nodes = (
(409,434,o),
(453,373,o),
(453,260,cs),
(453,147,o),
(409,86,o),
(327,86,cs),
(254,86,o),
(197,134,o),
(181,208,c),
(181,312,l),
(197,386,o),
(254,434,o),
(327,434,cs)
);
}
);
width = 598;
},
{
layerId = m006;
name = "Black F2";
shapes = (
{
closed = 1;
nodes = (
(336,530,o),
(293,510,o),
(248,460,c),
(246,460,l),
(246,520,l),
(58,520,l),
(58,-230,l),
(256,-230,l),
(256,60,l),
(258,60,l),
(302,9,o),
(338,-10,o),
(395,-10,cs),
(527,-10,o),
(608,92,o),
(608,260,cs),
(608,428,o),
(527,530,o),
(395,530,cs)
);
},
{
closed = 1;
nodes = (
(384,378,o),
(410,339,o),
(410,260,cs),
(410,181,o),
(384,142,o),
(333,142,cs),
(296,142,o),
(265,162,o),
(256,193,c),
(256,327,l),
(265,358,o),
(296,378,o),
(333,378,cs)
);
}
);
width = 637;
}
);
metricLeft = "=h";
metricRight = "=o";
unicode = 112;
},
{
color = 4;
glyphname = q;
kernLeft = o;
kernRight = u;
lastChange = "2026-07-05 14:36:33 +0000";
layers = (
{
layerId = m01;
shapes = (
{
closed = 1;
nodes = (
(151,530,o),
(43,422,o),
(43,260,cs),
(43,98,o),
(151,-10,o),
(313,-10,cs),
(430,-10,o),
(521,46,o),
(561,144,c),
(563,144,l),
(563,-230,l),
(583,-230,l),
(583,520,l),
(563,520,l),
(563,376,l),
(561,376,l),
(521,474,o),
(430,530,o),
(313,530,cs)
);
},
{
closed = 1;
nodes = (
(464,510,o),
(563,411,o),
(563,260,c),
(563,260,l),
(563,109,o),
(464,10,o),
(313,10,cs),
(162,10,o),
(63,109,o),
(63,260,cs),
(63,411,o),
(162,510,o),
(313,510,cs)
);
}
);
width = 669;
},
{
associatedMasterId = m01;
attr = {
coordinates = (
200,
200
);
};
layerId = "46F1A50B-7C0C-4B23-8733-B6799256F0FB";
name = "Jun 20, 26 at 14:30";
shapes = (
{
closed = 1;
nodes = (
(148,530,o),
(41,422,o),
(41,260,cs),
(41,98,o),
(148,-10,o),
(308,-10,cs),
(416,-10,o),
(506,38,o),
(544,116,c),
(546,116,l),
(546,-230,l),
(589,-230,l),
(588,520,l),
(547,520,l),
(547,404,l),
(545,404,l),
(507,482,o),
(416,530,o),
(308,530,cs)
);
},
{
closed = 1;
nodes = (
(454,493,o),
(546,401,o),
(546,260,c),
(546,260,l),
(546,119,o),
(454,26,o),
(315,26,cs),
(175,26,o),
(83,119,o),
(83,260,cs),
(83,401,o),
(175,493,o),
(315,493,cs)
);
}
);
width = 672;
},
{
layerId = m002;
shapes = (
{
closed = 1;
nodes = (
(140,530,o),
(36,422,o),
(36,260,cs),
(36,98,o),
(140,-10,o),
(296,-10,cs),
(381,-10,o),
(458,22,o),
(495,72,c),
(497,72,l),
(497,-230,l),
(606,-230,l),
(606,520,l),
(502,520,l),
(502,448,l),
(500,448,l),
(461,498,o),
(381,530,o),
(296,530,cs)
);
},
{
closed = 1;
nodes = (
(426,440,o),
(497,368,o),
(497,260,c),
(497,260,l),
(497,152,o),
(426,80,o),
(321,80,cs),
(216,80,o),
(145,152,o),
(145,260,cs),
(145,368,o),
(216,440,o),
(321,440,cs)
);
}
);
width = 678;
},
{
layerId = m003;
shapes = (
{
closed = 1;
nodes = (
(121,530,o),
(29,422,o),
(29,260,cs),
(29,98,o),
(121,-10,o),
(259,-10,cs),
(326,-10,o),
(387,15,o),
(429,60,c),
(431,60,l),
(431,-230,l),
(629,-230,l),
(629,520,l),
(441,520,l),
(441,460,l),
(439,460,l),
(397,503,o),
(328,530,o),
(259,530,cs)
);
},
{
closed = 1;
nodes = (
(389,363,o),
(431,320,o),
(431,260,c),
(431,260,l),
(431,200,o),
(389,157,o),
(329,157,cs),
(269,157,o),
(227,200,o),
(227,260,cs),
(227,320,o),
(269,363,o),
(329,363,cs)
);
}
);
width = 687;
},
{
layerId = m004;
name = "Thin F2";
shapes = (
{
closed = 1;
nodes = (
(126,530,o),
(43,423,o),
(43,260,cs),
(43,97,o),
(126,-10,o),
(258,-10,cs),
(342,-10,o),
(414,35,o),
(451,108,c),
(453,108,l),
(453,-230,l),
(473,-230,l),
(473,520,l),
(453,520,l),
(453,412,l),
(451,412,l),
(414,485,o),
(342,530,o),
(258,530,cs)
);
},
{
closed = 1;
nodes = (
(353,510,o),
(431,447,o),
(453,352,c),
(453,168,l),
(431,73,o),
(353,10,o),
(258,10,cs),
(139,10,o),
(63,107,o),
(63,260,cs),
(63,413,o),
(139,510,o),
(258,510,cs)
);
}
);
width = 559;
},
{
associatedMasterId = m004;
attr = {
coordinates = (
200,
100
);
};
layerId = "4542052A-5F31-4362-B451-0B9720437F60";
name = "Jun 20, 26 at 14:28";
shapes = (
{
closed = 1;
nodes = (
(124,530,o),
(41,423,o),
(41,260,cs),
(41,96,o),
(124,-10,o),
(256,-10,cs),
(333,-10,o),
(404,26,o),
(442,89,c),
(444,89,l),
(444,-230,l),
(486,-230,l),
(486,520,l),
(445,520,l),
(445,431,l),
(443,431,l),
(406,492,o),
(335,530,o),
(256,530,cs)
);
},
{
closed = 1;
nodes = (
(351,491,o),
(424,431,o),
(444,342,c),
(444,178,l),
(424,89,o),
(351,29,o),
(261,29,cs),
(152,29,o),
(84,117,o),
(84,260,cs),
(84,403,o),
(152,491,o),
(261,491,cs)
);
}
);
width = 569;
},
{
layerId = m005;
shapes = (
{
closed = 1;
nodes = (
(118,530,o),
(36,425,o),
(36,260,cs),
(36,95,o),
(118,-10,o),
(248,-10,cs),
(316,-10,o),
(376,19,o),
(415,72,c),
(417,72,l),
(417,-230,l),
(526,-230,l),
(526,520,l),
(422,520,l),
(422,448,l),
(420,448,l),
(381,500,o),
(318,530,o),
(248,530,cs)
);
},
{
closed = 1;
nodes = (
(344,434,o),
(401,386,o),
(417,312,c),
(417,208,l),
(401,134,o),
(344,86,o),
(271,86,cs),
(189,86,o),
(145,147,o),
(145,260,cs),
(145,373,o),
(189,434,o),
(271,434,cs)
);
}
);
width = 598;
},
{
layerId = m006;
name = "Black F2";
shapes = (
{
closed = 1;
nodes = (
(110,530,o),
(29,428,o),
(29,260,cs),
(29,92,o),
(110,-10,o),
(242,-10,cs),
(299,-10,o),
(335,9,o),
(379,60,c),
(381,60,l),
(381,-230,l),
(579,-230,l),
(579,520,l),
(391,520,l),
(391,460,l),
(389,460,l),
(344,510,o),
(301,530,o),
(242,530,cs)
);
},
{
closed = 1;
nodes = (
(341,378,o),
(372,358,o),
(381,327,c),
(381,193,l),
(372,162,o),
(341,142,o),
(304,142,cs),
(253,142,o),
(227,181,o),
(227,260,cs),
(227,339,o),
(253,378,o),
(304,378,cs)
);
}
);
width = 637;
}
);
metricLeft = "=o";
metricRight = "=|h";
unicode = 113;
},
{
color = 4;
glyphname = r;
kernLeft = m;
kernRight = r;
lastChange = "2026-07-05 14:55:29 +0000";
layers = (
{
layerId = m01;
shapes = (
{
closed = 1;
nodes = (
(106,0,l),
(106,240,ls),
(106,417,o),
(192,510,o),
(356,510,c),
(356,530,l),
(229,530,o),
(145,478,o),
(108,376,c),
(106,376,l),
(106,520,l),
(86,520,l),
(86,0,l)
);
}
);
width = 374;
},
{
layerId = m002;
shapes = (
{
closed = 1;
nodes = (
(181,0,l),
(181,220,ls),
(181,367,o),
(254,435,o),
(412,435,c),
(412,530,l),
(307,530,o),
(227,495,o),
(178,428,c),
(176,428,l),
(176,520,l),
(72,520,l),
(72,0,l)
);
}
);
width = 427;
},
{
layerId = m003;
shapes = (
{
closed = 1;
nodes = (
(256,0,l),
(256,200,ls),
(256,316,o),
(314,360,o),
(468,360,c),
(468,530,l),
(385,530,o),
(309,499,o),
(248,440,c),
(246,440,l),
(246,520,l),
(58,520,l),
(58,0,l)
);
}
);
width = 480;
},
{
layerId = m004;
shapes = (
{
closed = 1;
nodes = (
(106,0,l),
(106,293,l),
(129,436,o),
(207,510,o),
(336,510,c),
(336,530,l),
(224,530,o),
(147,477,o),
(108,376,c),
(106,376,l),
(106,520,l),
(86,520,l),
(86,0,l)
);
}
);
width = 354;
},
{
layerId = m005;
shapes = (
{
closed = 1;
nodes = (
(181,0,l),
(181,298,l),
(204,391,o),
(272,435,o),
(392,435,c),
(392,530,l),
(300,530,o),
(224,494,o),
(178,428,c),
(176,428,l),
(176,520,l),
(72,520,l),
(72,0,l)
);
}
);
width = 407;
},
{
layerId = m006;
shapes = (
{
closed = 1;
nodes = (
(256,0,l),
(256,265,l),
(279,334,o),
(332,360,o),
(448,360,c),
(448,530,l),
(372,530,o),
(303,499,o),
(248,440,c),
(246,440,l),
(246,520,l),
(58,520,l),
(58,0,l)
);
}
);
width = 460;
},
{
associatedMasterId = m004;
attr = {
coordinates = (
200,
100
);
};
layerId = "B84F732E-EFF5-45B8-A523-5511923AEA33";
name = "Jul 4, 26 at 16:53";
shapes = (
{
closed = 1;
nodes = (
(125,0,l),
(125,294,l),
(148,425,o),
(223,491,o),
(350,491,c),
(350,530,l),
(243,530,o),
(167,489,o),
(126,409,c),
(124,409,l),
(124,520,l),
(83,520,l),
(83,0,l)
);
}
);
width = 367;
},
{
associatedMasterId = m01;
attr = {
coordinates = (
200,
200
);
};
layerId = "754E0805-38BC-423B-B5CC-BF79164602CD";
name = "Jul 4, 26 at 16:53";
shapes = (
{
closed = 1;
nodes = (
(125,0,l),
(125,235,ls),
(125,405,o),
(208,491,o),
(370,491,c),
(370,530,l),
(249,530,o),
(166,485,o),
(126,399,c),
(124,399,l),
(124,520,l),
(83,520,l),
(83,0,l)
);
}
);
width = 387;
}
);
metricLeft = "=h";
metricRight = "=H*.2";
unicode = 114;
},
{
color = 4;
glyphname = s;
kernLeft = s;
kernRight = s;
lastChange = "2026-07-06 02:21:22 +0000";
layers = (
{
layerId = m01;
shapes = (
{
closed = 1;
nodes = (
(342,-10,o),
(413,43,o),
(413,132,cs),
(413,331,o),
(63,232,o),
(63,398,cs),
(63,467,o),
(121,510,o),
(226,510,cs),
(287,510,o),
(351,495,o),
(387,473,c),
(397,490,l),
(358,514,o),
(290,530,o),
(226,530,cs),
(112,530,o),
(43,480,o),
(43,398,cs),
(43,211,o),
(393,311,o),
(393,132,cs),
(393,56,o),
(333,10,o),
(223,10,cs),
(161,10,o),
(98,25,o),
(54,50,c),
(44,33,l),
(92,6,o),
(158,-10,o),
(223,-10,cs)
);
}
);
width = 456;
},
{
layerId = m002;
shapes = (
{
closed = 1;
nodes = (
(375,-10,o),
(456,47,o),
(456,143,cs),
(456,335,o),
(141,285,o),
(141,383,cs),
(141,420,o),
(179,440,o),
(248,440,cs),
(303,440,o),
(364,427,o),
(421,405,c),
(439,491,l),
(383,517,o),
(320,530,o),
(251,530,cs),
(113,530,o),
(36,478,o),
(36,385,cs),
(36,194,o),
(349,247,o),
(349,144,cs),
(349,101,o),
(316,80,o),
(242,80,cs),
(182,80,o),
(115,94,o),
(56,118,c),
(38,32,l),
(93,6,o),
(168,-10,o),
(239,-10,cs)
);
}
);
width = 492;
},
{
layerId = m003;
shapes = (
{
closed = 1;
nodes = (
(417,-10,o),
(499,47,o),
(499,153,cs),
(499,336,o),
(229,302,o),
(229,367,cs),
(229,384,o),
(243,390,o),
(281,390,cs),
(327,390,o),
(382,379,o),
(451,356,c),
(481,492,l),
(410,520,o),
(358,530,o),
(287,530,cs),
(121,530,o),
(29,474,o),
(29,372,cs),
(29,188,o),
(296,215,o),
(296,155,cs),
(296,135,o),
(287,130,o),
(251,130,cs),
(199,130,o),
(131,143,o),
(63,166,c),
(33,30,l),
(95,6,o),
(187,-10,o),
(266,-10,cs)
);
}
);
width = 528;
},
{
layerId = m004;
shapes = (
{
closed = 1;
nodes = (
(326,-10,o),
(393,43,o),
(393,132,cs),
(393,330,o),
(63,235,o),
(63,398,cs),
(63,467,o),
(118,510,o),
(216,510,cs),
(274,510,o),
(333,495,o),
(367,473,c),
(378,490,l),
(341,514,o),
(277,530,o),
(216,530,cs),
(108,530,o),
(43,480,o),
(43,398,cs),
(43,217,o),
(373,309,o),
(373,132,cs),
(373,55,o),
(316,10,o),
(213,10,cs),
(154,10,o),
(96,25,o),
(54,50,c),
(44,33,l),
(89,6,o),
(151,-10,o),
(213,-10,cs)
);
}
);
width = 436;
},
{
layerId = m005;
shapes = (
{
closed = 1;
nodes = (
(360,-10,o),
(436,46,o),
(436,143,cs),
(436,339,o),
(147,282,o),
(147,390,cs),
(147,422,o),
(182,440,o),
(244,440,cs),
(294,440,o),
(348,428,o),
(397,405,c),
(419,491,l),
(365,517,o),
(306,530,o),
(240,530,cs),
(109,530,o),
(36,478,o),
(36,385,cs),
(36,197,o),
(325,250,o),
(325,137,cs),
(325,100,o),
(290,80,o),
(222,80,cs),
(168,80,o),
(111,93,o),
(60,118,c),
(38,32,l),
(90,5,o),
(161,-10,o),
(229,-10,cs)
);
}
);
width = 472;
},
{
layerId = m006;
shapes = (
{
closed = 1;
nodes = (
(395,-10,o),
(479,49,o),
(479,153,cs),
(479,336,o),
(231,302,o),
(231,367,cs),
(231,384,o),
(243,390,o),
(275,390,cs),
(317,390,o),
(367,379,o),
(434,356,c),
(462,492,l),
(392,519,o),
(335,530,o),
(265,530,cs),
(111,530,o),
(29,475,o),
(29,372,cs),
(29,188,o),
(277,215,o),
(277,155,cs),
(277,137,o),
(263,130,o),
(227,130,cs),
(180,130,o),
(122,143,o),
(60,166,c),
(32,30,l),
(91,5,o),
(171,-10,o),
(246,-10,cs)
);
}
);
width = 508;
}
);
metricLeft = "=h*.5";
metricRight = "=|";
unicode = 115;
},
{
color = 4;
glyphname = t;
kernLeft = f;
kernRight = c;
lastChange = "2026-07-05 15:14:45 +0000";
layers = (
{
layerId = m01;
shapes = (
{
closed = 1;
nodes = (
(353,-10,o),
(385,-7,o),
(414,3,c),
(414,25,l),
(386,15,o),
(354,10,o),
(318,10,cs),
(220,10,o),
(185,47,o),
(185,150,cs),
(185,500,l),
(424,500,l),
(424,520,l),
(185,520,l),
(185,690,l),
(165,690,l),
(165,520,l),
(34,520,l),
(34,500,l),
(165,500,l),
(165,150,ls),
(165,36,o),
(209,-10,o),
(318,-10,cs)
);
}
);
width = 493;
},
{
layerId = m002;
shapes = (
{
closed = 1;
nodes = (
(361,-10,o),
(399,-5,o),
(439,6,c),
(439,96,l),
(410,86,o),
(374,81,o),
(342,81,cs),
(272,81,o),
(250,105,o),
(250,181,cs),
(250,430,l),
(449,430,l),
(449,520,l),
(250,520,l),
(250,690,l),
(141,690,l),
(141,520,l),
(29,520,l),
(29,430,l),
(141,430,l),
(141,160,ls),
(141,38,o),
(192,-10,o),
(320,-10,cs)
);
}
);
width = 507;
},
{
layerId = m003;
shapes = (
{
closed = 1;
nodes = (
(369,-10,o),
(412,-4,o),
(463,10,c),
(463,166,l),
(429,157,o),
(393,151,o),
(365,151,cs),
(324,151,o),
(313,163,o),
(313,211,cs),
(313,360,l),
(473,360,l),
(473,520,l),
(313,520,l),
(313,690,l),
(115,690,l),
(115,520,l),
(23,520,l),
(23,360,l),
(115,360,l),
(115,170,ls),
(115,42,o),
(174,-10,o),
(320,-10,cs)
);
}
);
width = 519;
},
{
layerId = m004;
shapes = (
{
closed = 1;
nodes = (
(292,-10,o),
(316,-6,o),
(344,4,c),
(344,25,l),
(315,14,o),
(292,10,o),
(264,10,cs),
(182,10,o),
(154,46,o),
(154,150,cs),
(154,500,l),
(344,500,l),
(344,520,l),
(154,520,l),
(154,690,l),
(134,690,l),
(134,520,l),
(34,520,l),
(34,500,l),
(134,500,l),
(134,150,ls),
(134,36,o),
(169,-10,o),
(264,-10,cs)
);
}
);
width = 413;
},
{
layerId = m005;
shapes = (
{
closed = 1;
nodes = (
(310,-10,o),
(340,-5,o),
(379,6,c),
(379,96,l),
(359,86,o),
(330,81,o),
(303,81,cs),
(246,81,o),
(229,104,o),
(229,181,cs),
(229,430,l),
(379,430,l),
(379,520,l),
(229,520,l),
(229,690,l),
(120,690,l),
(120,520,l),
(29,520,l),
(29,430,l),
(120,430,l),
(120,160,ls),
(120,39,o),
(165,-10,o),
(275,-10,cs)
);
}
);
width = 437;
},
{
layerId = m006;
shapes = (
{
closed = 1;
nodes = (
(329,-10,o),
(368,-4,o),
(413,10,c),
(413,166,l),
(394,157,o),
(363,151,o),
(341,151,cs),
(310,151,o),
(303,162,o),
(303,211,cs),
(303,360,l),
(413,360,l),
(413,520,l),
(303,520,l),
(303,690,l),
(105,690,l),
(105,520,l),
(23,520,l),
(23,360,l),
(105,360,l),
(105,170,ls),
(105,43,o),
(158,-10,o),
(286,-10,cs)
);
}
);
width = 459;
}
);
metricLeft = "=f";
metricRight = "=c";
unicode = 116;
},
{
color = 4;
glyphname = u;
kernLeft = u;
kernRight = n;
lastChange = "2026-07-05 15:11:12 +0000";
layers = (
{
layerId = m01;
shapes = (
{
closed = 1;
nodes = (
(377,-10,o),
(451,32,o),
(487,108,c),
(489,108,l),
(489,0,l),
(509,0,l),
(509,520,l),
(489,520,l),
(489,214,ls),
(489,88,o),
(409,10,o),
(279,10,cs),
(155,10,o),
(89,81,o),
(89,214,cs),
(89,520,l),
(69,520,l),
(69,214,ls),
(69,70,o),
(144,-10,o),
(279,-10,cs)
);
}
);
width = 595;
},
{
layerId = m002;
shapes = (
{
closed = 1;
nodes = (
(346,-10,o),
(415,21,o),
(452,72,c),
(454,72,l),
(454,0,l),
(558,0,l),
(558,520,l),
(449,520,l),
(449,265,ls),
(449,154,o),
(390,86,o),
(294,86,cs),
(210,86,o),
(167,137,o),
(167,235,cs),
(167,520,l),
(58,520,l),
(58,207,ls),
(58,73,o),
(138,-10,o),
(267,-10,cs)
);
}
);
width = 630;
},
{
layerId = m003;
shapes = (
{
closed = 1;
nodes = (
(318,-10,o),
(375,14,o),
(416,60,c),
(418,60,l),
(418,0,l),
(606,0,l),
(606,520,l),
(408,520,l),
(408,255,ls),
(408,194,o),
(379,162,o),
(326,162,cs),
(273,162,o),
(244,194,o),
(244,255,cs),
(244,520,l),
(46,520,l),
(46,200,ls),
(46,75,o),
(130,-10,o),
(253,-10,cs)
);
}
);
width = 664;
},
{
layerId = m004;
name = "Thin F2";
shapes = (
{
closed = 1;
nodes = (
(320,-10,o),
(382,34,o),
(417,108,c),
(419,108,l),
(419,0,l),
(439,0,l),
(439,520,l),
(419,520,l),
(419,170,l),
(395,70,o),
(329,10,o),
(243,10,cs),
(136,10,o),
(89,74,o),
(89,220,cs),
(89,520,l),
(69,520,l),
(69,220,ls),
(69,65,o),
(123,-10,o),
(243,-10,cs)
);
}
);
width = 525;
},
{
layerId = m005;
shapes = (
{
closed = 1;
nodes = (
(294,-10,o),
(351,18,o),
(392,72,c),
(394,72,l),
(394,0,l),
(498,0,l),
(498,520,l),
(389,520,l),
(389,186,l),
(369,122,o),
(323,86,o),
(263,86,cs),
(196,86,o),
(167,130,o),
(167,230,cs),
(167,520,l),
(58,520,l),
(58,220,ls),
(58,64,o),
(112,-10,o),
(225,-10,cs)
);
}
);
width = 570;
},
{
layerId = m006;
name = "Black F2";
shapes = (
{
closed = 1;
nodes = (
(266,-10,o),
(320,14,o),
(366,60,c),
(368,60,l),
(368,0,l),
(556,0,l),
(556,520,l),
(358,520,l),
(358,205,l),
(351,173,o),
(334,154,o),
(303,154,cs),
(266,154,o),
(244,183,o),
(244,232,cs),
(244,520,l),
(46,520,l),
(46,220,ls),
(46,68,o),
(101,-10,o),
(207,-10,cs)
);
}
);
width = 614;
},
{
associatedMasterId = m004;
attr = {
coordinates = (
200,
100
);
};
layerId = "DBFFBCB2-45B6-47F5-99BE-56E40808C34B";
name = "Jun 21, 26 at 16:31";
shapes = (
{
closed = 1;
nodes = (
(316,-10,o),
(372,23,o),
(410,89,c),
(412,89,l),
(412,0,l),
(453,0,l),
(453,520,l),
(411,520,l),
(411,174,l),
(388,83,o),
(327,29,o),
(247,29,cs),
(150,29,o),
(108,88,o),
(108,223,cs),
(108,520,l),
(66,520,l),
(66,220,ls),
(66,65,o),
(120,-10,o),
(238,-10,cs)
);
}
);
width = 536;
},
{
associatedMasterId = m01;
attr = {
coordinates = (
200,
200
);
};
layerId = "81FA8989-86D4-442E-9BF5-DE0B1DCBA8C0";
name = "Jun 21, 26 at 20:34";
shapes = (
{
closed = 1;
nodes = (
(367,-10,o),
(443,27,o),
(478,89,c),
(480,89,l),
(480,0,l),
(521,0,l),
(521,520,l),
(479,520,l),
(479,227,ls),
(479,105,o),
(404,29,o),
(283,29,cs),
(169,29,o),
(108,95,o),
(108,219,cs),
(108,520,l),
(66,520,l),
(66,212,ls),
(66,71,o),
(142,-10,o),
(276,-10,cs)
);
}
);
width = 604;
}
);
metricLeft = "=|n";
metricRight = "=|n";
unicode = 117;
},
{
color = 4;
glyphname = v;
kernLeft = v;
kernRight = v;
lastChange = "2026-07-06 03:04:07 +0000";
layers = (
{
layerId = m01;
shapes = (
{
closed = 1;
nodes = (
(281,0,l),
(529,520,l),
(506,520,l),
(280,44,l),
(270,23,l),
(268,23,l),
(258,44,l),
(32,520,l),
(9,520,l),
(257,0,l)
);
}
);
width = 538;
},
{
layerId = m002;
shapes = (
{
closed = 1;
nodes = (
(367,0,l),
(577,520,l),
(461,520,l),
(314,142,l),
(293,87,l),
(291,87,l),
(270,142,l),
(123,520,l),
(7,520,l),
(217,0,l)
);
}
);
width = 584;
},
{
layerId = m003;
shapes = (
{
closed = 1;
nodes = (
(453,0,l),
(626,520,l),
(416,520,l),
(329,197,l),
(317,150,l),
(315,150,l),
(303,197,l),
(216,520,l),
(6,520,l),
(179,0,l)
);
}
);
width = 632;
},
{
layerId = m004;
shapes = (
{
closed = 1;
nodes = (
(248,0,l),
(459,520,l),
(437,520,l),
(243,40,l),
(235,18,l),
(233,18,l),
(225,40,l),
(31,520,l),
(9,520,l),
(220,0,l)
);
}
);
width = 468;
},
{
layerId = m005;
shapes = (
{
closed = 1;
nodes = (
(337,0,l),
(517,520,l),
(401,520,l),
(273,114,l),
(263,79,l),
(261,79,l),
(251,114,l),
(123,520,l),
(7,520,l),
(187,0,l)
);
}
);
width = 524;
},
{
layerId = m006;
shapes = (
{
closed = 1;
nodes = (
(428,0,l),
(576,520,l),
(366,520,l),
(301,187,l),
(292,140,l),
(290,140,l),
(281,187,l),
(216,520,l),
(6,520,l),
(154,0,l)
);
}
);
width = 582;
}
);
metricLeft = "=h*.1";
metricRight = "=|";
unicode = 118;
},
{
color = 4;
glyphname = w;
kernLeft = v;
kernRight = v;
lastChange = "2026-07-06 05:40:28 +0000";
layers = (
{
layerId = m01;
shapes = (
{
closed = 1;
nodes = (
(260,0,l),
(457,501,l),
(459,501,l),
(656,0,l),
(686,0,l),
(898,520,l),
(876,520,l),
(683,46,l),
(672,19,l),
(670,19,l),
(659,47,l),
(473,520,l),
(473,520,l),
(473,520,l),
(443,520,l),
(443,520,l),
(443,520,l),
(257,47,l),
(246,19,l),
(244,19,l),
(233,46,l),
(40,520,l),
(18,520,l),
(230,0,l)
);
}
);
width = 916;
},
{
associatedMasterId = m01;
attr = {
axisRules = (
{
max = 300;
min = 100;
},
{
max = 200;
min = 150;
}
);
};
background = {
shapes = (
{
closed = 1;
nodes = (
(284,0,l),
(595,520,l),
(572,520,l),
(294,55,l),
(274,20,l),
(272,20,l),
(246,76,l),
(40,520,l),
(18,520,l),
(259,0,l)
);
},
{
closed = 1;
nodes = (
(617,0,l),
(858,520,l),
(836,520,l),
(630,76,l),
(604,20,l),
(602,20,l),
(582,55,l),
(304,520,l),
(281,520,l),
(592,0,l)
);
}
);
};
layerId = "5BFF2A28-A5EB-47F3-BC50-DE6A2FB4DB15";
name = "Jul 2, 26 at 14:32";
shapes = (
{
closed = 1;
nodes = (
(284,0,l),
(438,257,l),
(592,0,l),
(617,0,l),
(858,520,l),
(836,520,l),
(630,76,l),
(604,20,l),
(602,20,l),
(582,55,l),
(449,277,l),
(595,520,l),
(572,520,l),
(438,296,l),
(304,520,l),
(281,520,l),
(427,277,l),
(294,55,l),
(274,20,l),
(272,20,l),
(246,76,l),
(40,520,l),
(18,520,l),
(259,0,l)
);
}
);
width = 876;
},
{
layerId = m002;
shapes = (
{
closed = 1;
nodes = (
(335,0,l),
(463,415,l),
(465,415,l),
(593,0,l),
(733,0,l),
(914,520,l),
(797,520,l),
(681,159,l),
(664,105,l),
(662,105,l),
(647,154,l),
(534,520,l),
(534,520,l),
(534,520,l),
(394,520,l),
(394,520,l),
(394,520,l),
(281,154,l),
(266,105,l),
(264,105,l),
(247,159,l),
(131,520,l),
(14,520,l),
(195,0,l)
);
}
);
width = 928;
},
{
associatedMasterId = m002;
attr = {
axisRules = (
{
max = 300;
min = 100;
},
{
max = 200;
min = 150;
}
);
};
background = {
shapes = (
{
closed = 1;
nodes = (
(384,0,l),
(674,520,l),
(560,520,l),
(347,138,l),
(316,79,l),
(314,79,l),
(293,130,l),
(128,520,l),
(14,520,l),
(234,0,l)
);
},
{
closed = 1;
nodes = (
(714,0,l),
(934,520,l),
(820,520,l),
(655,130,l),
(634,79,l),
(632,79,l),
(601,138,l),
(388,520,l),
(274,520,l),
(564,0,l)
);
}
);
};
layerId = "7F389CAB-D9EF-4772-B934-62F4EF3EEBF2";
name = "Jul 2, 26 at 14:32";
shapes = (
{
closed = 1;
nodes = (
(384,0,l),
(474,181,l),
(564,0,l),
(714,0,l),
(934,520,l),
(820,520,l),
(655,130,l),
(634,79,l),
(632,79,l),
(601,138,l),
(531,264,l),
(674,520,l),
(560,520,l),
(474,346,l),
(388,520,l),
(274,520,l),
(417,264,l),
(347,138,l),
(316,79,l),
(314,79,l),
(293,130,l),
(128,520,l),
(14,520,l),
(234,0,l)
);
}
);
width = 948;
},
{
background = {
shapes = (
{
closed = 1;
nodes = (
(411,0,l),
(471,350,l),
(473,350,l),
(533,0,l),
(783,0,l),
(932,520,l),
(720,520,l),
(660,170,l),
(658,170,l),
(598,520,l),
(598,520,l),
(598,520,l),
(598,520,l),
(598,520,l),
(346,520,l),
(346,520,l),
(346,520,l),
(346,520,l),
(346,520,l),
(286,170,l),
(284,170,l),
(224,520,l),
(12,520,l),
(161,0,l)
);
}
);
};
layerId = m003;
shapes = (
{
closed = 1;
nodes = (
(411,0,l),
(471,350,l),
(473,350,l),
(533,0,l),
(783,0,l),
(932,520,l),
(720,520,l),
(668,218,l),
(660,170,l),
(658,170,l),
(650,218,l),
(598,520,l),
(598,520,l),
(598,520,l),
(346,520,l),
(346,520,l),
(346,520,l),
(294,218,l),
(286,170,l),
(284,170,l),
(276,218,l),
(224,520,l),
(12,520,l),
(161,0,l)
);
}
);
width = 944;
},
{
layerId = m004;
name = "Thin F2";
shapes = (
{
closed = 1;
nodes = (
(208,0,l),
(347,498,l),
(349,498,l),
(488,0,l),
(518,0,l),
(678,520,l),
(657,520,l),
(519,71,l),
(504,22,l),
(502,22,l),
(481,98,l),
(363,520,l),
(363,520,l),
(363,520,l),
(333,520,l),
(333,520,l),
(333,520,l),
(215,98,l),
(194,22,l),
(192,22,l),
(177,71,l),
(39,520,l),
(18,520,l),
(178,0,l)
);
}
);
width = 696;
},
{
associatedMasterId = m004;
attr = {
axisRules = (
{
max = 300;
min = 100;
},
{
max = 200;
min = 150;
}
);
};
background = {
shapes = (
{
closed = 1;
nodes = (
(284,0,l),
(575,520,l),
(552,520,l),
(300,70,l),
(273,21,l),
(271,21,l),
(246,76,l),
(40,520,l),
(18,520,l),
(259,0,l)
);
},
{
closed = 1;
nodes = (
(577,0,l),
(818,520,l),
(796,520,l),
(590,76,l),
(565,21,l),
(563,21,l),
(536,70,l),
(284,520,l),
(261,520,l),
(552,0,l)
);
}
);
};
layerId = "FD7FF068-7DB1-4934-B33C-DDACFAB29FC6";
name = "Jul 2, 26 at 14:53";
shapes = (
{
closed = 1;
nodes = (
(284,0,l),
(418,239,l),
(552,0,l),
(577,0,l),
(818,520,l),
(796,520,l),
(590,76,l),
(565,21,l),
(563,21,l),
(536,70,l),
(430,260,l),
(575,520,l),
(552,520,l),
(418,281,l),
(284,520,l),
(261,520,l),
(406,260,l),
(300,70,l),
(273,21,l),
(271,21,l),
(246,76,l),
(40,520,l),
(18,520,l),
(259,0,l)
);
}
);
width = 836;
},
{
layerId = m005;
name = "Medium F2";
shapes = (
{
closed = 1;
nodes = (
(290,0,l),
(368,390,l),
(370,390,l),
(448,0,l),
(582,0,l),
(724,520,l),
(612,520,l),
(530,189,l),
(516,130,l),
(514,130,l),
(504,188,l),
(436,520,l),
(436,520,l),
(436,520,l),
(302,520,l),
(302,520,l),
(302,520,l),
(234,188,l),
(224,130,l),
(222,130,l),
(208,189,l),
(126,520,l),
(14,520,l),
(156,0,l)
);
}
);
width = 738;
},
{
associatedMasterId = m005;
attr = {
axisRules = (
{
max = 300;
min = 100;
},
{
max = 200;
min = 150;
}
);
};
background = {
shapes = (
{
closed = 1;
nodes = (
(374,0,l),
(654,520,l),
(540,520,l),
(328,126,l),
(306,82,l),
(304,82,l),
(285,131,l),
(128,520,l),
(14,520,l),
(224,0,l)
);
},
{
closed = 1;
nodes = (
(684,0,l),
(894,520,l),
(780,520,l),
(623,131,l),
(604,82,l),
(602,82,l),
(580,126,l),
(368,520,l),
(254,520,l),
(534,0,l)
);
}
);
};
layerId = "54609187-C85F-413B-BF59-C07B1D964E2A";
name = "Jul 2, 26 at 14:54";
shapes = (
{
closed = 1;
nodes = (
(374,0,l),
(454,169,l),
(534,0,l),
(684,0,l),
(894,520,l),
(780,520,l),
(623,131,l),
(604,82,l),
(602,82,l),
(580,126,l),
(511,254,l),
(654,520,l),
(540,520,l),
(454,340,l),
(368,520,l),
(254,520,l),
(397,254,l),
(328,126,l),
(306,82,l),
(304,82,l),
(285,131,l),
(128,520,l),
(14,520,l),
(224,0,l)
);
}
);
width = 908;
},
{
layerId = m006;
name = "Black F2";
shapes = (
{
closed = 1;
nodes = (
(352,0,l),
(391,340,l),
(393,340,l),
(432,0,l),
(640,0,l),
(772,520,l),
(578,520,l),
(546,228,l),
(541,180,l),
(539,180,l),
(534,228,l),
(496,520,l),
(496,520,l),
(496,520,l),
(288,520,l),
(288,520,l),
(288,520,l),
(250,228,l),
(245,180,l),
(243,180,l),
(238,228,l),
(206,520,l),
(12,520,l),
(144,0,l)
);
}
);
width = 784;
}
);
metricLeft = "=v*2";
metricRight = "=|";
unicode = 119;
},
{
color = 4;
glyphname = x;
kernLeft = x;
kernRight = x;
lastChange = "2026-07-05 15:14:54 +0000";
layers = (
{
layerId = m01;
shapes = (
{
closed = 1;
nodes = (
(48,0,l),
(276,247,l),
(278,247,l),
(506,0,l),
(537,0,l),
(291,263,l),
(532,520,l),
(501,520,l),
(278,279,l),
(276,279,l),
(53,520,l),
(22,520,l),
(263,263,l),
(17,0,l)
);
}
);
width = 554;
},
{
layerId = m002;
shapes = (
{
closed = 1;
nodes = (
(140,0,l),
(292,214,l),
(296,214,l),
(448,0,l),
(574,0,l),
(376,262,l),
(572,520,l),
(446,520,l),
(296,310,l),
(292,310,l),
(142,520,l),
(16,520,l),
(212,262,l),
(14,0,l)
);
}
);
width = 588;
},
{
layerId = m003;
shapes = (
{
closed = 1;
nodes = (
(226,0,l),
(311,180,l),
(313,180,l),
(398,0,l),
(612,0,l),
(462,260,l),
(612,520,l),
(398,520,l),
(313,340,l),
(311,340,l),
(226,520,l),
(12,520,l),
(162,260,l),
(12,0,l)
);
}
);
width = 624;
},
{
layerId = m004;
shapes = (
{
closed = 1;
nodes = (
(43,0,l),
(236,247,l),
(238,247,l),
(431,0,l),
(457,0,l),
(250,263,l),
(452,520,l),
(426,520,l),
(238,279,l),
(236,279,l),
(48,520,l),
(22,520,l),
(224,263,l),
(17,0,l)
);
}
);
width = 474;
},
{
layerId = m005;
shapes = (
{
closed = 1;
nodes = (
(138,0,l),
(258,204,l),
(260,204,l),
(380,0,l),
(504,0,l),
(333,262,l),
(502,520,l),
(378,520,l),
(260,320,l),
(258,320,l),
(140,520,l),
(16,520,l),
(185,262,l),
(14,0,l)
);
}
);
width = 518;
},
{
layerId = m006;
shapes = (
{
closed = 1;
nodes = (
(214,0,l),
(281,160,l),
(283,160,l),
(350,0,l),
(552,0,l),
(417,260,l),
(552,520,l),
(350,520,l),
(283,360,l),
(281,360,l),
(214,520,l),
(12,520,l),
(147,260,l),
(12,0,l)
);
}
);
width = 564;
}
);
metricLeft = "=|k";
metricRight = "=|";
unicode = 120;
},
{
color = 4;
glyphname = y;
kernLeft = v;
kernRight = v;
lastChange = "2026-07-06 04:37:38 +0000";
layers = (
{
layerId = m01;
shapes = (
{
closed = 1;
nodes = (
(146,-230,l),
(176,-168,o),
(206,-107,o),
(236,-45,c),
(509,520,l),
(486,520,l),
(270,72,l),
(252,34,l),
(250,34,l),
(238,62,l),
(31,520,l),
(9,520,l),
(244,1,l),
(241,12,l),
(202,-69,o),
(163,-149,o),
(124,-230,c)
);
}
);
width = 518;
},
{
layerId = m002;
shapes = (
{
closed = 1;
nodes = (
(244,-230,l),
(272,-165,o),
(300,-100,o),
(328,-35,c),
(567,520,l),
(451,520,l),
(311,171,l),
(285,106,l),
(283,106,l),
(258,173,l),
(123,520,l),
(7,520,l),
(247,-41,l),
(250,38,l),
(210,-51,o),
(170,-141,o),
(130,-230,c)
);
}
);
width = 574;
},
{
layerId = m003;
shapes = (
{
closed = 1;
nodes = (
(342,-230,l),
(365,-169,o),
(389,-107,o),
(412,-46,c),
(626,520,l),
(416,520,l),
(334,219,l),
(321,170,l),
(319,170,l),
(305,219,l),
(216,520,l),
(6,520,l),
(251,-84,l),
(259,64,l),
(218,-34,o),
(177,-132,o),
(136,-230,c)
);
}
);
width = 632;
},
{
layerId = m004;
shapes = (
{
closed = 1;
nodes = (
(138,-230,l),
(166,-168,o),
(194,-107,o),
(222,-45,c),
(479,520,l),
(457,520,l),
(254,73,l),
(238,37,l),
(236,37,l),
(225,63,l),
(30,520,l),
(9,520,l),
(230,1,l),
(229,18,l),
(191,-65,o),
(154,-147,o),
(116,-230,c)
);
}
);
width = 488;
},
{
layerId = m005;
shapes = (
{
closed = 1;
nodes = (
(232,-230,l),
(257,-169,o),
(281,-109,o),
(306,-48,c),
(537,520,l),
(421,520,l),
(286,147,l),
(272,107,l),
(270,107,l),
(258,142,l),
(123,520,l),
(7,520,l),
(234,-41,l),
(233,41,l),
(194,-50,o),
(156,-140,o),
(118,-230,c)
);
}
);
width = 544;
},
{
layerId = m006;
shapes = (
{
closed = 1;
nodes = (
(326,-230,l),
(348,-169,o),
(370,-107,o),
(392,-46,c),
(596,520,l),
(386,520,l),
(318,220,l),
(306,166,l),
(304,166,l),
(291,220,l),
(216,520,l),
(6,520,l),
(239,-84,l),
(237,64,l),
(198,-34,o),
(159,-132,o),
(120,-230,c)
);
}
);
width = 602;
},
{
associatedMasterId = m01;
attr = {
axisRules = (
{
},
{
max = 150;
min = 100;
}
);
};
layerId = "05AD52A5-A688-442F-8632-3D991EBE4103";
name = "Jul 2, 26 at 17:43";
shapes = (
{
closed = 1;
nodes = (
(27,-250,l),
(145,-199,o),
(200,-141,o),
(260,1,cs),
(479,520,l),
(457,520,l),
(258,45,l),
(250,26,l),
(248,26,l),
(241,42,l),
(31,520,l),
(9,520,l),
(243,-10,l),
(242,9,l),
(184,-128,o),
(132,-183,o),
(19,-232,c)
);
}
);
width = 488;
},
{
associatedMasterId = m002;
attr = {
axisRules = (
{
},
{
max = 150;
min = 100;
}
);
};
layerId = "62C5FE96-8B67-416E-8B85-F331AD4025BA";
name = "Jul 2, 26 at 17:43";
shapes = (
{
closed = 1;
nodes = (
(108,-250,l),
(221,-190,o),
(288,-116,o),
(335,1,cs),
(537,520,l),
(421,520,l),
(296,159,l),
(279,108,l),
(277,108,l),
(259,159,l),
(123,520,l),
(7,520,l),
(246,-35,l),
(240,43,l),
(203,-60,o),
(148,-120,o),
(44,-170,c)
);
}
);
width = 544;
},
{
associatedMasterId = m003;
attr = {
axisRules = (
{
},
{
max = 150;
min = 100;
}
);
};
layerId = "E71C6179-5698-4260-8380-EB811EB30242";
name = "Jul 2, 26 at 17:43";
shapes = (
{
closed = 1;
nodes = (
(189,-250,l),
(296,-182,o),
(377,-90,o),
(410,1,cs),
(596,520,l),
(386,520,l),
(319,227,l),
(309,181,l),
(307,181,l),
(295,227,l),
(216,520,l),
(6,520,l),
(249,-60,l),
(239,77,l),
(222,7,o),
(164,-55,o),
(67,-108,c)
);
}
);
width = 602;
},
{
associatedMasterId = m006;
attr = {
axisRules = (
{
},
{
max = 150;
min = 100;
}
);
};
layerId = "6BCCC6ED-199A-4AB9-A8D2-347BBFF9794E";
name = "Black F1 [100‹wd‹150] Jul 6, 26 at 12:51";
shapes = (
{
closed = 1;
nodes = (
(109,-250,l),
(319,-173,o),
(357,-129,o),
(447,138,cs),
(576,520,l),
(366,520,l),
(305,209,l),
(299,176,l),
(297,176,l),
(288,217,l),
(216,520,l),
(6,520,l),
(241,-75,l),
(225,51,l),
(210,-37,o),
(191,-53,o),
(43,-102,c)
);
}
);
width = 582;
},
{
associatedMasterId = m004;
attr = {
axisRules = (
{
},
{
max = 150;
min = 100;
}
);
};
layerId = "4298DB5E-DC43-442E-9D3F-775B5C1883BD";
name = "Thin F1 [100‹wd‹150] Jul 6, 26 at 12:55";
shapes = (
{
closed = 1;
nodes = (
(46,-250,l),
(149,-199,o),
(194,-135,o),
(285,90,cs),
(459,520,l),
(437,520,l),
(245,46,l),
(239,30,l),
(237,30,l),
(231,45,l),
(31,520,l),
(9,520,l),
(233,-10,l),
(229,9,l),
(162,-142,o),
(120,-191,o),
(37,-232,c)
);
}
);
width = 468;
},
{
associatedMasterId = m005;
attr = {
axisRules = (
{
},
{
max = 150;
min = 100;
}
);
};
background = {
shapes = (
{
closed = 0;
nodes = (
(409,-254,l),
(266,133,l),
(123,520,l)
);
},
{
closed = 0;
nodes = (
(213,-292,l),
(517,520,l)
);
},
{
closed = 0;
nodes = (
(97,-292,l),
(401,520,l),
(268,133,l),
(135,-254,l)
);
}
);
};
layerId = "86B41C46-702E-4CF9-B057-F0B2A64CCEBE";
name = "Medium F1 [100‹wd‹150] Jul 6, 26 at 13:25";
shapes = (
{
closed = 1;
nodes = (
(77,-250,l),
(233,-186,o),
(274,-133,o),
(365,114,cs),
(517,520,l),
(401,520,l),
(289,194,l),
(268,130,l),
(266,130,l),
(252,171,l),
(123,520,l),
(7,520,l),
(236,-42,l),
(228,42,l),
(183,-76,o),
(158,-103,o),
(31,-162,c)
);
}
);
width = 524;
}
);
metricLeft = "=v";
metricRight = "=|";
unicode = 121;
},
{
color = 4;
glyphname = z;
kernLeft = z;
kernRight = z;
lastChange = "2026-07-06 05:11:42 +0000";
layers = (
{
layerId = m01;
shapes = (
{
closed = 1;
nodes = (
(422,0,l),
(422,20,l),
(78,20,l),
(78,22,l),
(422,500,l),
(422,520,l),
(52,520,l),
(52,500,l),
(396,500,l),
(396,498,l),
(52,20,l),
(52,0,l)
);
}
);
width = 474;
},
{
layerId = m002;
shapes = (
{
closed = 1;
nodes = (
(453,0,l),
(453,88,l),
(179,88,l),
(179,90,l),
(453,432,l),
(453,520,l),
(43,520,l),
(43,432,l),
(317,432,l),
(317,430,l),
(43,88,l),
(43,0,l)
);
}
);
width = 496;
},
{
layerId = m003;
shapes = (
{
closed = 1;
nodes = (
(485,0,l),
(485,156,l),
(277,156,l),
(277,158,l),
(485,364,l),
(485,520,l),
(35,520,l),
(35,364,l),
(243,364,l),
(243,362,l),
(35,156,l),
(35,0,l)
);
}
);
width = 520;
},
{
layerId = m004;
shapes = (
{
closed = 1;
nodes = (
(422,0,l),
(422,20,l),
(78,20,l),
(78,22,l),
(422,500,l),
(422,520,l),
(52,520,l),
(52,500,l),
(396,500,l),
(396,498,l),
(52,20,l),
(52,0,l)
);
}
);
width = 474;
},
{
layerId = m005;
shapes = (
{
closed = 1;
nodes = (
(453,0,l),
(453,88,l),
(171,88,l),
(171,90,l),
(453,432,l),
(453,520,l),
(43,520,l),
(43,432,l),
(325,432,l),
(325,430,l),
(43,88,l),
(43,0,l)
);
}
);
width = 496;
},
{
layerId = m006;
shapes = (
{
closed = 1;
nodes = (
(485,0,l),
(485,156,l),
(265,156,l),
(265,158,l),
(485,364,l),
(485,520,l),
(35,520,l),
(35,364,l),
(255,364,l),
(255,362,l),
(35,156,l),
(35,0,l)
);
}
);
width = 520;
}
);
metricLeft = "=h*.6";
metricRight = "=|";
unicode = 122;
},
{
export = 0;
glyphname = m.001;
kernLeft = m;
kernRight = h;
lastChange = "2026-07-06 05:48:26 +0000";
layers = (
{
layerId = m002;
shapes = (
{
closed = 1;
nodes = (
(180,0,l),
(180,256,ls),
(180,370,o),
(230,434,o),
(319,434,cs),
(403,434,o),
(448,382,o),
(448,286,cs),
(448,0,l),
(556,0,l),
(556,256,ls),
(556,370,o),
(606,434,o),
(695,434,cs),
(779,434,o),
(824,382,o),
(824,286,cs),
(824,0,l),
(932,0,l),
(932,313,ls),
(932,450,o),
(858,530,o),
(731,530,cs),
(644,530,o),
(564,492,o),
(524,432,c),
(522,432,l),
(491,497,o),
(434,530,o),
(354,530,cs),
(277,530,o),
(210,499,o),
(177,448,c),
(175,448,l),
(175,520,l),
(72,520,l),
(72,0,l)
);
}
);
width = 990;
},
{
layerId = m003;
shapes = (
{
closed = 1;
nodes = (
(255,0,l),
(255,265,ls),
(255,326,o),
(282,358,o),
(333,358,cs),
(384,358,o),
(411,326,o),
(411,265,cs),
(411,0,l),
(605,0,l),
(605,265,ls),
(605,326,o),
(632,358,o),
(683,358,cs),
(734,358,o),
(761,326,o),
(761,265,cs),
(761,0,l),
(958,0,l),
(958,320,ls),
(958,450,o),
(881,530,o),
(756,530,cs),
(682,530,o),
(602,502,o),
(557,460,c),
(555,460,l),
(519,505,o),
(465,530,o),
(402,530,cs),
(340,530,o),
(286,506,o),
(247,460,c),
(245,460,l),
(245,520,l),
(58,520,l),
(58,0,l)
);
}
);
width = 1004;
},
{
layerId = m004;
name = "Thin F2";
shapes = (
{
closed = 1;
nodes = (
(106,0,l),
(106,352,l),
(128,448,o),
(197,510,o),
(282,510,cs),
(376,510,o),
(426,436,o),
(426,300,cs),
(426,0,l),
(446,0,l),
(446,352,l),
(468,448,o),
(537,510,o),
(622,510,cs),
(716,510,o),
(766,436,o),
(766,300,cs),
(766,0,l),
(786,0,l),
(786,300,ls),
(786,445,o),
(729,530,o),
(622,530,cs),
(539,530,o),
(470,478,o),
(438,393,c),
(436,393,l),
(416,481,o),
(364,530,o),
(282,530,cs),
(206,530,o),
(142,485,o),
(108,412,c),
(106,412,l),
(106,520,l),
(86,520,l),
(86,0,l)
);
}
);
width = 855;
},
{
layerId = m005;
shapes = (
{
closed = 1;
nodes = (
(180,0,l),
(180,334,l),
(201,399,o),
(247,438,o),
(302,438,cs),
(364,438,o),
(393,392,o),
(393,294,cs),
(393,0,l),
(501,0,l),
(501,334,l),
(522,399,o),
(568,438,o),
(623,438,cs),
(685,438,o),
(714,392,o),
(714,294,cs),
(714,0,l),
(822,0,l),
(822,300,ls),
(822,456,o),
(768,530,o),
(653,530,cs),
(580,530,o),
(524,501,o),
(479,440,c),
(478,440,l),
(454,500,o),
(405,530,o),
(332,530,cs),
(265,530,o),
(218,505,o),
(177,448,c),
(175,448,l),
(175,520,l),
(72,520,l),
(72,0,l)
);
}
);
width = 880;
},
{
layerId = m006;
name = "Black F2";
shapes = (
{
closed = 1;
nodes = (
(252,0,l),
(252,315,l),
(260,346,o),
(284,366,o),
(314,366,cs),
(347,366,o),
(363,341,o),
(363,288,cs),
(363,0,l),
(553,0,l),
(553,315,l),
(561,346,o),
(585,366,o),
(615,366,cs),
(648,366,o),
(664,341,o),
(664,288,cs),
(664,0,l),
(858,0,l),
(858,300,ls),
(858,458,o),
(804,530,o),
(700,530,cs),
(636,530,o),
(572,503,o),
(526,460,c),
(524,460,l),
(499,506,o),
(454,530,o),
(398,530,cs),
(341,530,o),
(287,505,o),
(244,460,c),
(242,460,l),
(242,520,l),
(58,520,l),
(58,0,l)
);
}
);
width = 904;
},
{
layerId = m01;
name = "Thin F1";
shapes = (
{
closed = 1;
nodes = (
(106,0,l),
(106,306,ls),
(106,436,o),
(180,510,o),
(306,510,cs),
(425,510,o),
(486,441,o),
(486,306,cs),
(486,0,l),
(506,0,l),
(506,306,ls),
(506,432,o),
(583,510,o),
(706,510,cs),
(823,510,o),
(886,439,o),
(886,306,cs),
(886,0,l),
(906,0,l),
(906,306,ls),
(906,449,o),
(835,530,o),
(706,530,cs),
(601,530,o),
(526,477,o),
(498,388,c),
(496,388,l),
(474,481,o),
(409,530,o),
(306,530,cs),
(208,530,o),
(136,487,o),
(108,412,c),
(106,412,l),
(106,520,l),
(86,520,l),
(86,0,l)
);
}
);
width = 975;
},
{
associatedMasterId = m01;
attr = {
coordinates = (
200,
200
);
};
background = {
shapes = (
{
closed = 0;
nodes = (
(497,384,l),
(495,384,l)
);
}
);
};
layerId = "99584B94-22D3-449D-AA18-0BDC02D7093F";
name = "Jun 29, 26 at 16:22";
shapes = (
{
closed = 1;
nodes = (
(125,0,l),
(125,294,ls),
(125,420,o),
(193,491,o),
(309,491,cs),
(420,491,o),
(477,426,o),
(477,301,cs),
(477,0,l),
(519,0,l),
(519,294,ls),
(519,417,o),
(589,491,o),
(703,491,cs),
(812,491,o),
(871,425,o),
(871,301,cs),
(871,0,l),
(913,0,l),
(913,308,ls),
(913,449,o),
(841,530,o),
(712,530,cs),
(616,530,o),
(537,485,o),
(501,411,c),
(499,411,l),
(472,490,o),
(410,530,o),
(318,530,cs),
(228,530,o),
(154,492,o),
(125,431,c),
(123,431,l),
(123,520,l),
(83,520,l),
(83,0,l)
);
}
);
width = 979;
}
);
metricLeft = "=h";
metricRight = "=|*.8";
},
{
export = 0;
glyphname = w.001;
kernLeft = v;
kernRight = v;
lastChange = "2026-07-06 05:12:19 +0000";
layers = (
{
layerId = m01;
shapes = (
{
closed = 1;
nodes = (
(260,0,l),
(457,501,l),
(459,501,l),
(656,0,l),
(686,0,l),
(898,520,l),
(876,520,l),
(683,46,l),
(672,19,l),
(670,19,l),
(659,47,l),
(473,520,l),
(473,520,l),
(473,520,l),
(443,520,l),
(443,520,l),
(443,520,l),
(257,47,l),
(246,19,l),
(244,19,l),
(233,46,l),
(40,520,l),
(18,520,l),
(230,0,l)
);
}
);
width = 916;
},
{
associatedMasterId = m01;
attr = {
axisRules = (
{
max = 300;
min = 100;
},
{
max = 200;
min = 150;
}
);
};
background = {
shapes = (
{
closed = 1;
nodes = (
(284,0,l),
(595,520,l),
(572,520,l),
(294,55,l),
(274,20,l),
(272,20,l),
(246,76,l),
(40,520,l),
(18,520,l),
(259,0,l)
);
},
{
closed = 1;
nodes = (
(617,0,l),
(858,520,l),
(836,520,l),
(630,76,l),
(604,20,l),
(602,20,l),
(582,55,l),
(304,520,l),
(281,520,l),
(592,0,l)
);
}
);
};
layerId = "5BFF2A28-A5EB-47F3-BC50-DE6A2FB4DB15";
name = "Jul 2, 26 at 14:32";
shapes = (
{
closed = 1;
nodes = (
(284,0,l),
(438,257,l),
(592,0,l),
(617,0,l),
(858,520,l),
(836,520,l),
(630,76,l),
(604,20,l),
(602,20,l),
(582,55,l),
(449,277,l),
(595,520,l),
(572,520,l),
(438,296,l),
(304,520,l),
(281,520,l),
(427,277,l),
(294,55,l),
(274,20,l),
(272,20,l),
(246,76,l),
(40,520,l),
(18,520,l),
(259,0,l)
);
}
);
width = 876;
},
{
layerId = m002;
shapes = (
{
closed = 1;
nodes = (
(335,0,l),
(463,415,l),
(465,415,l),
(593,0,l),
(733,0,l),
(914,520,l),
(797,520,l),
(681,159,l),
(664,105,l),
(662,105,l),
(647,154,l),
(534,520,l),
(534,520,l),
(534,520,l),
(394,520,l),
(394,520,l),
(394,520,l),
(281,154,l),
(266,105,l),
(264,105,l),
(247,159,l),
(131,520,l),
(14,520,l),
(195,0,l)
);
}
);
width = 928;
},
{
associatedMasterId = m002;
attr = {
axisRules = (
{
max = 300;
min = 100;
},
{
max = 200;
min = 150;
}
);
};
background = {
shapes = (
{
closed = 1;
nodes = (
(384,0,l),
(674,520,l),
(560,520,l),
(347,138,l),
(316,79,l),
(314,79,l),
(293,130,l),
(128,520,l),
(14,520,l),
(234,0,l)
);
},
{
closed = 1;
nodes = (
(714,0,l),
(934,520,l),
(820,520,l),
(655,130,l),
(634,79,l),
(632,79,l),
(601,138,l),
(388,520,l),
(274,520,l),
(564,0,l)
);
}
);
};
layerId = "7F389CAB-D9EF-4772-B934-62F4EF3EEBF2";
name = "Jul 2, 26 at 14:32";
shapes = (
{
closed = 1;
nodes = (
(384,0,l),
(474,181,l),
(564,0,l),
(714,0,l),
(934,520,l),
(820,520,l),
(655,130,l),
(634,79,l),
(632,79,l),
(601,138,l),
(531,264,l),
(674,520,l),
(560,520,l),
(474,346,l),
(388,520,l),
(274,520,l),
(417,264,l),
(347,138,l),
(316,79,l),
(314,79,l),
(293,130,l),
(128,520,l),
(14,520,l),
(234,0,l)
);
}
);
width = 948;
},
{
background = {
shapes = (
{
closed = 1;
nodes = (
(411,0,l),
(471,350,l),
(473,350,l),
(533,0,l),
(783,0,l),
(932,520,l),
(720,520,l),
(660,170,l),
(658,170,l),
(598,520,l),
(598,520,l),
(598,520,l),
(598,520,l),
(598,520,l),
(346,520,l),
(346,520,l),
(346,520,l),
(346,520,l),
(346,520,l),
(286,170,l),
(284,170,l),
(224,520,l),
(12,520,l),
(161,0,l)
);
}
);
};
layerId = m003;
shapes = (
{
closed = 1;
nodes = (
(411,0,l),
(471,350,l),
(473,350,l),
(533,0,l),
(783,0,l),
(932,520,l),
(720,520,l),
(668,218,l),
(660,170,l),
(658,170,l),
(650,218,l),
(598,520,l),
(598,520,l),
(598,520,l),
(346,520,l),
(346,520,l),
(346,520,l),
(294,218,l),
(286,170,l),
(284,170,l),
(276,218,l),
(224,520,l),
(12,520,l),
(161,0,l)
);
}
);
width = 944;
},
{
layerId = m004;
name = "Thin F2";
shapes = (
{
closed = 1;
nodes = (
(224,0,l),
(377,502,l),
(379,502,l),
(532,0,l),
(564,0,l),
(738,520,l),
(717,520,l),
(558,45,l),
(549,18,l),
(547,18,l),
(537,52,l),
(394,520,l),
(394,520,l),
(394,520,l),
(362,520,l),
(362,520,l),
(362,520,l),
(219,52,l),
(209,18,l),
(207,18,l),
(198,45,l),
(39,520,l),
(18,520,l),
(192,0,l)
);
}
);
width = 756;
},
{
associatedMasterId = m004;
attr = {
axisRules = (
{
max = 300;
min = 100;
},
{
max = 200;
min = 150;
}
);
};
background = {
shapes = (
{
closed = 1;
nodes = (
(284,0,l),
(575,520,l),
(552,520,l),
(300,70,l),
(273,21,l),
(271,21,l),
(246,76,l),
(40,520,l),
(18,520,l),
(259,0,l)
);
},
{
closed = 1;
nodes = (
(577,0,l),
(818,520,l),
(796,520,l),
(590,76,l),
(565,21,l),
(563,21,l),
(536,70,l),
(284,520,l),
(261,520,l),
(552,0,l)
);
}
);
};
layerId = "FD7FF068-7DB1-4934-B33C-DDACFAB29FC6";
name = "Jul 2, 26 at 14:53";
shapes = (
{
closed = 1;
nodes = (
(284,0,l),
(418,239,l),
(552,0,l),
(577,0,l),
(818,520,l),
(796,520,l),
(590,76,l),
(565,21,l),
(563,21,l),
(536,70,l),
(430,260,l),
(575,520,l),
(552,520,l),
(418,281,l),
(284,520,l),
(261,520,l),
(406,260,l),
(300,70,l),
(273,21,l),
(271,21,l),
(246,76,l),
(40,520,l),
(18,520,l),
(259,0,l)
);
}
);
width = 836;
},
{
layerId = m005;
name = "Medium F2";
shapes = (
{
closed = 1;
nodes = (
(306,0,l),
(388,410,l),
(390,410,l),
(472,0,l),
(614,0,l),
(764,520,l),
(652,520,l),
(562,169,l),
(547,110,l),
(545,110,l),
(534,168,l),
(460,520,l),
(460,520,l),
(460,520,l),
(318,520,l),
(318,520,l),
(318,520,l),
(244,168,l),
(233,110,l),
(231,110,l),
(216,169,l),
(126,520,l),
(14,520,l),
(164,0,l)
);
}
);
width = 778;
},
{
associatedMasterId = m005;
attr = {
axisRules = (
{
max = 300;
min = 100;
},
{
max = 200;
min = 150;
}
);
};
background = {
shapes = (
{
closed = 1;
nodes = (
(374,0,l),
(654,520,l),
(540,520,l),
(328,126,l),
(306,82,l),
(304,82,l),
(285,131,l),
(128,520,l),
(14,520,l),
(224,0,l)
);
},
{
closed = 1;
nodes = (
(684,0,l),
(894,520,l),
(780,520,l),
(623,131,l),
(604,82,l),
(602,82,l),
(580,126,l),
(368,520,l),
(254,520,l),
(534,0,l)
);
}
);
};
layerId = "54609187-C85F-413B-BF59-C07B1D964E2A";
name = "Jul 2, 26 at 14:54";
shapes = (
{
closed = 1;
nodes = (
(374,0,l),
(454,169,l),
(534,0,l),
(684,0,l),
(894,520,l),
(780,520,l),
(623,131,l),
(604,82,l),
(602,82,l),
(580,126,l),
(511,254,l),
(654,520,l),
(540,520,l),
(454,340,l),
(368,520,l),
(254,520,l),
(397,254,l),
(328,126,l),
(306,82,l),
(304,82,l),
(285,131,l),
(128,520,l),
(14,520,l),
(224,0,l)
);
}
);
width = 908;
},
{
layerId = m006;
name = "Black F2";
shapes = (
{
closed = 1;
nodes = (
(359,0,l),
(401,340,l),
(403,340,l),
(445,0,l),
(657,0,l),
(792,520,l),
(594,520,l),
(560,228,l),
(555,180,l),
(553,180,l),
(548,228,l),
(508,520,l),
(508,520,l),
(508,520,l),
(296,520,l),
(296,520,l),
(296,520,l),
(256,228,l),
(251,180,l),
(249,180,l),
(244,228,l),
(210,520,l),
(12,520,l),
(147,0,l)
);
}
);
width = 804;
}
);
metricLeft = "=v*2";
metricRight = "=|";
},
{
export = 0;
glyphname = zero;
lastChange = "2026-06-08 09:00:40 +0000";
layers = (
{
layerId = m01;
shapes = (
{
closed = 1;
nodes = (
(659,-20,o),
(820,141,o),
(820,365,cs),
(820,589,o),
(659,750,o),
(435,750,cs),
(211,750,o),
(50,589,o),
(50,365,cs),
(50,141,o),
(211,-20,o),
(435,-20,cs)
);
},
{
closed = 1;
nodes = (
(222,0,o),
(70,152,o),
(70,365,cs),
(70,578,o),
(222,730,o),
(435,730,cs),
(648,730,o),
(800,578,o),
(800,365,cs),
(800,152,o),
(648,0,o),
(435,0,cs)
);
}
);
width = 600;
},
{
layerId = m002;
shapes = (
{
closed = 1;
nodes = (
(649,-20,o),
(810,141,o),
(810,365,cs),
(810,589,o),
(649,750,o),
(425,750,cs),
(201,750,o),
(40,589,o),
(40,365,cs),
(40,141,o),
(201,-20,o),
(425,-20,cs)
);
},
{
closed = 1;
nodes = (
(264,85,o),
(150,201,o),
(150,365,cs),
(150,529,o),
(264,645,o),
(425,645,cs),
(586,645,o),
(700,529,o),
(700,365,cs),
(700,201,o),
(586,85,o),
(425,85,cs)
);
}
);
width = 600;
},
{
layerId = m003;
shapes = (
{
closed = 1;
nodes = (
(639,-20,o),
(800,141,o),
(800,365,cs),
(800,589,o),
(639,750,o),
(415,750,cs),
(191,750,o),
(30,589,o),
(30,365,cs),
(30,141,o),
(191,-20,o),
(415,-20,cs)
);
},
{
closed = 1;
nodes = (
(307,170,o),
(230,251,o),
(230,365,cs),
(230,479,o),
(307,560,o),
(415,560,cs),
(523,560,o),
(600,479,o),
(600,365,cs),
(600,251,o),
(523,170,o),
(415,170,cs)
);
}
);
width = 600;
},
{
layerId = m004;
shapes = (
{
closed = 1;
nodes = (
(538,-20,o),
(650,124,o),
(650,365,cs),
(650,606,o),
(538,750,o),
(350,750,cs),
(162,750,o),
(50,606,o),
(50,365,cs),
(50,124,o),
(162,-20,o),
(350,-20,cs)
);
},
{
closed = 1;
nodes = (
(175,0,o),
(70,134,o),
(70,365,cs),
(70,596,o),
(175,730,o),
(350,730,cs),
(525,730,o),
(630,596,o),
(630,365,cs),
(630,134,o),
(525,0,o),
(350,0,cs)
);
}
);
width = 600;
},
{
layerId = m005;
shapes = (
{
closed = 1;
nodes = (
(569,-20,o),
(690,124,o),
(690,365,cs),
(690,606,o),
(569,750,o),
(365,750,cs),
(162,750,o),
(40,606,o),
(40,365,cs),
(40,124,o),
(162,-20,o),
(365,-20,cs)
);
},
{
closed = 1;
nodes = (
(230,78,o),
(150,185,o),
(150,365,cs),
(150,545,o),
(230,652,o),
(365,652,cs),
(500,652,o),
(580,545,o),
(580,365,cs),
(580,185,o),
(500,78,o),
(365,78,cs)
);
}
);
width = 600;
},
{
layerId = m006;
shapes = (
{
closed = 1;
nodes = (
(599,-20,o),
(730,124,o),
(730,365,cs),
(730,606,o),
(599,750,o),
(380,750,cs),
(161,750,o),
(30,606,o),
(30,365,cs),
(30,124,o),
(161,-20,o),
(380,-20,cs)
);
},
{
closed = 1;
nodes = (
(285,158,o),
(228,236,o),
(228,365,cs),
(228,494,o),
(285,572,o),
(380,572,cs),
(475,572,o),
(532,494,o),
(532,365,cs),
(532,236,o),
(475,158,o),
(380,158,cs)
);
}
);
width = 600;
}
);
unicode = 48;
},
{
color = 4;
glyphname = period;
lastChange = "2026-07-05 07:39:29 +0000";
layers = (
{
layerId = m01;
shapes = (
{
closed = 1;
nodes = (
(119,-10,o),
(132,2,o),
(132,19,cs),
(132,36,o),
(119,48,o),
(102,48,cs),
(85,48,o),
(72,36,o),
(72,19,cs),
(72,2,o),
(85,-10,o),
(102,-10,cs)
);
}
);
width = 204;
},
{
layerId = m002;
shapes = (
{
closed = 1;
nodes = (
(179,-10,o),
(210,20,o),
(210,62,cs),
(210,104,o),
(179,134,o),
(135,134,cs),
(91,134,o),
(60,104,o),
(60,62,cs),
(60,20,o),
(91,-10,o),
(135,-10,cs)
);
}
);
width = 270;
},
{
layerId = m003;
shapes = (
{
closed = 1;
nodes = (
(238,-10,o),
(288,38,o),
(288,105,cs),
(288,172,o),
(238,220,o),
(168,220,cs),
(98,220,o),
(48,172,o),
(48,105,cs),
(48,38,o),
(98,-10,o),
(168,-10,cs)
);
}
);
width = 336;
},
{
layerId = m004;
shapes = (
{
closed = 1;
nodes = (
(119,-10,o),
(132,2,o),
(132,19,cs),
(132,36,o),
(119,48,o),
(102,48,cs),
(85,48,o),
(72,36,o),
(72,19,cs),
(72,2,o),
(85,-10,o),
(102,-10,cs)
);
}
);
width = 204;
},
{
layerId = m005;
shapes = (
{
closed = 1;
nodes = (
(179,-10,o),
(210,20,o),
(210,62,cs),
(210,104,o),
(179,134,o),
(135,134,cs),
(91,134,o),
(60,104,o),
(60,62,cs),
(60,20,o),
(91,-10,o),
(135,-10,cs)
);
}
);
width = 270;
},
{
layerId = m006;
shapes = (
{
closed = 1;
nodes = (
(238,-10,o),
(288,38,o),
(288,105,cs),
(288,172,o),
(238,220,o),
(168,220,cs),
(98,220,o),
(48,172,o),
(48,105,cs),
(48,38,o),
(98,-10,o),
(168,-10,cs)
);
}
);
width = 336;
}
);
metricLeft = "=H*.8";
metricRight = "=|";
unicode = 46;
},
{
color = 4;
glyphname = comma;
lastChange = "2026-07-06 02:26:49 +0000";
layers = (
{
layerId = m01;
shapes = (
{
closed = 1;
nodes = (
(28,-170,l),
(123,130,l),
(102,130,l),
(7,-170,l)
);
}
);
width = 152;
},
{
layerId = m002;
shapes = (
{
closed = 1;
nodes = (
(92,-170,l),
(204,170,l),
(88,170,l),
(6,-170,l)
);
}
);
width = 228;
},
{
layerId = m003;
shapes = (
{
closed = 1;
nodes = (
(155,-170,l),
(285,210,l),
(75,210,l),
(5,-170,l)
);
}
);
width = 304;
},
{
layerId = m004;
shapes = (
{
closed = 1;
nodes = (
(28,-170,l),
(123,130,l),
(102,130,l),
(7,-170,l)
);
}
);
width = 152;
},
{
layerId = m005;
shapes = (
{
closed = 1;
nodes = (
(92,-170,l),
(204,170,l),
(88,170,l),
(6,-170,l)
);
}
);
width = 228;
},
{
layerId = m006;
shapes = (
{
closed = 1;
nodes = (
(155,-170,l),
(285,210,l),
(75,210,l),
(5,-170,l)
);
}
);
width = 304;
}
);
metricLeft = "=period*.1";
metricRight = "=period*.4";
unicode = 44;
},
